SplineFontDB: 3.2
FontName: Titillium-ThinItalic
FullName: Titillium Thin Italic
FamilyName: Titillium Thin
Weight: Thin
Copyright: Copyright (c) 2009-2011 by Accademia di Belle Arti di Urbino and students of MA course of Visual design. Some rights reserved.
Version: 57.000
ItalicAngle: -13
UnderlinePosition: -100
UnderlineWidth: 30
Ascent: 750
Descent: 250
InvalidEm: 0
sfntRevision: 0x00010000
LayerCount: 2
Layer: 0 0 "Zur+APwA-ck" 1
Layer: 1 0 "Zeichen" 0
XUID: [1021 1010 -703601740 21214]
StyleMap: 0x0001
FSType: 8
OS2Version: 3
OS2_WeightWidthSlopeOnly: 0
OS2_UseTypoMetrics: 0
CreationTime: 1339467515
ModificationTime: 1577951637
PfmFamily: 81
TTFWeight: 100
TTFWidth: 5
LineGap: 200
VLineGap: 0
Panose: 2 11 2 0 0 0 0 0 0 0
OS2TypoAscent: 750
OS2TypoAOffset: 0
OS2TypoDescent: -250
OS2TypoDOffset: 0
OS2TypoLinegap: 200
OS2WinAscent: 1051
OS2WinAOffset: 0
OS2WinDescent: 265
OS2WinDOffset: 0
HheadAscent: 750
HheadAOffset: 0
HheadDescent: -250
HheadDOffset: 0
OS2SubXSize: 650
OS2SubYSize: 600
OS2SubXOff: -17
OS2SubYOff: 75
OS2SupXSize: 650
OS2SupYSize: 600
OS2SupXOff: 81
OS2SupYOff: 350
OS2StrikeYSize: 30
OS2StrikeYPos: 300
OS2CapHeight: 700
OS2XHeight: 500
OS2Vendor: 'UKWN'
OS2CodePages: 20000093.00000000
OS2UnicodeRanges: 00000007.00000001.00000000.00000000
Lookup: 1 0 0 "'locl' Localized Forms in Lateinisch lookup 0" { "'locl' Localized Forms in Lateinisch lookup 0 subtable"  } ['locl' ('DFLT' <'dflt' > 'latn' <'dflt' > ) ]
Lookup: 1 0 0 "'frac' Diagonal Fractions in Lateinisch lookup 1" { "'frac' Diagonal Fractions in Lateinisch lookup 1 subtable"  } ['frac' ('DFLT' <'dflt' > 'latn' <'dflt' > ) ]
Lookup: 6 0 0 "'frac' Diagonal Fractions in Lateinisch lookup 2" { "'frac' Diagonal Fractions in Lateinisch lookup 2 subtable"  } ['frac' ('DFLT' <'dflt' > 'latn' <'dflt' > ) ]
Lookup: 1 0 0 "'frac' Diagonal Fractions in Lateinisch lookup 3" { "'frac' Diagonal Fractions in Lateinisch lookup 3 subtable"  } ['frac' ('DFLT' <'dflt' > 'latn' <'dflt' > ) ]

StartChar: acute
Encoding: 180 180 2
Width: 537
Flags: MW
HStem: 700 21G<500 500> 710 20G<494 494>
VStem: 291 209<635 700>
LayerCount: 2
Fore
SplineSet
296 610 m 1xa0
 291 635 l 1xa0
 494 730 l 1x60
 500 700 l 1
 296 610 l 1xa0
EndSplineSet
EndChar

StartChar: breve
Encoding: 728 728 3
Width: 424
Flags: MW
HStem: 595 28<324.5 391.5 324.5 395>
VStem: 251 28
LayerCount: 2
Fore
SplineSet
255 721 m 1
 283 721 l 1
 268 665 292 623 357 623 c 0
 426 623 464 667 478 721 c 1
 506 721 l 1
 487 646 441 595 349 595 c 0
 271 595 238 652 255 721 c 1
EndSplineSet
EndChar

StartChar: caron
Encoding: 711 711 4
Width: 791
Flags: MW
HStem: 710 20G<434 466 466 466 647 686 686 686>
VStem: 434 252<730 730>
LayerCount: 2
Fore
SplineSet
534 595 m 1
 520 595 l 1
 434 730 l 1
 466 730 l 1
 532 625 l 1
 647 730 l 1
 686 730 l 1
 534 595 l 1
EndSplineSet
EndChar

StartChar: cedilla
Encoding: 184 184 5
Width: 791
Flags: MW
HStem: -199 31<391 421.5 391 428> -83 30<415 420 420 428>
VStem: 326 173
LayerCount: 2
Fore
SplineSet
497 -124 m 0
 485 -178 454 -199 402 -199 c 0
 360 -199 326 -195 326 -195 c 1
 334 -164 l 1
 334 -164 375 -168 407 -168 c 0
 436 -168 455 -157 463 -124 c 0
 471 -90 450 -83 428 -83 c 2
 377 -83 l 1
 398 5 l 1
 430 5 l 1
 415 -53 l 1
 420 -53 l 2
 471 -53 509 -71 497 -124 c 0
EndSplineSet
EndChar

StartChar: circumflex
Encoding: 710 710 6
Width: 791
Flags: MW
HStem: 696 34<554 554> 710 20G<551 565 565 565>
VStem: 405 247<595 595>
LayerCount: 2
Fore
SplineSet
405 595 m 1x60
 551 730 l 1
 565 730 l 1
 652 595 l 1
 618 595 l 1
 554 696 l 1xa0
 444 595 l 1
 405 595 l 1x60
EndSplineSet
EndChar

StartChar: commaaccent
Encoding: 63171 63171 7
Width: 161
Flags: MW
HStem: -265 192<-23 91 -23 91>
VStem: -23 114
LayerCount: 2
Fore
SplineSet
-23 -265 m 1
 57 -73 l 1
 91 -73 l 1
 3 -265 l 1
 -23 -265 l 1
EndSplineSet
EndChar

StartChar: dieresis
Encoding: 168 168 8
Width: 791
Flags: MW
HStem: 633 65<260 304 275 289 448 462>
VStem: 260 217<633 698>
LayerCount: 2
Fore
SplineSet
260 633 m 1
 275 698 l 1
 304 698 l 1
 289 633 l 1
 260 633 l 1
435 633 m 1
 448 698 l 1
 477 698 l 1
 462 633 l 1
 435 633 l 1
EndSplineSet
EndChar

StartChar: dotaccent
Encoding: 729 729 9
Width: 204
Flags: MW
HStem: 620 58<232 275 246 262>
VStem: 232 43
LayerCount: 2
Fore
SplineSet
232 620 m 1
 246 678 l 1
 275 678 l 1
 262 620 l 1
 232 620 l 1
EndSplineSet
EndChar

StartChar: hungarumlaut
Encoding: 733 733 10
Width: 651
Flags: MW
HStem: 594 130<464 472>
VStem: 287 364<619 698>
LayerCount: 2
Fore
SplineSet
472 594 m 1
 461 619 l 1
 639 724 l 1
 651 698 l 1
 472 594 l 1
298 594 m 1
 287 619 l 1
 464 724 l 1
 476 698 l 1
 298 594 l 1
EndSplineSet
EndChar

StartChar: grave
Encoding: 96 96 11
Width: 518
Flags: MW
HStem: 604 117
VStem: 304 178<626 696>
LayerCount: 2
Fore
SplineSet
322 721 m 1
 482 626 l 1
 464 604 l 1
 304 696 l 1
 322 721 l 1
EndSplineSet
EndChar

StartChar: macron
Encoding: 175 175 12
Width: 424
Flags: MW
HStem: 647 26<237 496 243 489>
VStem: 237 259<647 673>
LayerCount: 2
Fore
SplineSet
237 647 m 1
 243 673 l 1
 496 673 l 1
 489 647 l 1
 237 647 l 1
EndSplineSet
EndChar

StartChar: ogonek
Encoding: 731 731 13
Width: 412
Flags: MW
HStem: -198 33<187 200>
VStem: 125 40<-149 -119 -149 -118>
LayerCount: 2
Fore
SplineSet
253 -158 m 1
 249 -190 l 1
 249 -190 213 -198 187 -198 c 0
 144 -198 125 -176 125 -144 c 0
 125 -92 204 -17 237 10 c 1
 270 3 l 1
 238 -24 165 -97 165 -141 c 0
 165 -157 177 -165 197 -165 c 0
 216 -165 253 -158 253 -158 c 1
EndSplineSet
EndChar

StartChar: ring
Encoding: 730 730 14
Width: 791
Flags: MW
HStem: 556 29<374 408 374 413.5> 707 21G<404 438>
VStem: 320 28<647 647>
LayerCount: 2
Fore
SplineSet
320 647 m 0
 328 693 369 738 428 738 c 0
 470 738 493 713 493 668 c 0
 493 604 443 556 384 556 c 0
 327 556 311 595 320 647 c 0
348 647 m 0
 341 617 357 585 391 585 c 0
 425 585 455 613 463 647 c 0
 470 676 455 707 421 707 c 0
 387 707 355 680 348 647 c 0
EndSplineSet
EndChar

StartChar: tilde
Encoding: 732 732 15
Width: 414
Flags: MW
HStem: 630 32<432 453.5 432 453.5> 667 21G<234 234> 681 32<307 326> 703 21G<513 513>
VStem: 234 284<667 673>
LayerCount: 2
Fore
SplineSet
513 703 m 1x58
 518 673 l 1
 518 673 468 630 439 630 c 0x98
 405 630 340 681 312 681 c 0
 293 681 236 636 236 636 c 1
 234 667 l 1
 234 667 292 713 322 713 c 0x28
 357 713 419 662 445 662 c 0x98
 462 662 513 703 513 703 c 1x58
EndSplineSet
EndChar

StartChar: A
Encoding: 65 65 16
Width: 556
Flags: MW
HStem: 0 21G<32 32 32 69 494 494 494 530> 216 32<201 480 201 482 183 480> 667 33<423 423 423 459>
VStem: 32 498<0 0>
LayerCount: 2
Fore
SplineSet
32 0 m 1
 403 700 l 1
 492 700 l 1
 530 0 l 1
 494 0 l 1
 482 216 l 1
 183 216 l 1
 69 0 l 1
 32 0 l 1
423 667 m 1
 201 248 l 1
 480 248 l 1
 459 667 l 1
 423 667 l 1
EndSplineSet
Position2: "'cpsp' Capital Spacing in Lateinisch lookup 0 subtable" dx=5 dy=0 dh=10 dv=0
EndChar

StartChar: Aacute
Encoding: 193 193 17
Width: 556
Flags: MW
HStem: 0 21G<32 32 32 69 494 494 494 530> 216 32<201 480 201 482 183 480> 667 33<423 423 423 459>
VStem: 32 584
LayerCount: 2
Fore
SplineSet
411 798 m 1
 403 823 l 1
 607 919 l 1
 616 890 l 1
 411 798 l 1
32 0 m 1
 403 700 l 1
 492 700 l 1
 530 0 l 1
 494 0 l 1
 482 216 l 1
 183 216 l 1
 69 0 l 1
 32 0 l 1
423 667 m 1
 201 248 l 1
 480 248 l 1
 459 667 l 1
 423 667 l 1
EndSplineSet
Position2: "'cpsp' Capital Spacing in Lateinisch lookup 0 subtable" dx=5 dy=0 dh=10 dv=0
EndChar

StartChar: Abreve
Encoding: 258 258 18
Width: 556
Flags: MW
HStem: 0 21G<32 32 32 69 494 494 494 530> 216 32<201 480 201 482 183 480> 667 33<423 423 423 459> 803 30<440 493 440 496>
VStem: 360 33
LayerCount: 2
Fore
SplineSet
363 920 m 1
 393 920 l 1
 381 852 413 833 467 833 c 0
 519 833 570 867 583 920 c 1
 613 920 l 1
 594 844 532 803 460 803 c 0
 386 803 348 839 363 920 c 1
32 0 m 1
 403 700 l 1
 492 700 l 1
 530 0 l 1
 494 0 l 1
 482 216 l 1
 183 216 l 1
 69 0 l 1
 32 0 l 1
423 667 m 1
 201 248 l 1
 480 248 l 1
 459 667 l 1
 423 667 l 1
EndSplineSet
Position2: "'cpsp' Capital Spacing in Lateinisch lookup 0 subtable" dx=5 dy=0 dh=10 dv=0
EndChar

StartChar: Acircumflex
Encoding: 194 194 19
Width: 556
Flags: MW
HStem: 0 21G<32 32 32 69 494 494 494 530> 216 32<201 480 201 482 183 480> 667 33<423 423 423 459>
VStem: 32 559
LayerCount: 2
Fore
SplineSet
324 803 m 1
 480 931 l 1
 494 931 l 1
 591 803 l 1
 557 803 l 1
 484 900 l 1
 365 803 l 1
 324 803 l 1
32 0 m 1
 403 700 l 1
 492 700 l 1
 530 0 l 1
 494 0 l 1
 482 216 l 1
 183 216 l 1
 69 0 l 1
 32 0 l 1
423 667 m 1
 201 248 l 1
 480 248 l 1
 459 667 l 1
 423 667 l 1
EndSplineSet
Position2: "'cpsp' Capital Spacing in Lateinisch lookup 0 subtable" dx=5 dy=0 dh=10 dv=0
EndChar

StartChar: Agrave
Encoding: 192 192 20
Width: 556
Flags: MW
HStem: 0 21G<32 32 32 69 494 494 494 530> 216 32<201 480 201 482 183 480> 667 33<423 423 423 459>
VStem: 32 498<0 0>
LayerCount: 2
Fore
SplineSet
350 917 m 1
 510 820 l 1
 495 798 l 1
 333 890 l 1
 350 917 l 1
32 0 m 1
 403 700 l 1
 492 700 l 1
 530 0 l 1
 494 0 l 1
 482 216 l 1
 183 216 l 1
 69 0 l 1
 32 0 l 1
423 667 m 1
 201 248 l 1
 480 248 l 1
 459 667 l 1
 423 667 l 1
EndSplineSet
Position2: "'cpsp' Capital Spacing in Lateinisch lookup 0 subtable" dx=5 dy=0 dh=10 dv=0
EndChar

StartChar: Adieresis
Encoding: 196 196 21
Width: 556
Flags: MW
HStem: 0 21G<32 32 32 69 494 494 494 530> 216 32<201 480 201 482 183 480> 667 33<423 423 423 459> 831 66<363 407 377 390 558 571>
VStem: 32 555
LayerCount: 2
Fore
SplineSet
363 831 m 1
 377 897 l 1
 407 897 l 1
 390 831 l 1
 363 831 l 1
542 831 m 1
 558 897 l 1
 587 897 l 1
 571 831 l 1
 542 831 l 1
32 0 m 1
 403 700 l 1
 492 700 l 1
 530 0 l 1
 494 0 l 1
 482 216 l 1
 183 216 l 1
 69 0 l 1
 32 0 l 1
423 667 m 1
 201 248 l 1
 480 248 l 1
 459 667 l 1
 423 667 l 1
EndSplineSet
Position2: "'cpsp' Capital Spacing in Lateinisch lookup 0 subtable" dx=5 dy=0 dh=10 dv=0
EndChar

StartChar: Amacron
Encoding: 256 256 22
Width: 556
Flags: MW
HStem: 0 21G<32 32 32 69 494 494 494 530> 216 32<201 480 201 482 183 480> 667 33<423 423 423 459> 845 26<333 610 338 603>
VStem: 32 578
LayerCount: 2
Fore
SplineSet
333 845 m 1
 338 871 l 1
 610 871 l 1
 603 845 l 1
 333 845 l 1
32 0 m 1
 403 700 l 1
 492 700 l 1
 530 0 l 1
 494 0 l 1
 482 216 l 1
 183 216 l 1
 69 0 l 1
 32 0 l 1
423 667 m 1
 201 248 l 1
 480 248 l 1
 459 667 l 1
 423 667 l 1
EndSplineSet
Position2: "'cpsp' Capital Spacing in Lateinisch lookup 0 subtable" dx=5 dy=0 dh=10 dv=0
EndChar

StartChar: Aogonek
Encoding: 260 260 23
Width: 556
Flags: MW
HStem: -198 33<447 460> 0 21G<32 32 32 69 526 526 526 530> 216 32<201 480 201 482 183 480> 667 33<423 423 423 459>
VStem: 385 40<-149 -119.5 -149 -119> 487.5 42.5
LayerCount: 2
Fore
SplineSet
32 0 m 1
 403 700 l 1
 492 700 l 1
 530 3 l 1
 530 0 l 1
 526 0 l 1
 493 -29 425 -98 425 -141 c 0
 425 -157 437 -165 457 -165 c 0
 476 -165 513 -158 513 -158 c 1
 509 -190 l 1
 509 -190 473 -198 447 -198 c 0
 404 -198 385 -176 385 -144 c 0
 385 -94 458 -22 493 7 c 1
 482 216 l 1
 183 216 l 1
 69 0 l 1
 32 0 l 1
423 667 m 1
 201 248 l 1
 480 248 l 1
 459 667 l 1
 423 667 l 1
EndSplineSet
Position2: "'cpsp' Capital Spacing in Lateinisch lookup 0 subtable" dx=5 dy=0 dh=10 dv=0
EndChar

StartChar: Aring
Encoding: 197 197 24
Width: 556
Flags: MW
HStem: 0 21G<32 32 32 69 494 494 494 530> 216 32<201 480 201 482 183 480> 667 33<423 423 423 434 434 438 438 459> 680 20 815 29<455 493.5>
VStem: 369 30
LayerCount: 2
Fore
SplineSet
32 0 m 1xec
 392 679 l 1
 370 693 363 720 373 755 c 0
 389 814 428 844 481 844 c 0
 532 844 561 817 546 755 c 0
 537 721 520 695 493 680 c 1xdc
 530 0 l 1
 494 0 l 1
 482 216 l 1
 183 216 l 1
 69 0 l 1
 32 0 l 1xec
423 667 m 1xec
 201 248 l 1
 480 248 l 1
 459 667 l 1
 438 667 l 1
 434 667 l 1
 423 667 l 1xec
399 755 m 0
 393 730 399 708 420 700 c 1
 473 700 l 1
 497 708 513 727 520 755 c 0
 528 791 513 815 474 815 c 0
 436 815 409 794 399 755 c 0
EndSplineSet
Position2: "'cpsp' Capital Spacing in Lateinisch lookup 0 subtable" dx=5 dy=0 dh=10 dv=0
EndChar

StartChar: Atilde
Encoding: 195 195 25
Width: 556
Flags: MW
HStem: 0 21G<32 32 32 69 494 494 494 530> 216 32<201 480 201 482 183 480> 667 33<423 423 423 459> 820 31<530.5 552> 884 30<394.5 417.5>
VStem: 32 597
LayerCount: 2
Fore
SplineSet
625 902 m 1
 629 877 l 1
 629 877 566 820 538 820 c 0
 498 820 432 884 403 884 c 0
 383 884 314 829 314 829 c 1
 313 857 l 1
 313 857 379 914 410 914 c 0
 452 914 515 851 546 851 c 0
 563 851 625 902 625 902 c 1
32 0 m 1
 403 700 l 1
 492 700 l 1
 530 0 l 1
 494 0 l 1
 482 216 l 1
 183 216 l 1
 69 0 l 1
 32 0 l 1
423 667 m 1
 201 248 l 1
 480 248 l 1
 459 667 l 1
 423 667 l 1
EndSplineSet
Position2: "'cpsp' Capital Spacing in Lateinisch lookup 0 subtable" dx=5 dy=0 dh=10 dv=0
EndChar

StartChar: AE
Encoding: 198 198 26
Width: 797
Flags: MW
HStem: 0 33<414 749> 215 32<197 421 181 428> 343 33<493 774 487 780> 667 33<418 418 418 530 907 907>
VStem: 32 881<0 700>
LayerCount: 2
Fore
SplineSet
372 0 m 1
 421 215 l 1
 181 215 l 1
 67 0 l 1
 32 0 l 1
 402 700 l 1
 913 700 l 1
 907 667 l 1
 564 669 l 1
 493 376 l 1
 780 376 l 1
 774 343 l 1
 487 343 l 1
 414 33 l 1
 755 33 l 1
 749 0 l 1
 372 0 l 1
418 667 m 1
 197 247 l 1
 428 247 l 1
 530 667 l 1
 418 667 l 1
EndSplineSet
Position2: "'cpsp' Capital Spacing in Lateinisch lookup 0 subtable" dx=5 dy=0 dh=10 dv=0
EndChar

StartChar: AEacute
Encoding: 508 508 27
Width: 797
Flags: MW
HStem: 0 33<414 749> 215 32<197 421 181 428> 343 33<493 774 487 780> 667 33<418 418 418 530 907 907>
VStem: 32 881<0 700>
LayerCount: 2
Fore
SplineSet
372 0 m 1
 421 215 l 1
 181 215 l 1
 67 0 l 1
 32 0 l 1
 402 700 l 1
 913 700 l 1
 907 667 l 1
 564 669 l 1
 493 376 l 1
 780 376 l 1
 774 343 l 1
 487 343 l 1
 414 33 l 1
 755 33 l 1
 749 0 l 1
 372 0 l 1
418 667 m 1
 197 247 l 1
 428 247 l 1
 530 667 l 1
 418 667 l 1
582 798 m 1
 574 823 l 1
 778 919 l 1
 787 890 l 1
 582 798 l 1
EndSplineSet
Position2: "'cpsp' Capital Spacing in Lateinisch lookup 0 subtable" dx=5 dy=0 dh=10 dv=0
EndChar

StartChar: B
Encoding: 66 66 28
Width: 580
Flags: MW
HStem: 0 33<130 313> 343 33<208 388 201 396> 667 33<275 455 275 275>
VStem: 537 38<178 278.5 167 283.5> 583 37<518 609>
LayerCount: 2
Fore
SplineSet
247 700 m 1
 462 700 l 2
 567 700 620 668 620 572 c 0xf8
 620 461 552 387 479 363 c 1
 536 348 575 314 575 243 c 0
 575 91 481 0 313 0 c 2
 86 0 l 1
 247 700 l 1
388 343 m 2
 201 343 l 1
 130 33 l 1
 321 33 l 2
 460 33 537 114 537 242 c 0xf0
 537 325 469 343 388 343 c 2
455 667 m 2
 275 667 l 1
 208 376 l 1
 396 376 l 2
 510 376 583 465 583 571 c 0xf8
 583 647 543 667 455 667 c 2
EndSplineSet
Position2: "'cpsp' Capital Spacing in Lateinisch lookup 0 subtable" dx=5 dy=0 dh=10 dv=0
EndChar

StartChar: C
Encoding: 67 67 29
Width: 510
Flags: MW
HStem: -9 34<258 346> 675 34<363 501>
VStem: 121 38<134 289 134 296.5>
LayerCount: 2
Fore
SplineSet
474 44 m 1
 473 11 l 1
 473 11 386 -9 306 -9 c 0
 182 -9 121 59 121 190 c 0
 121 403 232 709 469 709 c 0
 546 709 632 690 632 690 c 1
 624 658 l 1
 624 658 537 675 465 675 c 0
 261 675 159 388 159 190 c 0
 159 78 205 25 311 25 c 0
 391 25 474 44 474 44 c 1
EndSplineSet
Position2: "'cpsp' Capital Spacing in Lateinisch lookup 0 subtable" dx=5 dy=0 dh=10 dv=0
EndChar

StartChar: Cacute
Encoding: 262 262 30
Width: 510
Flags: MW
HStem: -9 34<258 346> 675 34<363 501>
VStem: 121 38<134 289 134 296.5>
LayerCount: 2
Fore
SplineSet
474 44 m 1
 473 11 l 1
 473 11 386 -9 306 -9 c 0
 182 -9 121 59 121 190 c 0
 121 403 232 709 469 709 c 0
 546 709 632 690 632 690 c 1
 624 658 l 1
 624 658 537 675 465 675 c 0
 261 675 159 388 159 190 c 0
 159 78 205 25 311 25 c 0
 391 25 474 44 474 44 c 1
428 798 m 1
 420 823 l 1
 624 919 l 1
 633 890 l 1
 428 798 l 1
EndSplineSet
Position2: "'cpsp' Capital Spacing in Lateinisch lookup 0 subtable" dx=5 dy=0 dh=10 dv=0
EndChar

StartChar: Ccaron
Encoding: 268 268 31
Width: 510
Flags: MW
HStem: -9 34<258 346> 675 34<363 501> 803 29<498 498 498 503 486 498>
VStem: 121 38<134 289 134 296.5>
LayerCount: 2
Fore
SplineSet
474 44 m 1
 473 11 l 1
 473 11 386 -9 306 -9 c 0
 182 -9 121 59 121 190 c 0
 121 403 232 709 469 709 c 0
 546 709 632 690 632 690 c 1
 624 658 l 1
 624 658 537 675 465 675 c 0
 261 675 159 388 159 190 c 0
 159 78 205 25 311 25 c 0
 391 25 474 44 474 44 c 1
658 931 m 1
 503 803 l 1
 486 803 l 1
 386 931 l 1
 421 931 l 1
 498 832 l 1
 618 931 l 1
 658 931 l 1
EndSplineSet
Position2: "'cpsp' Capital Spacing in Lateinisch lookup 0 subtable" dx=5 dy=0 dh=10 dv=0
EndChar

StartChar: Ccedilla
Encoding: 199 199 32
Width: 510
Flags: MW
HStem: -199 31<269 299.5 269 306> -83 30<293 298 298 306> -9 34<304 306 304 304> -7 32<273 273> 675 34<363 501>
VStem: 121 38<134 289 134 296.5>
LayerCount: 2
Fore
SplineSet
474 44 m 1xec
 473 11 l 1
 473 11 386 -9 306 -9 c 2
 304 -9 l 1xec
 293 -53 l 1
 298 -53 l 2
 349 -53 387 -71 375 -124 c 0
 363 -178 332 -199 280 -199 c 0
 238 -199 204 -195 204 -195 c 1
 212 -164 l 1
 212 -164 253 -168 285 -168 c 0
 314 -168 333 -157 341 -124 c 0
 349 -90 328 -83 306 -83 c 2
 255 -83 l 1
 273 -7 l 1xdc
 171 4 121 71 121 190 c 0
 121 403 232 709 469 709 c 0
 546 709 632 690 632 690 c 1
 624 658 l 1
 624 658 537 675 465 675 c 0
 261 675 159 388 159 190 c 0
 159 78 205 25 311 25 c 0
 391 25 474 44 474 44 c 1xec
EndSplineSet
Position2: "'cpsp' Capital Spacing in Lateinisch lookup 0 subtable" dx=5 dy=0 dh=10 dv=0
EndChar

StartChar: Ccircumflex
Encoding: 264 264 33
Width: 510
Flags: MW
HStem: -9 34<258 346> 675 34<363 501>
VStem: 121 38<134 289 134 296.5>
LayerCount: 2
Fore
SplineSet
474 44 m 1
 473 11 l 1
 473 11 386 -9 306 -9 c 0
 182 -9 121 59 121 190 c 0
 121 403 232 709 469 709 c 0
 546 709 632 690 632 690 c 1
 624 658 l 1
 624 658 537 675 465 675 c 0
 261 675 159 388 159 190 c 0
 159 78 205 25 311 25 c 0
 391 25 474 44 474 44 c 1
364 803 m 1
 520 931 l 1
 534 931 l 1
 631 803 l 1
 597 803 l 1
 524 900 l 1
 405 803 l 1
 364 803 l 1
EndSplineSet
Position2: "'cpsp' Capital Spacing in Lateinisch lookup 0 subtable" dx=5 dy=0 dh=10 dv=0
EndChar

StartChar: Cdotaccent
Encoding: 266 266 34
Width: 510
Flags: MW
HStem: -9 34<258 346> 675 34<363 501> 807 58<480 520 492 509>
VStem: 121 38<134 289 134 296.5>
LayerCount: 2
Fore
SplineSet
474 44 m 1
 473 11 l 1
 473 11 386 -9 306 -9 c 0
 182 -9 121 59 121 190 c 0
 121 403 232 709 469 709 c 0
 546 709 632 690 632 690 c 1
 624 658 l 1
 624 658 537 675 465 675 c 0
 261 675 159 388 159 190 c 0
 159 78 205 25 311 25 c 0
 391 25 474 44 474 44 c 1
480 807 m 1
 492 865 l 1
 520 865 l 1
 509 807 l 1
 480 807 l 1
EndSplineSet
Position2: "'cpsp' Capital Spacing in Lateinisch lookup 0 subtable" dx=5 dy=0 dh=10 dv=0
EndChar

StartChar: D
Encoding: 68 68 35
Width: 608
Flags: MW
HStem: 0 33<131 323> 667 33<276 469 276 276>
VStem: 608 38<401.5 553.5>
LayerCount: 2
Fore
SplineSet
323 0 m 2
 86 0 l 1
 248 700 l 1
 476 700 l 2
 600 700 646 632 646 495 c 0
 646 293 545 0 323 0 c 2
608 495 m 0
 608 612 572 667 469 667 c 2
 276 667 l 1
 131 33 l 1
 332 33 l 2
 511 33 608 308 608 495 c 0
EndSplineSet
Position2: "'cpsp' Capital Spacing in Lateinisch lookup 0 subtable" dx=5 dy=0 dh=10 dv=0
EndChar

StartChar: Dcaron
Encoding: 270 270 36
Width: 608
Flags: MW
HStem: 700 231<341 376 341 476 248 376> 803 29<453 453 453 458 441 453>
VStem: 86 560<0 563.5>
LayerCount: 2
Fore
SplineSet
86 0 m 1xa0
 323 0 l 2
 545 0 646 293 646 495 c 0
 646 632 600 700 476 700 c 2
 248 700 l 1
 86 0 l 1xa0
608 495 m 0
 608 308 511 33 332 33 c 2
 131 33 l 1
 276 667 l 1
 469 667 l 2
 572 667 608 612 608 495 c 0
613 931 m 1
 458 803 l 1
 441 803 l 1x60
 341 931 l 1
 376 931 l 1xa0
 453 832 l 1x60
 573 931 l 1
 613 931 l 1
EndSplineSet
Position2: "'cpsp' Capital Spacing in Lateinisch lookup 0 subtable" dx=5 dy=0 dh=10 dv=0
EndChar

StartChar: Dcroat
Encoding: 272 272 37
Width: 610
Flags: MW
HStem: 0 33<133 325> 332 38<96 165 89 174 96 201 210 363> 667 33<278 471 278 278>
VStem: 610 38<401.5 553.5>
LayerCount: 2
Fore
SplineSet
325 0 m 2
 88 0 l 1
 165 332 l 1
 89 332 l 1
 96 370 l 1
 174 370 l 1
 250 700 l 1
 478 700 l 2
 602 700 648 632 648 495 c 0
 648 293 547 0 325 0 c 2
610 495 m 0
 610 612 574 667 471 667 c 2
 278 667 l 1
 210 370 l 1
 372 370 l 1
 363 332 l 1
 201 332 l 1
 133 33 l 1
 334 33 l 2
 513 33 610 308 610 495 c 0
EndSplineSet
Position2: "'cpsp' Capital Spacing in Lateinisch lookup 0 subtable" dx=5 dy=0 dh=10 dv=0
EndChar

StartChar: E
Encoding: 69 69 38
Width: 510
Flags: MW
HStem: 0 33<130 463> 343 33<209 486 201 494> 667 33<276 617 276 276>
VStem: 86 539
LayerCount: 2
Fore
SplineSet
86 0 m 1
 248 700 l 1
 625 700 l 1
 617 667 l 1
 276 667 l 1
 209 376 l 1
 494 376 l 1
 486 343 l 1
 201 343 l 1
 130 33 l 1
 471 33 l 1
 463 0 l 1
 86 0 l 1
EndSplineSet
Position2: "'cpsp' Capital Spacing in Lateinisch lookup 0 subtable" dx=5 dy=0 dh=10 dv=0
EndChar

StartChar: Eacute
Encoding: 201 201 39
Width: 510
Flags: MW
HStem: 0 33<130 463> 343 33<209 486 201 494> 667 33<276 617 276 276>
VStem: 86 539
LayerCount: 2
Fore
SplineSet
395 798 m 1
 387 823 l 1
 591 919 l 1
 600 890 l 1
 395 798 l 1
86 0 m 1
 248 700 l 1
 625 700 l 1
 617 667 l 1
 276 667 l 1
 209 376 l 1
 494 376 l 1
 486 343 l 1
 201 343 l 1
 130 33 l 1
 471 33 l 1
 463 0 l 1
 86 0 l 1
EndSplineSet
Position2: "'cpsp' Capital Spacing in Lateinisch lookup 0 subtable" dx=5 dy=0 dh=10 dv=0
EndChar

StartChar: Ebreve
Encoding: 276 276 40
Width: 510
Flags: MW
HStem: 0 33<130 463> 343 33<209 486 201 494> 667 33<276 617 276 276> 804 30<431 484 431 487>
VStem: 351 33
LayerCount: 2
Fore
SplineSet
354 921 m 1
 384 921 l 1
 372 853 404 834 458 834 c 0
 510 834 561 868 574 921 c 1
 604 921 l 1
 585 845 523 804 451 804 c 0
 377 804 339 840 354 921 c 1
86 0 m 1
 248 700 l 1
 625 700 l 1
 617 667 l 1
 276 667 l 1
 209 376 l 1
 494 376 l 1
 486 343 l 1
 201 343 l 1
 130 33 l 1
 471 33 l 1
 463 0 l 1
 86 0 l 1
EndSplineSet
Position2: "'cpsp' Capital Spacing in Lateinisch lookup 0 subtable" dx=5 dy=0 dh=10 dv=0
EndChar

StartChar: Ecaron
Encoding: 282 282 41
Width: 510
Flags: MW
HStem: 0 33<130 463> 343 33<209 486 201 494> 667 33<276 617 276 276> 803 29<450 450 450 455 438 450>
VStem: 86 539
LayerCount: 2
Fore
SplineSet
610 931 m 1
 455 803 l 1
 438 803 l 1
 338 931 l 1
 373 931 l 1
 450 832 l 1
 570 931 l 1
 610 931 l 1
86 0 m 1
 248 700 l 1
 625 700 l 1
 617 667 l 1
 276 667 l 1
 209 376 l 1
 494 376 l 1
 486 343 l 1
 201 343 l 1
 130 33 l 1
 471 33 l 1
 463 0 l 1
 86 0 l 1
EndSplineSet
Position2: "'cpsp' Capital Spacing in Lateinisch lookup 0 subtable" dx=5 dy=0 dh=10 dv=0
EndChar

StartChar: Ecircumflex
Encoding: 202 202 42
Width: 510
Flags: MW
HStem: 0 33<130 463> 343 33<209 486 201 494> 667 33<276 617 276 276>
VStem: 86 578
LayerCount: 2
Fore
SplineSet
397 798 m 1
 553 926 l 1
 567 926 l 1
 664 798 l 1
 630 798 l 1
 557 895 l 1
 438 798 l 1
 397 798 l 1
86 0 m 1
 248 700 l 1
 625 700 l 1
 617 667 l 1
 276 667 l 1
 209 376 l 1
 494 376 l 1
 486 343 l 1
 201 343 l 1
 130 33 l 1
 471 33 l 1
 463 0 l 1
 86 0 l 1
EndSplineSet
Position2: "'cpsp' Capital Spacing in Lateinisch lookup 0 subtable" dx=5 dy=0 dh=10 dv=0
EndChar

StartChar: Edieresis
Encoding: 203 203 43
Width: 510
Flags: MW
HStem: 0 33<130 463> 343 33<209 486 201 494> 667 33<276 617 276 276> 831 66<362 406 376 389 557 570>
VStem: 86 539
LayerCount: 2
Fore
SplineSet
362 831 m 1
 376 897 l 1
 406 897 l 1
 389 831 l 1
 362 831 l 1
541 831 m 1
 557 897 l 1
 586 897 l 1
 570 831 l 1
 541 831 l 1
86 0 m 1
 248 700 l 1
 625 700 l 1
 617 667 l 1
 276 667 l 1
 209 376 l 1
 494 376 l 1
 486 343 l 1
 201 343 l 1
 130 33 l 1
 471 33 l 1
 463 0 l 1
 86 0 l 1
EndSplineSet
Position2: "'cpsp' Capital Spacing in Lateinisch lookup 0 subtable" dx=5 dy=0 dh=10 dv=0
EndChar

StartChar: Edotaccent
Encoding: 278 278 44
Width: 510
Flags: MW
HStem: 0 33<130 463> 343 33<209 486 201 494> 667 33<276 617 276 276> 869 58<451 491 463 480>
VStem: 86 539
LayerCount: 2
Fore
SplineSet
451 869 m 1
 463 927 l 1
 491 927 l 1
 480 869 l 1
 451 869 l 1
86 0 m 1
 248 700 l 1
 625 700 l 1
 617 667 l 1
 276 667 l 1
 209 376 l 1
 494 376 l 1
 486 343 l 1
 201 343 l 1
 130 33 l 1
 471 33 l 1
 463 0 l 1
 86 0 l 1
EndSplineSet
Position2: "'cpsp' Capital Spacing in Lateinisch lookup 0 subtable" dx=5 dy=0 dh=10 dv=0
EndChar

StartChar: Egrave
Encoding: 200 200 45
Width: 510
Flags: MW
HStem: 0 33<130 463> 343 33<209 486 201 494> 667 33<276 617 276 276>
VStem: 86 539
LayerCount: 2
Fore
SplineSet
391 917 m 1
 551 820 l 1
 536 798 l 1
 374 890 l 1
 391 917 l 1
86 0 m 1
 248 700 l 1
 625 700 l 1
 617 667 l 1
 276 667 l 1
 209 376 l 1
 494 376 l 1
 486 343 l 1
 201 343 l 1
 130 33 l 1
 471 33 l 1
 463 0 l 1
 86 0 l 1
EndSplineSet
Position2: "'cpsp' Capital Spacing in Lateinisch lookup 0 subtable" dx=5 dy=0 dh=10 dv=0
EndChar

StartChar: Emacron
Encoding: 274 274 46
Width: 510
Flags: MW
HStem: 0 33<130 463> 343 33<209 486 201 494> 667 33<276 617 276 276> 835 26<325 602 330 595>
VStem: 86 539
LayerCount: 2
Fore
SplineSet
325 835 m 1
 330 861 l 1
 602 861 l 1
 595 835 l 1
 325 835 l 1
86 0 m 1
 248 700 l 1
 625 700 l 1
 617 667 l 1
 276 667 l 1
 209 376 l 1
 494 376 l 1
 486 343 l 1
 201 343 l 1
 130 33 l 1
 471 33 l 1
 463 0 l 1
 86 0 l 1
EndSplineSet
Position2: "'cpsp' Capital Spacing in Lateinisch lookup 0 subtable" dx=5 dy=0 dh=10 dv=0
EndChar

StartChar: Eogonek
Encoding: 280 280 47
Width: 510
Flags: MW
HStem: -198 33<356 369> 0 33<130 394 435 435 435 463> 343 33<209 486 201 494> 667 33<276 617 276 276>
VStem: 294 40<-149 -120.5>
LayerCount: 2
Fore
SplineSet
86 0 m 1
 248 700 l 1
 625 700 l 1
 617 667 l 1
 276 667 l 1
 209 376 l 1
 494 376 l 1
 486 343 l 1
 201 343 l 1
 130 33 l 1
 471 33 l 1
 463 0 l 1
 435 0 l 1
 402 -29 334 -98 334 -141 c 0
 334 -157 346 -165 366 -165 c 0
 385 -165 422 -158 422 -158 c 1
 418 -190 l 1
 418 -190 382 -198 356 -198 c 0
 313 -198 294 -176 294 -144 c 0
 294 -97 357 -32 394 0 c 1
 86 0 l 1
EndSplineSet
Position2: "'cpsp' Capital Spacing in Lateinisch lookup 0 subtable" dx=5 dy=0 dh=10 dv=0
EndChar

StartChar: F
Encoding: 70 70 48
Width: 485
Flags: MW
HStem: 0 21G<86 86 86 122> 316 33<203 482 195 490> 667 33<276 607 276 276>
VStem: 86 529
LayerCount: 2
Fore
SplineSet
86 0 m 1
 248 700 l 1
 615 700 l 1
 607 667 l 1
 276 667 l 1
 203 349 l 1
 490 349 l 1
 482 316 l 1
 195 316 l 1
 122 0 l 1
 86 0 l 1
EndSplineSet
Position2: "'cpsp' Capital Spacing in Lateinisch lookup 0 subtable" dx=5 dy=0 dh=10 dv=0
EndChar

StartChar: G
Encoding: 71 71 49
Width: 575
Flags: MW
HStem: -9 33<267.5 356 267.5 363.5> 313 33<411 587 419 543> 676 33<358 508>
VStem: 121 38<122.5 280 122.5 294.5>
LayerCount: 2
Fore
SplineSet
411 313 m 1
 419 346 l 1
 587 346 l 1
 511 19 l 1
 511 19 409 -9 318 -9 c 0
 192 -9 121 49 121 175 c 0
 121 414 228 709 471 709 c 0
 566 709 665 684 665 684 c 1
 655 654 l 1
 655 654 553 676 463 676 c 0
 253 676 159 385 159 175 c 0
 159 70 215 24 320 24 c 0
 392 24 481 46 481 46 c 1
 543 313 l 1
 411 313 l 1
EndSplineSet
Position2: "'cpsp' Capital Spacing in Lateinisch lookup 0 subtable" dx=5 dy=0 dh=10 dv=0
EndChar

StartChar: Gbreve
Encoding: 286 286 50
Width: 575
Flags: MW
HStem: -9 33<267.5 356 267.5 363.5> 313 33<411 587 419 543> 676 33<358 508> 790 36<480.5 536.5>
VStem: 121 38<122.5 280 122.5 294.5> 396 34<876.5 893.5>
LayerCount: 2
Fore
SplineSet
400 921 m 1
 433 921 l 1
 431 913 430 904 430 896 c 0
 430 857 454 826 507 826 c 0
 570 826 614 867 628 921 c 1
 660 921 l 1
 641 846 578 790 495 790 c 0
 431 790 396 835 396 888 c 0
 396 899 397 910 400 921 c 1
411 313 m 1
 419 346 l 1
 587 346 l 1
 511 19 l 1
 511 19 409 -9 318 -9 c 0
 192 -9 121 49 121 175 c 0
 121 414 228 709 471 709 c 0
 566 709 665 684 665 684 c 1
 655 654 l 1
 655 654 553 676 463 676 c 0
 253 676 159 385 159 175 c 0
 159 70 215 24 320 24 c 0
 392 24 481 46 481 46 c 1
 543 313 l 1
 411 313 l 1
EndSplineSet
Position2: "'cpsp' Capital Spacing in Lateinisch lookup 0 subtable" dx=5 dy=0 dh=10 dv=0
EndChar

StartChar: Gcircumflex
Encoding: 284 284 51
Width: 575
Flags: MW
HStem: -9 33<267.5 356 267.5 363.5> 313 33<411 587 419 543> 676 33<358 508> 896 34<518 518>
VStem: 121 38<122.5 280 122.5 294.5>
LayerCount: 2
Fore
SplineSet
365 795 m 1
 511 930 l 1
 533 930 l 1
 620 795 l 1
 582 795 l 1
 518 896 l 1
 408 795 l 1
 365 795 l 1
411 313 m 1
 419 346 l 1
 587 346 l 1
 511 19 l 1
 511 19 409 -9 318 -9 c 0
 192 -9 121 49 121 175 c 0
 121 414 228 709 471 709 c 0
 566 709 665 684 665 684 c 1
 655 654 l 1
 655 654 553 676 463 676 c 0
 253 676 159 385 159 175 c 0
 159 70 215 24 320 24 c 0
 392 24 481 46 481 46 c 1
 543 313 l 1
 411 313 l 1
EndSplineSet
Position2: "'cpsp' Capital Spacing in Lateinisch lookup 0 subtable" dx=5 dy=0 dh=10 dv=0
EndChar

StartChar: Gcommaaccent
Encoding: 290 290 52
Width: 575
Flags: MW
HStem: -9 33<267.5 356 267.5 363.5> 313 33<411 587 419 543> 676 33<358 508>
VStem: 121 38<122.5 280 122.5 294.5>
LayerCount: 2
Fore
SplineSet
411 313 m 1
 419 346 l 1
 587 346 l 1
 511 19 l 1
 511 19 409 -9 318 -9 c 0
 192 -9 121 49 121 175 c 0
 121 414 228 709 471 709 c 0
 566 709 665 684 665 684 c 1
 655 654 l 1
 655 654 553 676 463 676 c 0
 253 676 159 385 159 175 c 0
 159 70 215 24 320 24 c 0
 392 24 481 46 481 46 c 1
 543 313 l 1
 411 313 l 1
274 -73 m 1
 194 -265 l 1
 220 -265 l 1
 308 -73 l 1
 274 -73 l 1
EndSplineSet
Position2: "'cpsp' Capital Spacing in Lateinisch lookup 0 subtable" dx=5 dy=0 dh=10 dv=0
EndChar

StartChar: Gdotaccent
Encoding: 288 288 53
Width: 575
Flags: MW
HStem: -9 33<267.5 356 267.5 363.5> 313 33<411 587 419 543> 676 33<358 508> 840 58<495 542 509 529>
VStem: 121 38<122.5 280 122.5 294.5>
LayerCount: 2
Fore
SplineSet
495 840 m 1
 509 898 l 1
 542 898 l 1
 529 840 l 1
 495 840 l 1
411 313 m 1
 419 346 l 1
 587 346 l 1
 511 19 l 1
 511 19 409 -9 318 -9 c 0
 192 -9 121 49 121 175 c 0
 121 414 228 709 471 709 c 0
 566 709 665 684 665 684 c 1
 655 654 l 1
 655 654 553 676 463 676 c 0
 253 676 159 385 159 175 c 0
 159 70 215 24 320 24 c 0
 392 24 481 46 481 46 c 1
 543 313 l 1
 411 313 l 1
EndSplineSet
Position2: "'cpsp' Capital Spacing in Lateinisch lookup 0 subtable" dx=5 dy=0 dh=10 dv=0
EndChar

StartChar: H
Encoding: 72 72 54
Width: 626
Flags: MW
HStem: 0 21G<86 122 86 86 504 540 504 504> 334 33<207 581 199 589>
VStem: 86 616
LayerCount: 2
Fore
SplineSet
504 0 m 1
 581 334 l 1
 199 334 l 1
 122 0 l 1
 86 0 l 1
 248 700 l 1
 284 700 l 1
 207 367 l 1
 589 367 l 1
 666 700 l 1
 702 700 l 1
 540 0 l 1
 504 0 l 1
EndSplineSet
Position2: "'cpsp' Capital Spacing in Lateinisch lookup 0 subtable" dx=5 dy=0 dh=10 dv=0
EndChar

StartChar: Hbar
Encoding: 294 294 55
Width: 645
Flags: MW
HStem: 0 21G<96 130 96 96 516 550 516 516> 334 36<215 593 207 601> 517 36<126 223 133 215 133 248 257 635 677 756>
VStem: 96 670<0 553>
LayerCount: 2
Fore
SplineSet
126 517 m 1
 133 553 l 1
 223 553 l 1
 257 700 l 1
 291 700 l 1
 257 553 l 1
 643 553 l 1
 677 700 l 1
 711 700 l 1
 677 553 l 1
 766 553 l 1
 756 517 l 1
 669 517 l 1
 550 0 l 1
 516 0 l 1
 593 334 l 1
 207 334 l 1
 130 0 l 1
 96 0 l 1
 215 517 l 1
 126 517 l 1
215 370 m 1
 601 370 l 1
 635 517 l 1
 248 517 l 1
 215 370 l 1
EndSplineSet
Position2: "'cpsp' Capital Spacing in Lateinisch lookup 0 subtable" dx=5 dy=0 dh=10 dv=0
EndChar

StartChar: Hcircumflex
Encoding: 292 292 56
Width: 626
Flags: MW
HStem: 0 21G<86 122 86 86 504 540 504 504> 334 33<207 581 199 589>
VStem: 86 616
LayerCount: 2
Fore
SplineSet
504 0 m 1
 581 334 l 1
 199 334 l 1
 122 0 l 1
 86 0 l 1
 248 700 l 1
 284 700 l 1
 207 367 l 1
 589 367 l 1
 666 700 l 1
 702 700 l 1
 540 0 l 1
 504 0 l 1
354 803 m 1
 510 931 l 1
 524 931 l 1
 621 803 l 1
 587 803 l 1
 514 900 l 1
 395 803 l 1
 354 803 l 1
EndSplineSet
Position2: "'cpsp' Capital Spacing in Lateinisch lookup 0 subtable" dx=5 dy=0 dh=10 dv=0
EndChar

StartChar: I
Encoding: 73 73 57
Width: 208
Flags: MW
HStem: 0 21G<86 86 86 122>
VStem: 86 198
LayerCount: 2
Fore
SplineSet
86 0 m 1
 248 700 l 1
 284 700 l 1
 122 0 l 1
 86 0 l 1
EndSplineSet
Position2: "'cpsp' Capital Spacing in Lateinisch lookup 0 subtable" dx=5 dy=0 dh=10 dv=0
EndChar

StartChar: Iacute
Encoding: 205 205 58
Width: 208
Flags: MW
HStem: 0 21G<86 86 86 122>
VStem: 86 364
LayerCount: 2
Fore
SplineSet
245 798 m 1
 237 823 l 1
 441 919 l 1
 450 890 l 1
 245 798 l 1
86 0 m 1
 248 700 l 1
 284 700 l 1
 122 0 l 1
 86 0 l 1
EndSplineSet
Position2: "'cpsp' Capital Spacing in Lateinisch lookup 0 subtable" dx=5 dy=0 dh=10 dv=0
EndChar

StartChar: Ibreve
Encoding: 300 300 59
Width: 208
Flags: MW
HStem: 0 21G<86 86 86 122> 803 30<265 318 265 321>
VStem: 185 33
LayerCount: 2
Fore
SplineSet
188 920 m 1
 218 920 l 1
 206 852 238 833 292 833 c 0
 344 833 395 867 408 920 c 1
 438 920 l 1
 419 844 357 803 285 803 c 0
 211 803 173 839 188 920 c 1
86 0 m 1
 248 700 l 1
 284 700 l 1
 122 0 l 1
 86 0 l 1
EndSplineSet
Position2: "'cpsp' Capital Spacing in Lateinisch lookup 0 subtable" dx=5 dy=0 dh=10 dv=0
EndChar

StartChar: Icircumflex
Encoding: 206 206 60
Width: 208
Flags: MW
HStem: 0 21G<86 86 86 122>
VStem: 86 332
LayerCount: 2
Fore
SplineSet
151 798 m 1
 307 926 l 1
 321 926 l 1
 418 798 l 1
 384 798 l 1
 311 895 l 1
 192 798 l 1
 151 798 l 1
86 0 m 1
 248 700 l 1
 284 700 l 1
 122 0 l 1
 86 0 l 1
EndSplineSet
Position2: "'cpsp' Capital Spacing in Lateinisch lookup 0 subtable" dx=5 dy=0 dh=10 dv=0
EndChar

StartChar: Idieresis
Encoding: 207 207 61
Width: 208
Flags: MW
HStem: 0 21G<86 86 86 122> 831 66<183 227 197 210 378 391>
VStem: 86 321
LayerCount: 2
Fore
SplineSet
183 831 m 1
 197 897 l 1
 227 897 l 1
 210 831 l 1
 183 831 l 1
362 831 m 1
 378 897 l 1
 407 897 l 1
 391 831 l 1
 362 831 l 1
86 0 m 1
 248 700 l 1
 284 700 l 1
 122 0 l 1
 86 0 l 1
EndSplineSet
Position2: "'cpsp' Capital Spacing in Lateinisch lookup 0 subtable" dx=5 dy=0 dh=10 dv=0
EndChar

StartChar: Idotaccent
Encoding: 304 304 62
Width: 208
Flags: MW
HStem: 0 21G<86 86 86 122> 869 58<282 322 294 311>
VStem: 86 236
LayerCount: 2
Fore
SplineSet
282 869 m 1
 294 927 l 1
 322 927 l 1
 311 869 l 1
 282 869 l 1
86 0 m 1
 248 700 l 1
 284 700 l 1
 122 0 l 1
 86 0 l 1
EndSplineSet
Position2: "'cpsp' Capital Spacing in Lateinisch lookup 0 subtable" dx=5 dy=0 dh=10 dv=0
EndChar

StartChar: Igrave
Encoding: 204 204 63
Width: 208
Flags: MW
HStem: 0 21G<86 86 86 122>
VStem: 86 244
LayerCount: 2
Fore
SplineSet
170 917 m 1
 330 820 l 1
 315 798 l 1
 153 890 l 1
 170 917 l 1
86 0 m 1
 248 700 l 1
 284 700 l 1
 122 0 l 1
 86 0 l 1
EndSplineSet
Position2: "'cpsp' Capital Spacing in Lateinisch lookup 0 subtable" dx=5 dy=0 dh=10 dv=0
EndChar

StartChar: Imacron
Encoding: 298 298 64
Width: 208
Flags: MW
HStem: 0 21G<86 86 86 122> 845 26<155 432 160 425>
VStem: 86 346
LayerCount: 2
Fore
SplineSet
155 845 m 1
 160 871 l 1
 432 871 l 1
 425 845 l 1
 155 845 l 1
86 0 m 1
 248 700 l 1
 284 700 l 1
 122 0 l 1
 86 0 l 1
EndSplineSet
Position2: "'cpsp' Capital Spacing in Lateinisch lookup 0 subtable" dx=5 dy=0 dh=10 dv=0
EndChar

StartChar: Iogonek
Encoding: 302 302 65
Width: 208
Flags: MW
HStem: -198 33<37 50>
VStem: -25 40<-149 -119 -149 -118>
LayerCount: 2
Fore
SplineSet
103 -158 m 1
 99 -190 l 1
 99 -190 63 -198 37 -198 c 0
 -6 -198 -25 -176 -25 -144 c 0
 -25 -92 54 -18 88 9 c 1
 248 700 l 1
 284 700 l 1
 122 0 l 1
 88 -27 15 -97 15 -141 c 0
 15 -157 27 -165 47 -165 c 0
 66 -165 103 -158 103 -158 c 1
EndSplineSet
Position2: "'cpsp' Capital Spacing in Lateinisch lookup 0 subtable" dx=5 dy=0 dh=10 dv=0
EndChar

StartChar: Itilde
Encoding: 296 296 66
Width: 208
Flags: MW
HStem: 0 21G<86 86 86 122> 818 31<355.5 377> 882 30<219.5 242.5>
VStem: 86 368
LayerCount: 2
Fore
SplineSet
450 900 m 1
 454 875 l 1
 454 875 391 818 363 818 c 0
 323 818 257 882 228 882 c 0
 208 882 139 827 139 827 c 1
 138 855 l 1
 138 855 204 912 235 912 c 0
 277 912 340 849 371 849 c 0
 388 849 450 900 450 900 c 1
86 0 m 1
 248 700 l 1
 284 700 l 1
 122 0 l 1
 86 0 l 1
EndSplineSet
Position2: "'cpsp' Capital Spacing in Lateinisch lookup 0 subtable" dx=5 dy=0 dh=10 dv=0
EndChar

StartChar: J
Encoding: 74 74 67
Width: 253
Flags: MW
HStem: -71 33<13 64 13 76>
VStem: 7 325
LayerCount: 2
Fore
SplineSet
332 700 m 1
 195 107 l 2
 162 -38 145 -71 7 -71 c 1
 13 -38 l 1
 115 -38 131 -15 161 116 c 2
 296 700 l 1
 332 700 l 1
EndSplineSet
Position2: "'cpsp' Capital Spacing in Lateinisch lookup 0 subtable" dx=5 dy=0 dh=10 dv=0
EndChar

StartChar: Jcircumflex
Encoding: 308 308 68
Width: 253
Flags: MW
HStem: -71 33<13 64 13 76>
VStem: 7 454
LayerCount: 2
Fore
SplineSet
332 700 m 1
 195 107 l 2
 162 -38 145 -71 7 -71 c 1
 13 -38 l 1
 115 -38 131 -15 161 116 c 2
 296 700 l 1
 332 700 l 1
194 803 m 1
 350 931 l 1
 364 931 l 1
 461 803 l 1
 427 803 l 1
 354 900 l 1
 235 803 l 1
 194 803 l 1
EndSplineSet
Position2: "'cpsp' Capital Spacing in Lateinisch lookup 0 subtable" dx=5 dy=0 dh=10 dv=0
EndChar

StartChar: K
Encoding: 75 75 69
Width: 508
Flags: MW
HStem: 0 21G<86 122 86 86 448 486 448 448> 329 33<205 314 198 315>
VStem: 86 562
LayerCount: 2
Fore
SplineSet
448 0 m 1
 314 329 l 1
 198 329 l 1
 122 0 l 1
 86 0 l 1
 248 700 l 1
 284 700 l 1
 205 362 l 1
 315 362 l 1
 605 700 l 1
 648 700 l 1
 344 346 l 1
 486 0 l 1
 448 0 l 1
EndSplineSet
Position2: "'cpsp' Capital Spacing in Lateinisch lookup 0 subtable" dx=5 dy=0 dh=10 dv=0
EndChar

StartChar: Kcommaaccent
Encoding: 310 310 70
Width: 508
Flags: MW
HStem: 0 21G<86 122 86 86 448 486 448 448> 329 33<205 314 198 315>
VStem: 86 562
LayerCount: 2
Fore
SplineSet
239 -73 m 1
 159 -265 l 1
 185 -265 l 1
 273 -73 l 1
 239 -73 l 1
448 0 m 1
 314 329 l 1
 198 329 l 1
 122 0 l 1
 86 0 l 1
 248 700 l 1
 284 700 l 1
 205 362 l 1
 315 362 l 1
 605 700 l 1
 648 700 l 1
 344 346 l 1
 486 0 l 1
 448 0 l 1
EndSplineSet
Position2: "'cpsp' Capital Spacing in Lateinisch lookup 0 subtable" dx=5 dy=0 dh=10 dv=0
EndChar

StartChar: L
Encoding: 76 76 71
Width: 441
Flags: MW
HStem: 0 33<130 432>
VStem: 86 354<0 33>
LayerCount: 2
Fore
SplineSet
432 0 m 1
 86 0 l 1
 248 700 l 1
 284 700 l 1
 130 33 l 1
 440 33 l 1
 432 0 l 1
EndSplineSet
Position2: "'cpsp' Capital Spacing in Lateinisch lookup 0 subtable" dx=5 dy=0 dh=10 dv=0
EndChar

StartChar: Lacute
Encoding: 313 313 72
Width: 441
Flags: MW
HStem: 0 33<130 432>
VStem: 86 445
LayerCount: 2
Fore
SplineSet
326 798 m 1
 318 823 l 1
 522 919 l 1
 531 890 l 1
 326 798 l 1
432 0 m 1
 86 0 l 1
 248 700 l 1
 284 700 l 1
 130 33 l 1
 440 33 l 1
 432 0 l 1
EndSplineSet
Position2: "'cpsp' Capital Spacing in Lateinisch lookup 0 subtable" dx=5 dy=0 dh=10 dv=0
EndChar

StartChar: Lcaron
Encoding: 317 317 73
Width: 445
Flags: MW
HStem: 0 33<130 432>
VStem: 86 444
LayerCount: 2
Fore
SplineSet
530 700 m 1
 479 480 l 1
 447 480 l 1
 498 700 l 1
 530 700 l 1
432 0 m 1
 86 0 l 1
 248 700 l 1
 284 700 l 1
 130 33 l 1
 440 33 l 1
 432 0 l 1
EndSplineSet
Position2: "'cpsp' Capital Spacing in Lateinisch lookup 0 subtable" dx=5 dy=0 dh=10 dv=0
EndChar

StartChar: Lcommaaccent
Encoding: 315 315 74
Width: 441
Flags: MW
HStem: -73 106<235 235 235 269> 0 33<130 432>
VStem: 86 354<0 33>
LayerCount: 2
Fore
SplineSet
235 -73 m 1xa0
 155 -265 l 1
 181 -265 l 1
 269 -73 l 1
 235 -73 l 1xa0
432 0 m 1x60
 86 0 l 1
 248 700 l 1
 284 700 l 1
 130 33 l 1
 440 33 l 1
 432 0 l 1x60
EndSplineSet
Position2: "'cpsp' Capital Spacing in Lateinisch lookup 0 subtable" dx=5 dy=0 dh=10 dv=0
EndChar

StartChar: Lslash
Encoding: 321 321 75
Width: 442
Flags: MW
HStem: 0 33<132 434>
VStem: 75 367<33 293>
LayerCount: 2
Fore
SplineSet
434 0 m 1
 88 0 l 1
 159 307 l 1
 89 263 l 2
 88 263 88 264 88 265 c 2
 75 293 l 1
 169 352 l 1
 250 700 l 1
 286 700 l 1
 212 379 l 1
 394 493 l 1
 405 463 l 1
 201 334 l 1
 132 33 l 1
 442 33 l 1
 434 0 l 1
EndSplineSet
Position2: "'cpsp' Capital Spacing in Lateinisch lookup 0 subtable" dx=5 dy=0 dh=10 dv=0
EndChar

StartChar: M
Encoding: 77 77 76
Width: 774
Flags: MW
HStem: 0 21G 21 33<393 393 393 412 366 393> 667 33<276 290 276 276 794 807 794 794>
VStem: 86 764<0 700>
LayerCount: 2
Fore
SplineSet
86 0 m 1xb0
 248 700 l 1
 321 700 l 1
 393 54 l 1x70
 777 700 l 1
 850 700 l 1
 688 0 l 1
 652 0 l 1xb0
 807 667 l 1
 794 667 l 1
 412 21 l 1
 366 21 l 1x70
 290 667 l 1
 276 667 l 1
 122 0 l 1
 86 0 l 1xb0
EndSplineSet
Position2: "'cpsp' Capital Spacing in Lateinisch lookup 0 subtable" dx=5 dy=0 dh=10 dv=0
EndChar

StartChar: N
Encoding: 78 78 77
Width: 617
Flags: MW
HStem: 0 33<452 503 479 503 479 531> 667 33<276 301 276 276>
VStem: 86 607
LayerCount: 2
Fore
SplineSet
86 0 m 1
 248 700 l 1
 329 700 l 1
 479 33 l 1
 503 33 l 1
 657 700 l 1
 693 700 l 1
 531 0 l 1
 452 0 l 1
 301 667 l 1
 276 667 l 1
 122 0 l 1
 86 0 l 1
EndSplineSet
Position2: "'cpsp' Capital Spacing in Lateinisch lookup 0 subtable" dx=5 dy=0 dh=10 dv=0
EndChar

StartChar: Nacute
Encoding: 323 323 78
Width: 617
Flags: MW
HStem: 0 33<452 503 479 503 479 531> 667 33<276 301 276 276>
VStem: 86 607
LayerCount: 2
Fore
SplineSet
411 798 m 1
 403 823 l 1
 607 919 l 1
 616 890 l 1
 411 798 l 1
86 0 m 1
 248 700 l 1
 329 700 l 1
 479 33 l 1
 503 33 l 1
 657 700 l 1
 693 700 l 1
 531 0 l 1
 452 0 l 1
 301 667 l 1
 276 667 l 1
 122 0 l 1
 86 0 l 1
EndSplineSet
Position2: "'cpsp' Capital Spacing in Lateinisch lookup 0 subtable" dx=5 dy=0 dh=10 dv=0
EndChar

StartChar: Ncaron
Encoding: 327 327 79
Width: 617
Flags: MW
HStem: 0 33<452 503 479 503 479 531> 667 33<276 301 276 276> 798 29<494 494 494 499 482 494>
VStem: 86 607
LayerCount: 2
Fore
SplineSet
654 926 m 1
 499 798 l 1
 482 798 l 1
 382 926 l 1
 417 926 l 1
 494 827 l 1
 614 926 l 1
 654 926 l 1
86 0 m 1
 248 700 l 1
 329 700 l 1
 479 33 l 1
 503 33 l 1
 657 700 l 1
 693 700 l 1
 531 0 l 1
 452 0 l 1
 301 667 l 1
 276 667 l 1
 122 0 l 1
 86 0 l 1
EndSplineSet
Position2: "'cpsp' Capital Spacing in Lateinisch lookup 0 subtable" dx=5 dy=0 dh=10 dv=0
EndChar

StartChar: Ncommaaccent
Encoding: 325 325 80
Width: 617
Flags: MW
HStem: 0 33<452 503 479 503 479 531> 667 33<276 301 276 276>
VStem: 86 607
LayerCount: 2
Fore
SplineSet
281 -73 m 1
 201 -265 l 1
 227 -265 l 1
 315 -73 l 1
 281 -73 l 1
86 0 m 1
 248 700 l 1
 329 700 l 1
 479 33 l 1
 503 33 l 1
 657 700 l 1
 693 700 l 1
 531 0 l 1
 452 0 l 1
 301 667 l 1
 276 667 l 1
 122 0 l 1
 86 0 l 1
EndSplineSet
Position2: "'cpsp' Capital Spacing in Lateinisch lookup 0 subtable" dx=5 dy=0 dh=10 dv=0
EndChar

StartChar: Ntilde
Encoding: 209 209 81
Width: 617
Flags: MW
HStem: 0 33<452 503 479 503 479 531> 667 33<276 301 276 276> 818 31<566.5 588> 882 30<430.5 453.5>
VStem: 86 607
LayerCount: 2
Fore
SplineSet
661 900 m 1
 665 875 l 1
 665 875 602 818 574 818 c 0
 534 818 468 882 439 882 c 0
 419 882 350 827 350 827 c 1
 349 855 l 1
 349 855 415 912 446 912 c 0
 488 912 551 849 582 849 c 0
 599 849 661 900 661 900 c 1
86 0 m 1
 248 700 l 1
 329 700 l 1
 479 33 l 1
 503 33 l 1
 657 700 l 1
 693 700 l 1
 531 0 l 1
 452 0 l 1
 301 667 l 1
 276 667 l 1
 122 0 l 1
 86 0 l 1
EndSplineSet
Position2: "'cpsp' Capital Spacing in Lateinisch lookup 0 subtable" dx=5 dy=0 dh=10 dv=0
EndChar

StartChar: O
Encoding: 79 79 82
Width: 636
Flags: MW
HStem: -9 33<270 359.5 270 367> 676 33<439 522.5>
VStem: 122 37<133.5 270 133.5 278.5> 636 38<427.5 563>
LayerCount: 2
Fore
SplineSet
333 24 m 0
 386 24 431 41 469 69 c 0
 585 156 636 351 636 504 c 0
 636 622 582 676 463 676 c 0
 415 676 373 660 336 633 c 0
 218 546 159 344 159 196 c 0
 159 71 207 24 333 24 c 0
333 -9 m 0
 180 -9 122 46 122 197 c 0
 122 360 179 537 283 634 c 0
 333 681 393 709 463 709 c 0
 604 709 674 645 674 503 c 0
 674 334 619 150 507 55 c 0
 459 15 401 -9 333 -9 c 0
EndSplineSet
Position2: "'cpsp' Capital Spacing in Lateinisch lookup 0 subtable" dx=5 dy=0 dh=10 dv=0
EndChar

StartChar: Oacute
Encoding: 211 211 83
Width: 636
Flags: MW
HStem: -9 33<270 359.5 270 367> 676 33<439 522.5>
VStem: 122 37<133.5 270 133.5 278.5> 636 38<427.5 563>
LayerCount: 2
Fore
SplineSet
333 24 m 0
 386 24 431 41 469 69 c 0
 585 156 636 351 636 504 c 0
 636 622 582 676 463 676 c 0
 415 676 373 660 336 633 c 0
 218 546 159 344 159 196 c 0
 159 71 207 24 333 24 c 0
333 -9 m 0
 180 -9 122 46 122 197 c 0
 122 360 179 537 283 634 c 0
 333 681 393 709 463 709 c 0
 604 709 674 645 674 503 c 0
 674 334 619 150 507 55 c 0
 459 15 401 -9 333 -9 c 0
449 798 m 1
 441 823 l 1
 645 919 l 1
 654 890 l 1
 449 798 l 1
EndSplineSet
Position2: "'cpsp' Capital Spacing in Lateinisch lookup 0 subtable" dx=5 dy=0 dh=10 dv=0
EndChar

StartChar: Obreve
Encoding: 334 334 84
Width: 636
Flags: MW
HStem: -9 33<270 359.5 270 367> 676 33<439 522.5> 804 30<476 529 476 532>
VStem: 122 37<133.5 270 133.5 278.5> 396 33 636 38<427.5 563>
LayerCount: 2
Fore
SplineSet
399 921 m 1
 429 921 l 1
 417 853 449 834 503 834 c 0
 555 834 606 868 619 921 c 1
 649 921 l 1
 630 845 568 804 496 804 c 0
 422 804 384 840 399 921 c 1
333 24 m 0
 386 24 431 41 469 69 c 0
 585 156 636 351 636 504 c 0
 636 622 582 676 463 676 c 0
 415 676 373 660 336 633 c 0
 218 546 159 344 159 196 c 0
 159 71 207 24 333 24 c 0
333 -9 m 0
 180 -9 122 46 122 197 c 0
 122 360 179 537 283 634 c 0
 333 681 393 709 463 709 c 0
 604 709 674 645 674 503 c 0
 674 334 619 150 507 55 c 0
 459 15 401 -9 333 -9 c 0
EndSplineSet
Position2: "'cpsp' Capital Spacing in Lateinisch lookup 0 subtable" dx=5 dy=0 dh=10 dv=0
EndChar

StartChar: Ocircumflex
Encoding: 212 212 85
Width: 636
Flags: MW
HStem: -9 33<270 359.5 270 367> 676 33<439 522.5>
VStem: 122 37<133.5 270 133.5 278.5> 636 38<427.5 563>
LayerCount: 2
Fore
SplineSet
333 24 m 0
 386 24 431 41 469 69 c 0
 585 156 636 351 636 504 c 0
 636 622 582 676 463 676 c 0
 415 676 373 660 336 633 c 0
 218 546 159 344 159 196 c 0
 159 71 207 24 333 24 c 0
333 -9 m 0
 180 -9 122 46 122 197 c 0
 122 360 179 537 283 634 c 0
 333 681 393 709 463 709 c 0
 604 709 674 645 674 503 c 0
 674 334 619 150 507 55 c 0
 459 15 401 -9 333 -9 c 0
372 803 m 1
 528 931 l 1
 542 931 l 1
 639 803 l 1
 605 803 l 1
 532 900 l 1
 413 803 l 1
 372 803 l 1
EndSplineSet
Position2: "'cpsp' Capital Spacing in Lateinisch lookup 0 subtable" dx=5 dy=0 dh=10 dv=0
EndChar

StartChar: Odieresis
Encoding: 214 214 86
Width: 636
Flags: MW
HStem: -9 33<270 359.5 270 367> 676 33<439 522.5> 833 65<404 453 419 438 597 616>
VStem: 122 37<133.5 270 133.5 278.5> 636 38<427.5 563>
LayerCount: 2
Fore
SplineSet
404 833 m 1
 419 898 l 1
 453 898 l 1
 438 833 l 1
 404 833 l 1
584 833 m 1
 597 898 l 1
 631 898 l 1
 616 833 l 1
 584 833 l 1
333 24 m 0
 386 24 431 41 469 69 c 0
 585 156 636 351 636 504 c 0
 636 622 582 676 463 676 c 0
 415 676 373 660 336 633 c 0
 218 546 159 344 159 196 c 0
 159 71 207 24 333 24 c 0
333 -9 m 0
 180 -9 122 46 122 197 c 0
 122 360 179 537 283 634 c 0
 333 681 393 709 463 709 c 0
 604 709 674 645 674 503 c 0
 674 334 619 150 507 55 c 0
 459 15 401 -9 333 -9 c 0
EndSplineSet
Position2: "'cpsp' Capital Spacing in Lateinisch lookup 0 subtable" dx=5 dy=0 dh=10 dv=0
EndChar

StartChar: Ograve
Encoding: 210 210 87
Width: 636
Flags: MW
HStem: -9 33<270 359.5 270 367> 676 33<439 522.5>
VStem: 122 37<133.5 270 133.5 278.5> 636 38<427.5 563>
LayerCount: 2
Fore
SplineSet
424 917 m 1
 584 820 l 1
 569 798 l 1
 407 890 l 1
 424 917 l 1
333 24 m 0
 386 24 431 41 469 69 c 0
 585 156 636 351 636 504 c 0
 636 622 582 676 463 676 c 0
 415 676 373 660 336 633 c 0
 218 546 159 344 159 196 c 0
 159 71 207 24 333 24 c 0
333 -9 m 0
 180 -9 122 46 122 197 c 0
 122 360 179 537 283 634 c 0
 333 681 393 709 463 709 c 0
 604 709 674 645 674 503 c 0
 674 334 619 150 507 55 c 0
 459 15 401 -9 333 -9 c 0
EndSplineSet
Position2: "'cpsp' Capital Spacing in Lateinisch lookup 0 subtable" dx=5 dy=0 dh=10 dv=0
EndChar

StartChar: Ohungarumlaut
Encoding: 336 336 88
Width: 636
Flags: MW
HStem: -9 33<270 359.5 270 367> 676 33<439 522.5>
VStem: 122 37<133.5 270 133.5 278.5> 636 38<427.5 563>
LayerCount: 2
Fore
SplineSet
547 792 m 1
 543 816 l 1
 742 902 l 1
 750 879 l 1
 547 792 l 1
368 793 m 1
 362 816 l 1
 565 903 l 1
 569 879 l 1
 368 793 l 1
333 24 m 0
 386 24 431 41 469 69 c 0
 585 156 636 351 636 504 c 0
 636 622 582 676 463 676 c 0
 415 676 373 660 336 633 c 0
 218 546 159 344 159 196 c 0
 159 71 207 24 333 24 c 0
333 -9 m 0
 180 -9 122 46 122 197 c 0
 122 360 179 537 283 634 c 0
 333 681 393 709 463 709 c 0
 604 709 674 645 674 503 c 0
 674 334 619 150 507 55 c 0
 459 15 401 -9 333 -9 c 0
EndSplineSet
Position2: "'cpsp' Capital Spacing in Lateinisch lookup 0 subtable" dx=5 dy=0 dh=10 dv=0
EndChar

StartChar: Omacron
Encoding: 332 332 89
Width: 636
Flags: MW
HStem: -9 33<270 359.5 270 367> 676 33<439 522.5> 835 26<374 651 379 644>
VStem: 122 37<133.5 270 133.5 278.5> 636 38<427.5 563>
LayerCount: 2
Fore
SplineSet
333 24 m 0
 386 24 431 41 469 69 c 0
 585 156 636 351 636 504 c 0
 636 622 582 676 463 676 c 0
 415 676 373 660 336 633 c 0
 218 546 159 344 159 196 c 0
 159 71 207 24 333 24 c 0
333 -9 m 0
 180 -9 122 46 122 197 c 0
 122 360 179 537 283 634 c 0
 333 681 393 709 463 709 c 0
 604 709 674 645 674 503 c 0
 674 334 619 150 507 55 c 0
 459 15 401 -9 333 -9 c 0
374 835 m 1
 379 861 l 1
 651 861 l 1
 644 835 l 1
 374 835 l 1
EndSplineSet
Position2: "'cpsp' Capital Spacing in Lateinisch lookup 0 subtable" dx=5 dy=0 dh=10 dv=0
EndChar

StartChar: Oslash
Encoding: 216 216 90
Width: 636
Flags: MW
HStem: -9 33<307 359.5 307 367> 676 33<439 488.5>
VStem: 122 37<167.5 270 167.5 278.5> 636 38<427.5 529>
LayerCount: 2
Fore
SplineSet
106 -110 m 1
 79 -94 l 1
 169 38 l 1
 136 71 122 122 122 197 c 0
 122 360 179 537 283 634 c 0
 333 681 393 709 463 709 c 0
 522 709 568 698 602 674 c 1
 682 791 l 1
 712 777 l 1
 627 653 l 1
 658 619 674 570 674 503 c 0
 674 334 619 150 507 55 c 0
 459 15 401 -9 333 -9 c 0
 273 -9 227 0 194 19 c 1
 106 -110 l 1
191 71 m 1
 380 348 l 1
 582 644 l 1
 554 665 514 676 463 676 c 0
 415 676 373 660 336 633 c 0
 218 546 159 344 159 196 c 0
 159 139 169 99 191 71 c 1
333 24 m 0
 386 24 431 41 469 69 c 0
 585 156 636 351 636 504 c 0
 636 554 626 593 605 621 c 1
 409 332 l 1
 215 50 l 1
 243 32 281 24 333 24 c 0
EndSplineSet
Position2: "'cpsp' Capital Spacing in Lateinisch lookup 0 subtable" dx=5 dy=0 dh=10 dv=0
EndChar

StartChar: Oslashacute
Encoding: 510 510 91
Width: 638
Flags: MW
HStem: -9 33<308 360.5 308 368> 676 33<440 489.5>
VStem: 123 37<167.5 270 167.5 278.5> 637 38<427.5 529>
LayerCount: 2
Fore
SplineSet
107 -110 m 1
 80 -94 l 1
 170 38 l 1
 137 71 123 122 123 197 c 0
 123 360 180 537 284 634 c 0
 334 681 394 709 464 709 c 0
 523 709 569 698 603 674 c 1
 683 791 l 1
 713 777 l 1
 628 653 l 1
 659 619 675 570 675 503 c 0
 675 334 620 150 508 55 c 0
 460 15 402 -9 334 -9 c 0
 274 -9 228 0 195 19 c 1
 107 -110 l 1
192 71 m 1
 381 348 l 1
 583 644 l 1
 555 665 515 676 464 676 c 0
 416 676 374 660 337 633 c 0
 219 546 160 344 160 196 c 0
 160 139 170 99 192 71 c 1
334 24 m 0
 387 24 432 41 470 69 c 0
 586 156 637 351 637 504 c 0
 637 554 627 593 606 621 c 1
 410 332 l 1
 216 50 l 1
 244 32 282 24 334 24 c 0
442 793 m 1
 433 823 l 1
 637 919 l 1
 647 885 l 1
 442 793 l 1
EndSplineSet
Position2: "'cpsp' Capital Spacing in Lateinisch lookup 0 subtable" dx=5 dy=0 dh=10 dv=0
EndChar

StartChar: Otilde
Encoding: 213 213 92
Width: 636
Flags: MW
HStem: -9 33<270 359.5 270 367> 676 33<439 522.5> 818 31<583.5 605> 882 30<447.5 470.5>
VStem: 122 37<133.5 270 133.5 278.5> 636 38<427.5 563>
LayerCount: 2
Fore
SplineSet
678 900 m 1
 682 875 l 1
 682 875 619 818 591 818 c 0
 551 818 485 882 456 882 c 0
 436 882 367 827 367 827 c 1
 366 855 l 1
 366 855 432 912 463 912 c 0
 505 912 568 849 599 849 c 0
 616 849 678 900 678 900 c 1
333 24 m 0
 386 24 431 41 469 69 c 0
 585 156 636 351 636 504 c 0
 636 622 582 676 463 676 c 0
 415 676 373 660 336 633 c 0
 218 546 159 344 159 196 c 0
 159 71 207 24 333 24 c 0
333 -9 m 0
 180 -9 122 46 122 197 c 0
 122 360 179 537 283 634 c 0
 333 681 393 709 463 709 c 0
 604 709 674 645 674 503 c 0
 674 334 619 150 507 55 c 0
 459 15 401 -9 333 -9 c 0
EndSplineSet
Position2: "'cpsp' Capital Spacing in Lateinisch lookup 0 subtable" dx=5 dy=0 dh=10 dv=0
EndChar

StartChar: OE
Encoding: 338 338 93
Width: 876
Flags: MW
HStem: -9 38<254 322> -1 39<463 463 499 827 456 463> 342 37 662 38<647 985 647 647> 671 38<380.5 479.5 378 490.5>
VStem: 115 37<129 195.5>
LayerCount: 2
Fore
SplineSet
827 -1 m 1x74
 456 -1 l 1x74
 407 -5 339 -9 305 -9 c 0
 168 -9 115 54 115 171 c 0
 115 220 124 277 140 345 c 0
 195 575 282 709 474 709 c 0xac
 485 709 600 702 620 700 c 2
 992 700 l 1
 985 662 l 1
 647 662 l 1
 578 379 l 1
 859 379 l 1
 852 341 l 1
 571 343 l 1
 499 38 l 1
 837 38 l 1
 827 -1 l 1x74
313 29 m 0xac
 334 29 421 34 463 38 c 1
 611 664 l 1
 585 667 515 671 466 671 c 0
 295 671 226 554 177 347 c 0
 161 280 152 225 152 178 c 0
 152 80 195 29 313 29 c 0xac
EndSplineSet
Position2: "'cpsp' Capital Spacing in Lateinisch lookup 0 subtable" dx=5 dy=0 dh=10 dv=0
EndChar

StartChar: P
Encoding: 80 80 94
Width: 547
Flags: MW
HStem: 0 21G<86 122 86 86> 256 34<189 377 181 385> 666 34<276 473 276 276>
VStem: 588 38<487.5 591.5>
LayerCount: 2
Fore
SplineSet
377 256 m 2
 181 256 l 1
 122 0 l 1
 86 0 l 1
 248 700 l 1
 481 700 l 2
 583 700 626 649 626 555 c 0
 626 397 546 256 377 256 c 2
189 290 m 1
 385 290 l 2
 527 290 588 420 588 555 c 0
 588 628 556 666 473 666 c 2
 276 666 l 1
 189 290 l 1
EndSplineSet
Position2: "'cpsp' Capital Spacing in Lateinisch lookup 0 subtable" dx=5 dy=0 dh=10 dv=0
EndChar

StartChar: Q
Encoding: 81 81 95
Width: 636
Flags: MW
HStem: -9 33<270 348.5> 676 33<439 522.5>
VStem: 122 37<133.5 270 133.5 278.5> 636 38<427.5 563>
LayerCount: 2
Fore
SplineSet
333 -9 m 0
 180 -9 122 46 122 197 c 0
 122 360 179 537 283 634 c 0
 333 681 393 709 463 709 c 0
 604 709 674 645 674 503 c 0
 674 334 619 150 507 55 c 0
 490 41 472 29 453 19 c 1
 501 -128 l 1
 467 -139 l 1
 420 5 l 1
 393 -4 364 -9 333 -9 c 0
333 24 m 0
 386 24 431 41 469 69 c 0
 585 156 636 351 636 504 c 0
 636 622 582 676 463 676 c 0
 415 676 373 660 336 633 c 0
 218 546 159 344 159 196 c 0
 159 71 207 24 333 24 c 0
EndSplineSet
Position2: "'cpsp' Capital Spacing in Lateinisch lookup 0 subtable" dx=5 dy=0 dh=10 dv=0
EndChar

StartChar: R
Encoding: 82 82 96
Width: 568
Flags: MW
HStem: 0 21G<86 122 86 86 488 524 488 488> 288 33<196 383 383 400 189 383> 667 33<276 462 276 276>
VStem: 591 38<481.5 595>
LayerCount: 2
Fore
SplineSet
488 0 m 1
 400 288 l 1
 189 288 l 1
 122 0 l 1
 86 0 l 1
 248 700 l 1
 470 700 l 2
 573 700 629 661 629 551 c 0
 629 375 512 306 435 292 c 1
 524 0 l 1
 488 0 l 1
591 551 m 0
 591 639 550 667 462 667 c 2
 276 667 l 1
 196 321 l 1
 383 321 l 2
 508 321 591 412 591 551 c 0
EndSplineSet
Position2: "'cpsp' Capital Spacing in Lateinisch lookup 0 subtable" dx=5 dy=0 dh=10 dv=0
EndChar

StartChar: Racute
Encoding: 340 340 97
Width: 568
Flags: MW
HStem: 700 21G<248 470 248 248>
VStem: 86 543<0 606>
LayerCount: 2
Fore
SplineSet
400 288 m 1
 488 0 l 1
 524 0 l 1
 435 292 l 1
 512 306 629 375 629 551 c 0
 629 661 573 700 470 700 c 2
 248 700 l 1
 86 0 l 1
 122 0 l 1
 189 288 l 1
 400 288 l 1
591 551 m 0
 591 412 508 321 383 321 c 2
 196 321 l 1
 276 667 l 1
 462 667 l 2
 550 667 591 639 591 551 c 0
374 798 m 1
 366 823 l 1
 570 919 l 1
 579 890 l 1
 374 798 l 1
EndSplineSet
Position2: "'cpsp' Capital Spacing in Lateinisch lookup 0 subtable" dx=5 dy=0 dh=10 dv=0
EndChar

StartChar: Rcaron
Encoding: 344 344 98
Width: 568
Flags: MW
HStem: 700 226<332 367 332 470 248 367> 798 29<444 444 444 449 432 444>
VStem: 86 543<0 606>
LayerCount: 2
Fore
SplineSet
604 926 m 1xa0
 449 798 l 1
 432 798 l 1x60
 332 926 l 1
 367 926 l 1xa0
 444 827 l 1x60
 564 926 l 1
 604 926 l 1xa0
400 288 m 1
 488 0 l 1
 524 0 l 1
 435 292 l 1
 512 306 629 375 629 551 c 0
 629 661 573 700 470 700 c 2
 248 700 l 1xa0
 86 0 l 1
 122 0 l 1
 189 288 l 1
 400 288 l 1
591 551 m 0
 591 412 508 321 383 321 c 2
 196 321 l 1
 276 667 l 1
 462 667 l 2
 550 667 591 639 591 551 c 0
EndSplineSet
Position2: "'cpsp' Capital Spacing in Lateinisch lookup 0 subtable" dx=5 dy=0 dh=10 dv=0
EndChar

StartChar: Rcommaaccent
Encoding: 342 342 99
Width: 568
Flags: MW
HStem: 0 21G<86 122 86 86 488 524 488 488> 288 33<196 383 383 400 189 383> 667 33<276 462 276 276>
VStem: 591 38<481.5 595>
LayerCount: 2
Fore
SplineSet
186 -265 m 1
 266 -73 l 1
 300 -73 l 1
 212 -265 l 1
 186 -265 l 1
488 0 m 1
 400 288 l 1
 189 288 l 1
 122 0 l 1
 86 0 l 1
 248 700 l 1
 470 700 l 2
 573 700 629 661 629 551 c 0
 629 375 512 306 435 292 c 1
 524 0 l 1
 488 0 l 1
591 551 m 0
 591 639 550 667 462 667 c 2
 276 667 l 1
 196 321 l 1
 383 321 l 2
 508 321 591 412 591 551 c 0
EndSplineSet
Position2: "'cpsp' Capital Spacing in Lateinisch lookup 0 subtable" dx=5 dy=0 dh=10 dv=0
EndChar

StartChar: S
Encoding: 83 83 100
Width: 502
Flags: MW
HStem: -9 33<223.5 324.5 223.5 330> 676 33<352.5 450>
VStem: 172 37<457.5 554.5 457.5 565> 460 38<169.5 267>
LayerCount: 2
Fore
SplineSet
593 688 m 1
 587 658 l 1
 587 658 485 676 415 676 c 0
 290 676 209 617 209 492 c 0
 209 423 256 407 354 378 c 0
 448 350 498 324 498 233 c 0
 498 85 404 -9 256 -9 c 0
 168 -9 60 8 60 8 c 1
 67 41 l 1
 67 41 185 24 262 24 c 0
 387 24 460 107 460 232 c 0
 460 302 429 320 339 345 c 0
 235 374 172 399 172 492 c 0
 172 638 274 709 422 709 c 0
 502 709 593 688 593 688 c 1
EndSplineSet
Position2: "'cpsp' Capital Spacing in Lateinisch lookup 0 subtable" dx=5 dy=0 dh=10 dv=0
EndChar

StartChar: Sacute
Encoding: 346 346 101
Width: 502
Flags: MW
HStem: -9 33<223.5 324.5 223.5 330> 676 33<352.5 450>
VStem: 172 37<457.5 554.5 457.5 565> 460 38<169.5 267>
LayerCount: 2
Fore
SplineSet
593 688 m 1
 587 658 l 1
 587 658 485 676 415 676 c 0
 290 676 209 617 209 492 c 0
 209 423 256 407 354 378 c 0
 448 350 498 324 498 233 c 0
 498 85 404 -9 256 -9 c 0
 168 -9 60 8 60 8 c 1
 67 41 l 1
 67 41 185 24 262 24 c 0
 387 24 460 107 460 232 c 0
 460 302 429 320 339 345 c 0
 235 374 172 399 172 492 c 0
 172 638 274 709 422 709 c 0
 502 709 593 688 593 688 c 1
360 798 m 1
 352 823 l 1
 556 919 l 1
 565 890 l 1
 360 798 l 1
EndSplineSet
Position2: "'cpsp' Capital Spacing in Lateinisch lookup 0 subtable" dx=5 dy=0 dh=10 dv=0
EndChar

StartChar: Scaron
Encoding: 352 352 102
Width: 502
Flags: MW
HStem: -9 33<223.5 324.5 223.5 330> 676 33<352.5 450> 803 29<450 450 450 455 438 450>
VStem: 172 37<457.5 554.5 457.5 565> 460 38<169.5 267>
LayerCount: 2
Fore
SplineSet
610 931 m 1
 455 803 l 1
 438 803 l 1
 338 931 l 1
 373 931 l 1
 450 832 l 1
 570 931 l 1
 610 931 l 1
593 688 m 1
 587 658 l 1
 587 658 485 676 415 676 c 0
 290 676 209 617 209 492 c 0
 209 423 256 407 354 378 c 0
 448 350 498 324 498 233 c 0
 498 85 404 -9 256 -9 c 0
 168 -9 60 8 60 8 c 1
 67 41 l 1
 67 41 185 24 262 24 c 0
 387 24 460 107 460 232 c 0
 460 302 429 320 339 345 c 0
 235 374 172 399 172 492 c 0
 172 638 274 709 422 709 c 0
 502 709 593 688 593 688 c 1
EndSplineSet
Position2: "'cpsp' Capital Spacing in Lateinisch lookup 0 subtable" dx=5 dy=0 dh=10 dv=0
EndChar

StartChar: Scedilla
Encoding: 350 350 103
Width: 502
Flags: MW
HStem: -199 31<229 259.5 229 266> -83 30<253 258 258 266> -9 33<232 232 264 264> 676 33<352.5 450>
VStem: 172 37<457.5 554.5 457.5 565> 460 38<169.5 267>
LayerCount: 2
Fore
SplineSet
593 688 m 1
 587 658 l 1
 587 658 485 676 415 676 c 0
 290 676 209 617 209 492 c 0
 209 423 256 407 354 378 c 0
 448 350 498 324 498 233 c 0
 498 88 407 -5 264 -9 c 1
 253 -53 l 1
 258 -53 l 2
 309 -53 347 -71 335 -124 c 0
 323 -178 292 -199 240 -199 c 0
 198 -199 164 -195 164 -195 c 1
 172 -164 l 1
 172 -164 213 -168 245 -168 c 0
 274 -168 293 -157 301 -124 c 0
 309 -90 288 -83 266 -83 c 2
 215 -83 l 1
 232 -9 l 1
 150 -6 60 8 60 8 c 1
 67 41 l 1
 67 41 185 24 262 24 c 0
 387 24 460 107 460 232 c 0
 460 302 429 320 339 345 c 0
 235 374 172 399 172 492 c 0
 172 638 274 709 422 709 c 0
 502 709 593 688 593 688 c 1
EndSplineSet
Substitution2: "'locl' Localized Forms in Lateinisch lookup 0 subtable" Scommaaccent
Position2: "'cpsp' Capital Spacing in Lateinisch lookup 0 subtable" dx=5 dy=0 dh=10 dv=0
EndChar

StartChar: Scircumflex
Encoding: 348 348 104
Width: 502
Flags: MW
HStem: -9 33<223.5 324.5 223.5 330> 676 33<352.5 450>
VStem: 172 37<457.5 554.5 457.5 565> 460 38<169.5 267>
LayerCount: 2
Fore
SplineSet
593 688 m 1
 587 658 l 1
 587 658 485 676 415 676 c 0
 290 676 209 617 209 492 c 0
 209 423 256 407 354 378 c 0
 448 350 498 324 498 233 c 0
 498 85 404 -9 256 -9 c 0
 168 -9 60 8 60 8 c 1
 67 41 l 1
 67 41 185 24 262 24 c 0
 387 24 460 107 460 232 c 0
 460 302 429 320 339 345 c 0
 235 374 172 399 172 492 c 0
 172 638 274 709 422 709 c 0
 502 709 593 688 593 688 c 1
303 803 m 1
 459 931 l 1
 473 931 l 1
 570 803 l 1
 536 803 l 1
 463 900 l 1
 344 803 l 1
 303 803 l 1
EndSplineSet
Position2: "'cpsp' Capital Spacing in Lateinisch lookup 0 subtable" dx=5 dy=0 dh=10 dv=0
EndChar

StartChar: Scommaaccent
Encoding: 536 536 105
Width: 502
Flags: MW
HStem: -9 33<223.5 324.5 223.5 330> 676 33<352.5 450>
VStem: 172 37<457.5 554.5 457.5 565> 460 38<169.5 267>
LayerCount: 2
Fore
SplineSet
232 -73 m 1
 152 -265 l 1
 178 -265 l 1
 266 -73 l 1
 232 -73 l 1
593 688 m 1
 587 658 l 1
 587 658 485 676 415 676 c 0
 290 676 209 617 209 492 c 0
 209 423 256 407 354 378 c 0
 448 350 498 324 498 233 c 0
 498 85 404 -9 256 -9 c 0
 168 -9 60 8 60 8 c 1
 67 41 l 1
 67 41 185 24 262 24 c 0
 387 24 460 107 460 232 c 0
 460 302 429 320 339 345 c 0
 235 374 172 399 172 492 c 0
 172 638 274 709 422 709 c 0
 502 709 593 688 593 688 c 1
EndSplineSet
Position2: "'cpsp' Capital Spacing in Lateinisch lookup 0 subtable" dx=5 dy=0 dh=10 dv=0
EndChar

StartChar: T
Encoding: 84 84 106
Width: 477
Flags: MW
HStem: 0 21G<219 255 219 219> 667 33<164 626 172 373 409 409 409 618>
VStem: 164 462<667 700>
LayerCount: 2
Fore
SplineSet
164 667 m 1
 172 700 l 1
 626 700 l 1
 618 667 l 1
 409 667 l 1
 255 0 l 1
 219 0 l 1
 373 667 l 1
 164 667 l 1
EndSplineSet
Position2: "'cpsp' Capital Spacing in Lateinisch lookup 0 subtable" dx=5 dy=0 dh=10 dv=0
EndChar

StartChar: Tbar
Encoding: 358 358 107
Width: 482
Flags: MW
HStem: 0 21G<221 257 221 221> 327 36<134 296 125 305 341 503 134 332> 667 33<166 628 174 375 411 411 411 620>
VStem: 125 503<327 700>
LayerCount: 2
Fore
SplineSet
166 667 m 1
 174 700 l 1
 628 700 l 1
 620 667 l 1
 411 667 l 1
 341 363 l 1
 514 363 l 1
 503 327 l 1
 332 327 l 1
 257 0 l 1
 221 0 l 1
 296 327 l 1
 125 327 l 1
 134 363 l 1
 305 363 l 1
 375 667 l 1
 166 667 l 1
EndSplineSet
Position2: "'cpsp' Capital Spacing in Lateinisch lookup 0 subtable" dx=5 dy=0 dh=10 dv=0
EndChar

StartChar: Tcaron
Encoding: 356 356 108
Width: 477
Flags: MW
HStem: 0 21G<219 255 219 219> 667 33<164 626 172 373 409 409 409 618> 798 29<416 416 416 421 404 416>
VStem: 164 462<667 700>
LayerCount: 2
Fore
SplineSet
576 926 m 1
 421 798 l 1
 404 798 l 1
 304 926 l 1
 339 926 l 1
 416 827 l 1
 536 926 l 1
 576 926 l 1
164 667 m 1
 172 700 l 1
 626 700 l 1
 618 667 l 1
 409 667 l 1
 255 0 l 1
 219 0 l 1
 373 667 l 1
 164 667 l 1
EndSplineSet
Position2: "'cpsp' Capital Spacing in Lateinisch lookup 0 subtable" dx=5 dy=0 dh=10 dv=0
EndChar

StartChar: Tcommaaccent
Encoding: 538 538 109
Width: 477
Flags: MW
HStem: 0 21G<219 255 219 219> 667 33<164 626 172 373 409 409 409 618>
VStem: 127 499
LayerCount: 2
Fore
SplineSet
207 -73 m 1
 127 -265 l 1
 153 -265 l 1
 241 -73 l 1
 207 -73 l 1
164 667 m 1
 172 700 l 1
 626 700 l 1
 618 667 l 1
 409 667 l 1
 255 0 l 1
 219 0 l 1
 373 667 l 1
 164 667 l 1
EndSplineSet
Position2: "'cpsp' Capital Spacing in Lateinisch lookup 0 subtable" dx=5 dy=0 dh=10 dv=0
EndChar

StartChar: U
Encoding: 85 85 110
Width: 593
Flags: MW
HStem: -9 34<264.5 375 264.5 385>
VStem: 119 36<93.5 139>
LayerCount: 2
Fore
SplineSet
279 700 m 1
 165 207 l 2
 159 182 155 151 155 130 c 0
 155 57 216 25 313 25 c 0
 437 25 495 85 521 198 c 2
 637 700 l 1
 673 700 l 1
 557 197 l 2
 526 64 459 -9 311 -9 c 0
 195 -9 119 34 119 129 c 0
 119 149 123 183 129 207 c 2
 243 700 l 1
 279 700 l 1
EndSplineSet
Position2: "'cpsp' Capital Spacing in Lateinisch lookup 0 subtable" dx=5 dy=0 dh=10 dv=0
EndChar

StartChar: Uacute
Encoding: 218 218 111
Width: 593
Flags: MW
HStem: -9 34<264.5 375 264.5 385>
VStem: 119 36<93.5 139>
LayerCount: 2
Fore
SplineSet
279 700 m 1
 165 207 l 2
 159 182 155 151 155 130 c 0
 155 57 216 25 313 25 c 0
 437 25 495 85 521 198 c 2
 637 700 l 1
 673 700 l 1
 557 197 l 2
 526 64 459 -9 311 -9 c 0
 195 -9 119 34 119 129 c 0
 119 149 123 183 129 207 c 2
 243 700 l 1
 279 700 l 1
402 798 m 1
 394 823 l 1
 598 919 l 1
 607 890 l 1
 402 798 l 1
EndSplineSet
Position2: "'cpsp' Capital Spacing in Lateinisch lookup 0 subtable" dx=5 dy=0 dh=10 dv=0
EndChar

StartChar: Ubreve
Encoding: 364 364 112
Width: 593
Flags: MW
HStem: -9 34<264.5 375 264.5 385> 804 30<451 504 451 507>
VStem: 119 36<93.5 139> 371 33
LayerCount: 2
Fore
SplineSet
374 921 m 1
 404 921 l 1
 392 853 424 834 478 834 c 0
 530 834 581 868 594 921 c 1
 624 921 l 1
 605 845 543 804 471 804 c 0
 397 804 359 840 374 921 c 1
279 700 m 1
 165 207 l 2
 159 182 155 151 155 130 c 0
 155 57 216 25 313 25 c 0
 437 25 495 85 521 198 c 2
 637 700 l 1
 673 700 l 1
 557 197 l 2
 526 64 459 -9 311 -9 c 0
 195 -9 119 34 119 129 c 0
 119 149 123 183 129 207 c 2
 243 700 l 1
 279 700 l 1
EndSplineSet
Position2: "'cpsp' Capital Spacing in Lateinisch lookup 0 subtable" dx=5 dy=0 dh=10 dv=0
EndChar

StartChar: Ucircumflex
Encoding: 219 219 113
Width: 593
Flags: MW
HStem: -9 34<264.5 375 264.5 385>
VStem: 119 36<93.5 139>
LayerCount: 2
Fore
SplineSet
279 700 m 1
 165 207 l 2
 159 182 155 151 155 130 c 0
 155 57 216 25 313 25 c 0
 437 25 495 85 521 198 c 2
 637 700 l 1
 673 700 l 1
 557 197 l 2
 526 64 459 -9 311 -9 c 0
 195 -9 119 34 119 129 c 0
 119 149 123 183 129 207 c 2
 243 700 l 1
 279 700 l 1
340 803 m 1
 496 931 l 1
 510 931 l 1
 607 803 l 1
 573 803 l 1
 500 900 l 1
 381 803 l 1
 340 803 l 1
EndSplineSet
Position2: "'cpsp' Capital Spacing in Lateinisch lookup 0 subtable" dx=5 dy=0 dh=10 dv=0
EndChar

StartChar: Udieresis
Encoding: 220 220 114
Width: 593
Flags: MW
HStem: -9 34<264.5 375 264.5 385> 833 65<371 420 386 405 564 583>
VStem: 119 36<93.5 139>
LayerCount: 2
Fore
SplineSet
371 833 m 1
 386 898 l 1
 420 898 l 1
 405 833 l 1
 371 833 l 1
551 833 m 1
 564 898 l 1
 598 898 l 1
 583 833 l 1
 551 833 l 1
279 700 m 1
 165 207 l 2
 159 182 155 151 155 130 c 0
 155 57 216 25 313 25 c 0
 437 25 495 85 521 198 c 2
 637 700 l 1
 673 700 l 1
 557 197 l 2
 526 64 459 -9 311 -9 c 0
 195 -9 119 34 119 129 c 0
 119 149 123 183 129 207 c 2
 243 700 l 1
 279 700 l 1
EndSplineSet
Position2: "'cpsp' Capital Spacing in Lateinisch lookup 0 subtable" dx=5 dy=0 dh=10 dv=0
EndChar

StartChar: Ugrave
Encoding: 217 217 115
Width: 593
Flags: MW
HStem: -9 34<264.5 375 264.5 385>
VStem: 119 36<93.5 139>
LayerCount: 2
Fore
SplineSet
395 917 m 1
 555 820 l 1
 540 798 l 1
 378 890 l 1
 395 917 l 1
279 700 m 1
 165 207 l 2
 159 182 155 151 155 130 c 0
 155 57 216 25 313 25 c 0
 437 25 495 85 521 198 c 2
 637 700 l 1
 673 700 l 1
 557 197 l 2
 526 64 459 -9 311 -9 c 0
 195 -9 119 34 119 129 c 0
 119 149 123 183 129 207 c 2
 243 700 l 1
 279 700 l 1
EndSplineSet
Position2: "'cpsp' Capital Spacing in Lateinisch lookup 0 subtable" dx=5 dy=0 dh=10 dv=0
EndChar

StartChar: Uhungarumlaut
Encoding: 368 368 116
Width: 593
Flags: MW
HStem: -9 34<264.5 375 264.5 385>
VStem: 119 36<93.5 139>
LayerCount: 2
Fore
SplineSet
510 765 m 1
 506 789 l 1
 705 875 l 1
 713 852 l 1
 510 765 l 1
331 766 m 1
 325 789 l 1
 528 876 l 1
 532 852 l 1
 331 766 l 1
279 700 m 1
 165 207 l 2
 159 182 155 151 155 130 c 0
 155 57 216 25 313 25 c 0
 437 25 495 85 521 198 c 2
 637 700 l 1
 673 700 l 1
 557 197 l 2
 526 64 459 -9 311 -9 c 0
 195 -9 119 34 119 129 c 0
 119 149 123 183 129 207 c 2
 243 700 l 1
 279 700 l 1
EndSplineSet
Position2: "'cpsp' Capital Spacing in Lateinisch lookup 0 subtable" dx=5 dy=0 dh=10 dv=0
EndChar

StartChar: Umacron
Encoding: 362 362 117
Width: 593
Flags: MW
HStem: -9 34<264.5 375 264.5 385> 835 26<349 626 354 619>
VStem: 119 36<93.5 139>
LayerCount: 2
Fore
SplineSet
279 700 m 1
 165 207 l 2
 159 182 155 151 155 130 c 0
 155 57 216 25 313 25 c 0
 437 25 495 85 521 198 c 2
 637 700 l 1
 673 700 l 1
 557 197 l 2
 526 64 459 -9 311 -9 c 0
 195 -9 119 34 119 129 c 0
 119 149 123 183 129 207 c 2
 243 700 l 1
 279 700 l 1
349 835 m 1
 354 861 l 1
 626 861 l 1
 619 835 l 1
 349 835 l 1
EndSplineSet
Position2: "'cpsp' Capital Spacing in Lateinisch lookup 0 subtable" dx=5 dy=0 dh=10 dv=0
EndChar

StartChar: Uogonek
Encoding: 370 370 118
Width: 593
Flags: MW
HStem: -198 33<292 305> -9 34<264.5 311 311 320>
VStem: 119 36<93.5 139> 230 40<-149 -122.5>
LayerCount: 2
Fore
SplineSet
279 700 m 1
 165 207 l 2
 159 182 155 151 155 130 c 0
 155 57 216 25 313 25 c 0
 437 25 495 85 521 198 c 2
 637 700 l 1
 673 700 l 1
 557 197 l 2
 530 81 476 11 366 -5 c 1
 331 -36 270 -100 270 -141 c 0
 270 -157 282 -165 302 -165 c 0
 321 -165 358 -158 358 -158 c 1
 354 -190 l 1
 354 -190 318 -198 292 -198 c 0
 249 -198 230 -176 230 -144 c 0
 230 -101 282 -43 320 -9 c 1
 311 -9 l 2
 195 -9 119 34 119 129 c 0
 119 149 123 183 129 207 c 2
 243 700 l 1
 279 700 l 1
EndSplineSet
Position2: "'cpsp' Capital Spacing in Lateinisch lookup 0 subtable" dx=5 dy=0 dh=10 dv=0
EndChar

StartChar: Uring
Encoding: 366 366 119
Width: 593
Flags: MW
HStem: -9 34<264.5 375 264.5 385> 757 29<459 499.5 459 503> 905 29<490 528.5>
VStem: 119 36<93.5 139> 404 181
LayerCount: 2
Fore
SplineSet
581 845 m 0
 568 793 533 757 473 757 c 0
 418 757 393 792 408 845 c 0
 424 904 463 934 516 934 c 0
 567 934 596 907 581 845 c 0
434 845 m 0
 427 813 438 786 480 786 c 0
 519 786 546 807 555 845 c 0
 563 881 548 905 509 905 c 0
 471 905 444 884 434 845 c 0
279 700 m 1
 165 207 l 2
 159 182 155 151 155 130 c 0
 155 57 216 25 313 25 c 0
 437 25 495 85 521 198 c 2
 637 700 l 1
 673 700 l 1
 557 197 l 2
 526 64 459 -9 311 -9 c 0
 195 -9 119 34 119 129 c 0
 119 149 123 183 129 207 c 2
 243 700 l 1
 279 700 l 1
EndSplineSet
Position2: "'cpsp' Capital Spacing in Lateinisch lookup 0 subtable" dx=5 dy=0 dh=10 dv=0
EndChar

StartChar: Utilde
Encoding: 360 360 120
Width: 593
Flags: MW
HStem: -9 34<264.5 375 264.5 385> 818 31<550.5 572> 882 30<414.5 437.5>
VStem: 119 36<93.5 139>
LayerCount: 2
Fore
SplineSet
645 900 m 1
 649 875 l 1
 649 875 586 818 558 818 c 0
 518 818 452 882 423 882 c 0
 403 882 334 827 334 827 c 1
 333 855 l 1
 333 855 399 912 430 912 c 0
 472 912 535 849 566 849 c 0
 583 849 645 900 645 900 c 1
279 700 m 1
 165 207 l 2
 159 182 155 151 155 130 c 0
 155 57 216 25 313 25 c 0
 437 25 495 85 521 198 c 2
 637 700 l 1
 673 700 l 1
 557 197 l 2
 526 64 459 -9 311 -9 c 0
 195 -9 119 34 119 129 c 0
 119 149 123 183 129 207 c 2
 243 700 l 1
 279 700 l 1
EndSplineSet
Position2: "'cpsp' Capital Spacing in Lateinisch lookup 0 subtable" dx=5 dy=0 dh=10 dv=0
EndChar

StartChar: V
Encoding: 86 86 121
Width: 538
Flags: MW
HStem: 0 33<245 299 245 320>
VStem: 200.5 34.5
LayerCount: 2
Fore
SplineSet
628 700 m 1
 664 700 l 1
 320 0 l 1
 212 0 l 1
 189 700 l 1
 225 700 l 1
 245 33 l 1
 299 33 l 1
 628 700 l 1
EndSplineSet
Position2: "'cpsp' Capital Spacing in Lateinisch lookup 0 subtable" dx=5 dy=0 dh=10 dv=0
EndChar

StartChar: W
Encoding: 87 87 122
Width: 805
Flags: MW
HStem: 0 33<206 241 206 262 568 601>
VStem: 183 35.5 539 33.5
LayerCount: 2
Fore
SplineSet
195 700 m 1
 231 700 l 1
 206 33 l 1
 241 33 l 1
 539 690 l 1
 577 690 l 1
 568 33 l 1
 601 33 l 1
 889 700 l 1
 925 700 l 1
 623 0 l 1
 534 0 l 1
 544 621 l 1
 262 0 l 1
 171 0 l 1
 195 700 l 1
EndSplineSet
Position2: "'cpsp' Capital Spacing in Lateinisch lookup 0 subtable" dx=5 dy=0 dh=10 dv=0
EndChar

StartChar: Wacute
Encoding: 7810 7810 123
Width: 805
Flags: MW
HStem: 0 33<206 241 206 262 568 601>
VStem: 183 35.5 539 33.5
LayerCount: 2
Fore
SplineSet
507 798 m 1
 499 823 l 1
 703 919 l 1
 712 890 l 1
 507 798 l 1
195 700 m 1
 231 700 l 1
 206 33 l 1
 241 33 l 1
 539 690 l 1
 577 690 l 1
 568 33 l 1
 601 33 l 1
 889 700 l 1
 925 700 l 1
 623 0 l 1
 534 0 l 1
 544 621 l 1
 262 0 l 1
 171 0 l 1
 195 700 l 1
EndSplineSet
Position2: "'cpsp' Capital Spacing in Lateinisch lookup 0 subtable" dx=5 dy=0 dh=10 dv=0
EndChar

StartChar: Wcircumflex
Encoding: 372 372 124
Width: 805
Flags: MW
HStem: 0 33<206 241 206 262 568 601>
VStem: 183 35.5 539 33.5
LayerCount: 2
Fore
SplineSet
442 798 m 1
 598 926 l 1
 612 926 l 1
 709 798 l 1
 675 798 l 1
 602 895 l 1
 483 798 l 1
 442 798 l 1
195 700 m 1
 231 700 l 1
 206 33 l 1
 241 33 l 1
 539 690 l 1
 577 690 l 1
 568 33 l 1
 601 33 l 1
 889 700 l 1
 925 700 l 1
 623 0 l 1
 534 0 l 1
 544 621 l 1
 262 0 l 1
 171 0 l 1
 195 700 l 1
EndSplineSet
Position2: "'cpsp' Capital Spacing in Lateinisch lookup 0 subtable" dx=5 dy=0 dh=10 dv=0
EndChar

StartChar: Wdieresis
Encoding: 7812 7812 125
Width: 805
Flags: MW
HStem: 0 33<206 241 206 262 568 601> 831 66<480 524 494 507 675 688>
VStem: 183 35.5 539 33.5
LayerCount: 2
Fore
SplineSet
480 831 m 1
 494 897 l 1
 524 897 l 1
 507 831 l 1
 480 831 l 1
659 831 m 1
 675 897 l 1
 704 897 l 1
 688 831 l 1
 659 831 l 1
195 700 m 1
 231 700 l 1
 206 33 l 1
 241 33 l 1
 539 690 l 1
 577 690 l 1
 568 33 l 1
 601 33 l 1
 889 700 l 1
 925 700 l 1
 623 0 l 1
 534 0 l 1
 544 621 l 1
 262 0 l 1
 171 0 l 1
 195 700 l 1
EndSplineSet
Position2: "'cpsp' Capital Spacing in Lateinisch lookup 0 subtable" dx=5 dy=0 dh=10 dv=0
EndChar

StartChar: Wgrave
Encoding: 7808 7808 126
Width: 805
Flags: MW
HStem: 0 33<206 241 206 262 568 601>
VStem: 183 35.5 539 33.5
LayerCount: 2
Fore
SplineSet
502 917 m 1
 662 820 l 1
 647 798 l 1
 485 890 l 1
 502 917 l 1
195 700 m 1
 231 700 l 1
 206 33 l 1
 241 33 l 1
 539 690 l 1
 577 690 l 1
 568 33 l 1
 601 33 l 1
 889 700 l 1
 925 700 l 1
 623 0 l 1
 534 0 l 1
 544 621 l 1
 262 0 l 1
 171 0 l 1
 195 700 l 1
EndSplineSet
Position2: "'cpsp' Capital Spacing in Lateinisch lookup 0 subtable" dx=5 dy=0 dh=10 dv=0
EndChar

StartChar: X
Encoding: 88 88 127
Width: 509
Flags: MW
HStem: 0 21G<20 64 20 20 446 482 446 446>
VStem: 20 631
LayerCount: 2
Fore
SplineSet
227 700 m 1
 343 379 l 1
 607 700 l 1
 651 700 l 1
 357 344 l 1
 482 0 l 1
 446 0 l 1
 330 316 l 1
 64 0 l 1
 20 0 l 1
 315 350 l 1
 191 700 l 1
 227 700 l 1
EndSplineSet
Position2: "'cpsp' Capital Spacing in Lateinisch lookup 0 subtable" dx=5 dy=0 dh=10 dv=0
EndChar

StartChar: Y
Encoding: 89 89 128
Width: 485
Flags: MW
HStem: 0 21G<220 256 220 220>
VStem: 178 449<700 700>
LayerCount: 2
Fore
SplineSet
627 700 m 1
 326 301 l 1
 256 0 l 1
 220 0 l 1
 291 308 l 1
 178 700 l 1
 214 700 l 1
 317 339 l 1
 587 700 l 1
 627 700 l 1
EndSplineSet
Position2: "'cpsp' Capital Spacing in Lateinisch lookup 0 subtable" dx=5 dy=0 dh=10 dv=0
EndChar

StartChar: Yacute
Encoding: 221 221 129
Width: 485
Flags: MW
HStem: 0 21G<220 256 220 220>
VStem: 178 449<700 700>
LayerCount: 2
Fore
SplineSet
344 798 m 1
 336 823 l 1
 540 919 l 1
 549 890 l 1
 344 798 l 1
627 700 m 1
 326 301 l 1
 256 0 l 1
 220 0 l 1
 291 308 l 1
 178 700 l 1
 214 700 l 1
 317 339 l 1
 587 700 l 1
 627 700 l 1
EndSplineSet
Position2: "'cpsp' Capital Spacing in Lateinisch lookup 0 subtable" dx=5 dy=0 dh=10 dv=0
EndChar

StartChar: Ycircumflex
Encoding: 374 374 130
Width: 485
Flags: MW
HStem: 0 21G<220 256 220 220>
VStem: 178 449<700 700>
LayerCount: 2
Fore
SplineSet
287 798 m 1
 443 926 l 1
 457 926 l 1
 554 798 l 1
 520 798 l 1
 447 895 l 1
 328 798 l 1
 287 798 l 1
627 700 m 1
 326 301 l 1
 256 0 l 1
 220 0 l 1
 291 308 l 1
 178 700 l 1
 214 700 l 1
 317 339 l 1
 587 700 l 1
 627 700 l 1
EndSplineSet
Position2: "'cpsp' Capital Spacing in Lateinisch lookup 0 subtable" dx=5 dy=0 dh=10 dv=0
EndChar

StartChar: Ydieresis
Encoding: 376 376 131
Width: 485
Flags: MW
HStem: 0 21G<220 256 220 220> 830 66<314 358 328 341 509 522>
VStem: 178 449<700 700>
LayerCount: 2
Fore
SplineSet
314 830 m 1
 328 896 l 1
 358 896 l 1
 341 830 l 1
 314 830 l 1
493 830 m 1
 509 896 l 1
 538 896 l 1
 522 830 l 1
 493 830 l 1
627 700 m 1
 326 301 l 1
 256 0 l 1
 220 0 l 1
 291 308 l 1
 178 700 l 1
 214 700 l 1
 317 339 l 1
 587 700 l 1
 627 700 l 1
EndSplineSet
Position2: "'cpsp' Capital Spacing in Lateinisch lookup 0 subtable" dx=5 dy=0 dh=10 dv=0
EndChar

StartChar: Ygrave
Encoding: 7922 7922 132
Width: 485
Flags: MW
HStem: 0 21G<220 256 220 220>
VStem: 178 449<700 700>
LayerCount: 2
Fore
SplineSet
343 917 m 1
 503 820 l 1
 488 798 l 1
 326 890 l 1
 343 917 l 1
627 700 m 1
 326 301 l 1
 256 0 l 1
 220 0 l 1
 291 308 l 1
 178 700 l 1
 214 700 l 1
 317 339 l 1
 587 700 l 1
 627 700 l 1
EndSplineSet
Position2: "'cpsp' Capital Spacing in Lateinisch lookup 0 subtable" dx=5 dy=0 dh=10 dv=0
EndChar

StartChar: Z
Encoding: 90 90 133
Width: 498
Flags: MW
HStem: 0 33<83 454> 667 33<196 619 204 575>
VStem: 39 580
LayerCount: 2
Fore
SplineSet
196 667 m 1
 204 700 l 1
 619 700 l 1
 601 622 l 1
 89 58 l 1
 83 33 l 1
 462 33 l 1
 454 0 l 1
 39 0 l 1
 56 74 l 1
 568 638 l 1
 575 667 l 1
 196 667 l 1
EndSplineSet
Position2: "'cpsp' Capital Spacing in Lateinisch lookup 0 subtable" dx=5 dy=0 dh=10 dv=0
EndChar

StartChar: Zacute
Encoding: 377 377 134
Width: 498
Flags: MW
HStem: 0 33<83 454> 667 33<196 619 204 575>
VStem: 39 580
LayerCount: 2
Fore
SplineSet
349 798 m 1
 341 823 l 1
 545 919 l 1
 554 890 l 1
 349 798 l 1
196 667 m 1
 204 700 l 1
 619 700 l 1
 601 622 l 1
 89 58 l 1
 83 33 l 1
 462 33 l 1
 454 0 l 1
 39 0 l 1
 56 74 l 1
 568 638 l 1
 575 667 l 1
 196 667 l 1
EndSplineSet
Position2: "'cpsp' Capital Spacing in Lateinisch lookup 0 subtable" dx=5 dy=0 dh=10 dv=0
EndChar

StartChar: Zcaron
Encoding: 381 381 135
Width: 498
Flags: MW
HStem: 0 33<83 454> 667 33<196 619 204 575> 797 29<430 430 430 435 418 430>
VStem: 39 580
LayerCount: 2
Fore
SplineSet
590 925 m 1
 435 797 l 1
 418 797 l 1
 318 925 l 1
 353 925 l 1
 430 826 l 1
 550 925 l 1
 590 925 l 1
196 667 m 1
 204 700 l 1
 619 700 l 1
 601 622 l 1
 89 58 l 1
 83 33 l 1
 462 33 l 1
 454 0 l 1
 39 0 l 1
 56 74 l 1
 568 638 l 1
 575 667 l 1
 196 667 l 1
EndSplineSet
Position2: "'cpsp' Capital Spacing in Lateinisch lookup 0 subtable" dx=5 dy=0 dh=10 dv=0
EndChar

StartChar: Zdotaccent
Encoding: 379 379 136
Width: 498
Flags: MW
HStem: 0 33<83 454> 667 33<196 619 204 575> 869 58<411 451 423 440>
VStem: 39 580
LayerCount: 2
Fore
SplineSet
411 869 m 1
 423 927 l 1
 451 927 l 1
 440 869 l 1
 411 869 l 1
196 667 m 1
 204 700 l 1
 619 700 l 1
 601 622 l 1
 89 58 l 1
 83 33 l 1
 462 33 l 1
 454 0 l 1
 39 0 l 1
 56 74 l 1
 568 638 l 1
 575 667 l 1
 196 667 l 1
EndSplineSet
Position2: "'cpsp' Capital Spacing in Lateinisch lookup 0 subtable" dx=5 dy=0 dh=10 dv=0
EndChar

StartChar: g
Encoding: 103 103 139
Width: 458
Flags: MW
HStem: -239 32<144 242 144 257> 178 32<248.5 321 224.5 328.5> 465 35<439 557> 477 32<273 355.5 263 363.5>
VStem: 24 37<-134.5 -76.5 -134.5 -72> 131 36<278 340 278 347> 150 35<81.5 110.5 80.5 112> 396 37<-104 -36> 428 36<346.5 404.5 344 408>
LayerCount: 2
Fore
SplineSet
177 -239 m 0xed
 81 -239 24 -184 24 -112 c 0
 24 -32 104 21 163 53 c 1
 156 59 150 73 150 90 c 0xeb
 150 134 201 188 201 188 c 1
 154 207 131 247 131 304 c 0
 131 390 197 509 329 509 c 0xdd
 382 509 408 494 408 494 c 1
 557 500 l 1
 549 465 l 1
 439 465 l 1
 453 447 464 424 464 385 c 0
 464 303 405 178 252 178 c 0
 245 178 226 180 226 180 c 1
 226 180 185 127 185 94 c 0xea80
 185 67 207 60 276 52 c 0
 400 38 433 7 433 -62 c 0
 433 -149 337 -239 177 -239 c 0xed
278 17 m 0
 227 22 201 29 189 34 c 1
 129 4 61 -48 61 -105 c 0
 61 -164 103 -207 185 -207 c 0
 299 -207 396 -146 396 -62 c 0
 396 -10 366 8 278 17 c 0
260 210 m 0xdc80
 382 210 428 319 428 374 c 0
 428 442 402 477 325 477 c 0
 221 477 167 374 167 306 c 0
 167 250 189 210 260 210 c 0xdc80
EndSplineSet
EndChar

StartChar: h
Encoding: 104 104 140
Width: 489
Flags: MW
HStem: 0 21G<74 109 74 74 385 385 385 419> 476 33<335 406.5> 710 20G<243 278 278 278>
VStem: 464 35<370 417>
LayerCount: 2
Fore
SplineSet
109 0 m 1
 74 0 l 1
 243 730 l 1
 278 730 l 1
 198 385 l 1
 198 385 286 509 384 509 c 0
 456 509 499 465 499 393 c 0
 499 347 489 299 479 257 c 2
 419 0 l 1
 385 0 l 1
 445 258 l 2
 454 295 464 348 464 390 c 0
 464 444 435 476 378 476 c 0
 290 476 185 328 185 328 c 1
 109 0 l 1
EndSplineSet
EndChar

StartChar: s
Encoding: 115 115 141
Width: 427
Flags: MW
HStem: -9 32<179.5 253 179.5 260.5> 477 32<272.5 349>
VStem: 134 36<327.5 382 327.5 388> 379 36<113 188>
LayerCount: 2
Fore
SplineSet
479 495 m 1
 470 464 l 1
 470 464 381 477 317 477 c 0
 228 477 170 416 170 348 c 0
 170 307 191 294 276 275 c 0
 367 255 415 239 415 168 c 0
 415 50 318 -9 203 -9 c 0
 138 -9 54 7 54 7 c 1
 61 39 l 1
 61 39 151 23 208 23 c 0
 298 23 379 65 379 161 c 0
 379 215 347 224 261 243 c 0
 178 261 134 278 134 342 c 0
 134 434 209 509 324 509 c 0
 387 509 479 495 479 495 c 1
EndSplineSet
EndChar

StartChar: endash
Encoding: 8211 8211 143
Width: 640
Flags: MW
HStem: 252 34<132 632 132 632>
VStem: 132 500<252 286 252 286>
LayerCount: 2
Fore
SplineSet
132 286 m 1
 632 286 l 1
 632 252 l 1
 132 252 l 1
 132 286 l 1
EndSplineSet
Substitution2: "'case' Case-Sensitive Forms in Lateinisch lookup 4 subtable" endash.cap
EndChar

StartChar: dollar
Encoding: 36 36 144
Width: 560
Flags: MW
HStem: -9 32<279 291 291 350> -6 21G<218 218> 639 31<376 435 435 445 372 449> 667 21G<492 492>
VStem: 206 35<435.5 524 435.5 534> 478 36<160 251.5>
LayerCount: 2
Fore
SplineSet
604 651 m 1x9c
 598 622 l 1
 598 622 538 632 481 637 c 1
 380 356 l 1
 467 330 514 305 514 220 c 0
 514 80 425 -9 285 -9 c 0
 273 -9 261 -9 249 -8 c 1x9c
 209 -120 l 1
 178 -120 l 1
 218 -6 l 1
 156 -1 100 8 100 8 c 1
 106 39 l 1
 106 39 168 30 230 25 c 1
 340 333 l 1
 255 358 206 384 206 465 c 0
 206 603 302 670 442 670 c 0
 448 670 454 669 460 669 c 1x6c
 503 790 l 1
 536 790 l 1
 492 667 l 1
 551 662 604 651 604 651 c 1x9c
478 219 m 0
 478 284 450 302 369 325 c 1
 260 23 l 1
 291 23 l 2
 409 23 478 101 478 219 c 0
241 465 m 0
 241 406 276 388 351 365 c 1
 449 639 l 1
 435 639 l 2xac
 317 639 241 583 241 465 c 0
EndSplineSet
EndChar

StartChar: exclam
Encoding: 33 33 145
Width: 207
Flags: MW
HStem: 0 83<89 144 108 125>
VStem: 89 192
LayerCount: 2
Fore
SplineSet
135 211 m 1
 248 700 l 1
 281 700 l 1
 163 211 l 1
 135 211 l 1
89 0 m 1
 108 83 l 1
 144 83 l 1
 125 0 l 1
 89 0 l 1
EndSplineSet
EndChar

StartChar: summation
Encoding: 8721 8721 146
Width: 560
Flags: MW
HStem: -151 34<160 573 160 573> 715 34<160 573 160 160>
VStem: 123 37<-117 -85 -117 -76 -117 -76 688 715> 409 35<314 314>
LayerCount: 2
Fore
SplineSet
409 314 m 1
 123 676 l 1
 123 749 l 1
 573 749 l 1
 573 715 l 1
 160 715 l 1
 160 688 l 1
 444 328 l 1
 444 298 l 1
 160 -85 l 1
 160 -117 l 1
 573 -117 l 1
 573 -151 l 1
 123 -151 l 1
 123 -76 l 1
 409 314 l 1
EndSplineSet
EndChar

StartChar: a
Encoding: 97 97 147
Width: 482
Flags: MW
HStem: -9 33<189 261 189 261.5> 1 21G<415 415> 477 32<275 373.5 265 375.5> 489 20
VStem: 95 37<88 191.5 88 202.5>
LayerCount: 2
Fore
SplineSet
215 -9 m 0xa8
 134 -9 95 35 95 118 c 0
 95 287 185 509 345 509 c 0xa8
 402 509 520 489 520 489 c 1
 444 163 l 2
 429 99 415 1 415 1 c 1
 382 -1 l 1x58
 382 -1 399 103 404 126 c 1
 404 126 308 -9 215 -9 c 0xa8
345 477 m 0
 205 477 132 265 132 118 c 0
 132 58 156 24 222 24 c 0
 300 24 414 182 414 182 c 1
 479 462 l 1
 479 462 406 477 345 477 c 0
EndSplineSet
EndChar

StartChar: o
Encoding: 111 111 148
Width: 493
Flags: MW
HStem: -9 32<212.5 318 212.5 328.5> 477 32<285.5 391>
VStem: 99 36<101.5 229 101.5 242.5> 471 36<262 388.5>
LayerCount: 2
Fore
SplineSet
349 509 m 0
 454 509 507 454 507 352 c 0
 507 150 405 -9 252 -9 c 0
 150 -9 99 37 99 139 c 0
 99 346 207 509 349 509 c 0
252 23 m 0
 384 23 471 172 471 352 c 0
 471 425 433 477 349 477 c 0
 222 477 135 319 135 139 c 0
 135 64 173 23 252 23 c 0
EndSplineSet
EndChar

StartChar: n
Encoding: 110 110 149
Width: 488
Flags: MW
HStem: 0 21G<73 108 73 73 384 384 384 418> 476 33<334 405> 480 20G<189 224 224 224>
VStem: 463 35<370 417>
LayerCount: 2
Fore
SplineSet
108 0 m 1xd0
 73 0 l 1
 189 500 l 1
 224 500 l 1xb0
 198 387 l 1
 198 387 285 509 383 509 c 0
 455 509 498 465 498 393 c 0
 498 347 488 300 479 260 c 2
 418 0 l 1
 384 0 l 1
 444 258 l 2
 453 295 463 348 463 390 c 0
 463 444 433 476 377 476 c 0
 288 476 185 330 185 330 c 1
 108 0 l 1xd0
EndSplineSet
EndChar

StartChar: numbersign
Encoding: 35 35 150
Width: 560
Flags: MW
HStem: 0 21G<145 181 145 145 369 405 369 369> 190 32<79 191 71 199 235 415 79 227 459 571> 448 32<143 255 135 263 143 291 299 479 523 635>
VStem: 71 572<190 480>
LayerCount: 2
Fore
SplineSet
571 190 m 1
 451 190 l 1
 405 0 l 1
 369 0 l 1
 415 190 l 1
 227 190 l 1
 181 0 l 1
 145 0 l 1
 191 190 l 1
 71 190 l 1
 79 222 l 1
 199 222 l 1
 255 448 l 1
 135 448 l 1
 143 480 l 1
 263 480 l 1
 311 670 l 1
 347 670 l 1
 299 480 l 1
 487 480 l 1
 535 670 l 1
 571 670 l 1
 523 480 l 1
 643 480 l 1
 635 448 l 1
 515 448 l 1
 459 222 l 1
 579 222 l 1
 571 190 l 1
423 222 m 1
 479 448 l 1
 291 448 l 1
 235 222 l 1
 423 222 l 1
EndSplineSet
EndChar

StartChar: at
Encoding: 64 64 151
Width: 916
Flags: MW
HStem: -197 35<278.5 447.5> -10 34<695.5 752 695.5 755> -9 36<428 459.5> 477 32<513 597 510 598.5> 682 35<502.5 778>
VStem: 92 38 315 36 620 34 922 35
LayerCount: 2
Fore
SplineSet
641 717 m 0xbf80
 951 717 990 526 938 298 c 0
 873 16 802 -10 708 -10 c 0xdf80
 656 -10 622 5 620 54 c 1
 580 34 491 -9 428 -9 c 0xbf80
 290 -10 311 120 324 198 c 0
 359 401 441 509 579 509 c 0
 615 509 701 497 741 489 c 1
 728 438 654 136 654 72 c 0
 654 27 676 24 715 24 c 0xdf80
 789 24 846 53 904 307 c 0
 951 515 923 682 633 682 c 0
 372 682 231 574 154 261 c 0
 97 29 124 -162 433 -162 c 0
 470 -162 569 -152 569 -152 c 1
 564 -188 l 1
 564 -188 470 -197 425 -197 c 0
 63 -197 67 56 115 261 c 0
 194 598 347 717 641 717 c 0xbf80
435 27 m 0
 499 27 578 66 620 88 c 1
 623 122 668 332 700 462 c 1
 672 469 623 477 574 477 c 0
 452 477 396 376 359 197 c 0
 343 119 341 27 435 27 c 0
EndSplineSet
EndChar

StartChar: ydieresis
Encoding: 255 255 152
Width: 448
Flags: MW
HStem: 0 32<206 230> 480 20G<147 183 183 183 494 532 532 532> 633 65<248 297 263 282 441 460>
VStem: 159.5 35
LayerCount: 2
Fore
SplineSet
248 633 m 1
 263 698 l 1
 297 698 l 1
 282 633 l 1
 248 633 l 1
428 633 m 1
 441 698 l 1
 475 698 l 1
 460 633 l 1
 428 633 l 1
147 500 m 1
 183 500 l 1
 206 32 l 1
 246 32 l 1
 494 500 l 1
 532 500 l 1
 145 -228 l 1
 107 -228 l 1
 230 0 l 1
 172 0 l 1
 147 500 l 1
EndSplineSet
EndChar

StartChar: scaron
Encoding: 353 353 153
Width: 427
Flags: MW
HStem: -9 32<179.5 253 179.5 260.5> 477 32<272.5 349> 710 20G<264 296 296 296 477 516 516 516>
VStem: 134 36<327.5 382 327.5 388> 379 36<113 188>
LayerCount: 2
Fore
SplineSet
479 495 m 1
 470 464 l 1
 470 464 381 477 317 477 c 0
 228 477 170 416 170 348 c 0
 170 307 191 294 276 275 c 0
 367 255 415 239 415 168 c 0
 415 50 318 -9 203 -9 c 0
 138 -9 54 7 54 7 c 1
 61 39 l 1
 61 39 151 23 208 23 c 0
 298 23 379 65 379 161 c 0
 379 215 347 224 261 243 c 0
 178 261 134 278 134 342 c 0
 134 434 209 509 324 509 c 0
 387 509 479 495 479 495 c 1
364 595 m 1
 350 595 l 1
 264 730 l 1
 296 730 l 1
 362 625 l 1
 477 730 l 1
 516 730 l 1
 364 595 l 1
EndSplineSet
EndChar

StartChar: yacute
Encoding: 253 253 154
Width: 448
Flags: MW
HStem: 0 32<206 230> 480 20G<147 183 183 183 494 532 532 532> 700 21G<504 504> 710 20G<498 498>
VStem: 159.5 35
LayerCount: 2
Fore
SplineSet
147 500 m 1xd8
 183 500 l 1
 206 32 l 1
 246 32 l 1
 494 500 l 1
 532 500 l 1
 145 -228 l 1
 107 -228 l 1
 230 0 l 1
 172 0 l 1
 147 500 l 1xd8
300 610 m 1xe8
 295 635 l 1xe8
 498 730 l 1xd8
 504 700 l 1
 300 610 l 1xe8
EndSplineSet
EndChar

StartChar: zcaron
Encoding: 382 382 155
Width: 420
Flags: MW
HStem: 0 32<44 44 90 380 41 44> 468 32<148 495 156 444 490 490> 710 20G<241 273 273 273 454 493 493 493>
VStem: 41 454
LayerCount: 2
Fore
SplineSet
341 595 m 1
 327 595 l 1
 241 730 l 1
 273 730 l 1
 339 625 l 1
 454 730 l 1
 493 730 l 1
 341 595 l 1
148 468 m 1
 156 500 l 1
 495 500 l 1
 490 468 l 1
 90 32 l 1
 387 32 l 1
 380 0 l 1
 41 0 l 1
 44 32 l 1
 444 468 l 1
 148 468 l 1
EndSplineSet
EndChar

StartChar: degree
Encoding: 176 176 156
Width: 560
Flags: MW
HStem: 438 32<380 442 380 451.5> 677 32<380 442>
VStem: 275 34<542 604 542 613.5> 515 32<542 604>
LayerCount: 2
Fore
SplineSet
275 573 m 0
 275 654 330 709 411 709 c 0
 492 709 547 654 547 573 c 0
 547 492 492 438 411 438 c 0
 330 438 275 492 275 573 c 0
309 573 m 0
 309 511 349 470 411 470 c 0
 473 470 515 511 515 573 c 0
 515 635 473 677 411 677 c 0
 349 677 309 635 309 573 c 0
EndSplineSet
EndChar

StartChar: section
Encoding: 167 167 157
Width: 459
Flags: MW
HStem: -122 35<183.5 262 183.5 281> 623 36<327 402.5>
VStem: 119 37<235.5 287> 181 41<454 519 447 521> 368 39<45 82.5 45 87.5> 428 35<258 305>
LayerCount: 2
Fore
SplineSet
532 646 m 1
 522 610 l 1
 522 610 425 623 380 623 c 0
 274 623 222 562 222 476 c 0
 222 418 252 409 332 396 c 0
 431 380 463 343 463 295 c 0xd4
 463 221 390 129 390 129 c 1
 406 110 407 95 407 70 c 0
 407 20 361 -122 201 -122 c 0
 144 -122 45 -109 45 -109 c 1
 56 -73 l 1
 56 -73 158 -87 209 -87 c 0
 315 -87 368 5 368 66 c 0
 368 109 349 125 256 138 c 0
 150 152 119 191 119 246 c 0xfc
 119 328 201 403 201 403 c 1
 188 422 181 434 181 474 c 0
 181 568 252 659 388 659 c 0
 446 659 532 646 532 646 c 1
318 360 m 0
 276 367 234 378 225 386 c 1
 225 386 156 318 156 259 c 0xf4
 156 212 179 187 271 174 c 0
 311 168 342 161 366 147 c 1
 366 147 428 230 428 286 c 0
 428 324 400 347 318 360 c 0
EndSplineSet
EndChar

StartChar: copyright
Encoding: 169 169 158
Width: 646
Flags: MW
HStem: 169 32<358.5 487.5 358.5 496.5> 281 32<391 437 391 438.5> 555 32<388 439> 668 32<358.5 487.5>
VStem: 168 32<369.5 498.5 369.5 507.5> 314 32<395 471.5 395 478.5> 647 32<369.5 498.5>
LayerCount: 2
Fore
SplineSet
168 434 m 0
 168 581 276 700 423 700 c 0
 570 700 679 581 679 434 c 0
 679 287 570 169 423 169 c 0
 276 169 168 287 168 434 c 0
200 434 m 0
 200 305 294 201 423 201 c 0
 552 201 647 305 647 434 c 0
 647 563 552 668 423 668 c 0
 294 668 200 563 200 434 c 0
496 321 m 1
 497 289 l 1
 497 289 454 281 423 281 c 0
 335 281 314 342 314 433 c 0
 314 524 333 587 423 587 c 0
 461 587 497 580 497 580 c 1
 496 548 l 1
 496 548 455 555 423 555 c 0
 353 555 346 510 346 433 c 0
 346 357 359 313 423 313 c 0
 451 313 496 321 496 321 c 1
EndSplineSet
EndChar

StartChar: trademark
Encoding: 8482 8482 159
Width: 706
Flags: MW
HStem: 342 37<591 591 591 608 573 591> 590 31<222 422 222 306 339 339 339 422>
VStem: 306 33<332 590 332 590> 457 32<331 589 331 621> 696 32<331 589 589 589>
LayerCount: 2
Fore
SplineSet
222 590 m 1
 222 621 l 1
 422 621 l 1
 422 590 l 1
 339 590 l 1
 339 332 l 1
 306 332 l 1
 306 590 l 1
 222 590 l 1
457 331 m 1
 457 621 l 1
 507 621 l 1
 591 379 l 1
 678 621 l 1
 728 621 l 1
 728 331 l 1
 696 331 l 1
 696 589 l 1
 608 342 l 1
 573 342 l 1
 489 589 l 1
 489 331 l 1
 457 331 l 1
EndSplineSet
EndChar

StartChar: registered
Encoding: 174 174 160
Width: 646
Flags: MW
HStem: 169 32<358.5 487.5 358.5 496.5> 402 31<353 433 433 434 353 433> 550 31<353 353 353 414 414 415> 668 32<358.5 487.5>
VStem: 168 32<369.5 498.5 369.5 507.5> 321 32<286 402 286 433 433 550> 495 32<469.5 514.5> 647 32<369.5 498.5>
LayerCount: 2
Fore
SplineSet
168 434 m 0
 168 581 276 700 423 700 c 0
 570 700 679 581 679 434 c 0
 679 287 570 169 423 169 c 0
 276 169 168 287 168 434 c 0
200 434 m 0
 200 305 294 201 423 201 c 0
 552 201 647 305 647 434 c 0
 647 563 552 668 423 668 c 0
 294 668 200 563 200 434 c 0
497 286 m 1
 434 402 l 1
 353 402 l 1
 353 286 l 1
 321 286 l 1
 321 581 l 1
 414 581 l 2
 490 581 527 560 527 492 c 0
 527 445 512 416 468 405 c 1
 533 286 l 1
 497 286 l 1
353 550 m 1
 353 433 l 1
 433 433 l 2
 477 433 495 447 495 492 c 0
 495 537 469 550 415 550 c 2
 353 550 l 1
EndSplineSet
EndChar

StartChar: aacute
Encoding: 225 225 161
Width: 482
Flags: MW
HStem: -9 33<189 261 189 261.5> 1 21G<415 415> 477 32<275 373.5 265 375.5> 489 20 700 21G<547 547> 710 20G<541 541>
VStem: 95 37<88 191.5 88 202.5>
LayerCount: 2
Fore
SplineSet
215 -9 m 0xa6
 134 -9 95 35 95 118 c 0
 95 287 185 509 345 509 c 0xa6
 402 509 520 489 520 489 c 1
 444 163 l 2
 429 99 415 1 415 1 c 1
 382 -1 l 1x56
 382 -1 399 103 404 126 c 1
 404 126 308 -9 215 -9 c 0xa6
345 477 m 0
 205 477 132 265 132 118 c 0
 132 58 156 24 222 24 c 0
 300 24 414 182 414 182 c 1
 479 462 l 1
 479 462 406 477 345 477 c 0
343 610 m 1xaa
 338 635 l 1xaa
 541 730 l 1xa6
 547 700 l 1
 343 610 l 1xaa
EndSplineSet
EndChar

StartChar: agrave
Encoding: 224 224 162
Width: 482
Flags: MW
HStem: -9 33<189 261 189 261.5> 1 21G<415 415> 477 32<275 373.5 265 375.5> 489 20
VStem: 95 37<88 191.5 88 202.5>
LayerCount: 2
Fore
SplineSet
215 -9 m 0xa8
 134 -9 95 35 95 118 c 0
 95 287 185 509 345 509 c 0xa8
 402 509 520 489 520 489 c 1
 444 163 l 2
 429 99 415 1 415 1 c 1
 382 -1 l 1x58
 382 -1 399 103 404 126 c 1
 404 126 308 -9 215 -9 c 0xa8
345 477 m 0
 205 477 132 265 132 118 c 0
 132 58 156 24 222 24 c 0
 300 24 414 182 414 182 c 1
 479 462 l 1
 479 462 406 477 345 477 c 0
330 721 m 1
 490 626 l 1
 472 604 l 1
 312 696 l 1
 330 721 l 1
EndSplineSet
EndChar

StartChar: acircumflex
Encoding: 226 226 163
Width: 482
Flags: MW
HStem: -9 33<189 261 189 261.5> 1 21G<415 415> 477 32<275 373.5 265 375.5> 489 20 696 34<413 413> 710 20G<406 428 428 428>
VStem: 95 37<88 191.5 88 202.5>
LayerCount: 2
Fore
SplineSet
260 595 m 1xa6
 406 730 l 1
 428 730 l 1
 515 595 l 1
 477 595 l 1
 413 696 l 1xaa
 303 595 l 1
 260 595 l 1xa6
215 -9 m 0
 134 -9 95 35 95 118 c 0
 95 287 185 509 345 509 c 0xa6
 402 509 520 489 520 489 c 1
 444 163 l 2
 429 99 415 1 415 1 c 1
 382 -1 l 1x56
 382 -1 399 103 404 126 c 1
 404 126 308 -9 215 -9 c 0
345 477 m 0xa6
 205 477 132 265 132 118 c 0
 132 58 156 24 222 24 c 0
 300 24 414 182 414 182 c 1
 479 462 l 1
 479 462 406 477 345 477 c 0xa6
EndSplineSet
EndChar

StartChar: adieresis
Encoding: 228 228 164
Width: 482
Flags: MW
HStem: -9 33<189 261 189 261.5> 1 21G<415 415> 477 32<275 373.5 265 375.5> 489 20 633 65<282 331 297 316 475 494>
VStem: 95 37<88 191.5 88 202.5>
LayerCount: 2
Fore
SplineSet
282 633 m 1xac
 297 698 l 1
 331 698 l 1
 316 633 l 1
 282 633 l 1xac
462 633 m 1
 475 698 l 1
 509 698 l 1
 494 633 l 1
 462 633 l 1
215 -9 m 0
 134 -9 95 35 95 118 c 0
 95 287 185 509 345 509 c 0xac
 402 509 520 489 520 489 c 1
 444 163 l 2
 429 99 415 1 415 1 c 1
 382 -1 l 1x5c
 382 -1 399 103 404 126 c 1
 404 126 308 -9 215 -9 c 0
345 477 m 0
 205 477 132 265 132 118 c 0
 132 58 156 24 222 24 c 0
 300 24 414 182 414 182 c 1
 479 462 l 1
 479 462 406 477 345 477 c 0
EndSplineSet
EndChar

StartChar: atilde
Encoding: 227 227 165
Width: 482
Flags: MW
HStem: -9 33<189 261 189 261.5> 1 21G<415 415> 477 32<275 373.5 265 375.5> 489 20 630 32<473 494.5 473 494.5> 667 21G<275 275> 681 32<348 367> 703 21G<554 554>
VStem: 95 37<88 191.5 88 202.5>
LayerCount: 2
Fore
SplineSet
215 -9 m 0xa580
 134 -9 95 35 95 118 c 0
 95 287 185 509 345 509 c 0xa580
 402 509 520 489 520 489 c 1
 444 163 l 2
 429 99 415 1 415 1 c 1
 382 -1 l 1x5580
 382 -1 399 103 404 126 c 1
 404 126 308 -9 215 -9 c 0xa580
345 477 m 0
 205 477 132 265 132 118 c 0
 132 58 156 24 222 24 c 0
 300 24 414 182 414 182 c 1
 479 462 l 1
 479 462 406 477 345 477 c 0
554 703 m 1
 559 673 l 1
 559 673 509 630 480 630 c 0xa980
 446 630 381 681 353 681 c 0
 334 681 277 636 277 636 c 1
 275 667 l 1
 275 667 333 713 363 713 c 0xa280
 398 713 460 662 486 662 c 0xa980
 503 662 554 703 554 703 c 1
EndSplineSet
EndChar

StartChar: aring
Encoding: 229 229 166
Width: 482
Flags: MW
HStem: -9 33<189 261 189 261.5> 1 21G<415 415> 477 32<275 373.5 265 375.5> 489 20 576 29<394 428 394 433.5> 727 31<424 458>
VStem: 95 37<88 191.5 88 202.5> 340 28<667 667>
LayerCount: 2
Fore
SplineSet
215 -9 m 0xae
 134 -9 95 35 95 118 c 0
 95 287 185 509 345 509 c 0xae
 402 509 520 489 520 489 c 1
 444 163 l 2
 429 99 415 1 415 1 c 1
 382 -1 l 1x5e
 382 -1 399 103 404 126 c 1
 404 126 308 -9 215 -9 c 0xae
345 477 m 0
 205 477 132 265 132 118 c 0
 132 58 156 24 222 24 c 0
 300 24 414 182 414 182 c 1
 479 462 l 1
 479 462 406 477 345 477 c 0
340 667 m 0xaf
 348 713 389 758 448 758 c 0
 490 758 513 733 513 688 c 0
 513 624 463 576 404 576 c 0
 347 576 331 615 340 667 c 0xaf
368 667 m 0
 361 637 377 605 411 605 c 0
 445 605 475 633 483 667 c 0
 490 696 475 727 441 727 c 0
 407 727 375 700 368 667 c 0
EndSplineSet
EndChar

StartChar: eacute
Encoding: 233 233 167
Width: 452
Flags: MW
HStem: -9 34<211 280> 250 32<156 212 149 221> 477 32<307 393.5> 700 21G<517 517> 710 20G<511 511>
VStem: 97 37<101.5 153 101.5 214.5> 458 36<356 431>
LayerCount: 2
Fore
SplineSet
245 25 m 0xee
 322 25 409 54 409 54 c 1
 409 21 l 1
 409 21 323 -9 237 -9 c 0
 154 -9 97 39 97 131 c 0
 97 298 181 509 364 509 c 0
 442 509 494 478 494 406 c 0
 494 288 396 250 212 250 c 2
 149 250 l 1
 140 214 134 168 134 138 c 0
 134 65 177 25 245 25 c 0xee
156 282 m 1
 221 282 l 2
 376 282 458 307 458 405 c 0
 458 457 424 477 363 477 c 0
 251 477 191 394 156 282 c 1
313 610 m 1xf6
 308 635 l 1xf6
 511 730 l 1xee
 517 700 l 1
 313 610 l 1xf6
EndSplineSet
EndChar

StartChar: egrave
Encoding: 232 232 168
Width: 452
Flags: MW
HStem: -9 34<211 280> 250 32<156 212 149 221> 477 32<307 393.5>
VStem: 97 37<101.5 153 101.5 214.5> 458 36<356 431>
LayerCount: 2
Fore
SplineSet
245 25 m 0
 322 25 409 54 409 54 c 1
 409 21 l 1
 409 21 323 -9 237 -9 c 0
 154 -9 97 39 97 131 c 0
 97 298 181 509 364 509 c 0
 442 509 494 478 494 406 c 0
 494 288 396 250 212 250 c 2
 149 250 l 1
 140 214 134 168 134 138 c 0
 134 65 177 25 245 25 c 0
156 282 m 1
 221 282 l 2
 376 282 458 307 458 405 c 0
 458 457 424 477 363 477 c 0
 251 477 191 394 156 282 c 1
256 721 m 1
 416 626 l 1
 398 604 l 1
 238 696 l 1
 256 721 l 1
EndSplineSet
EndChar

StartChar: ecircumflex
Encoding: 234 234 169
Width: 452
Flags: MW
HStem: -9 34<211 280> 250 32<156 212 149 221> 477 32<307 393.5> 696 34<396 396> 710 20G<389 411 411 411>
VStem: 97 37<101.5 153 101.5 214.5> 458 36<356 431>
LayerCount: 2
Fore
SplineSet
243 595 m 1xee
 389 730 l 1
 411 730 l 1
 498 595 l 1
 460 595 l 1
 396 696 l 1xf6
 286 595 l 1
 243 595 l 1xee
245 25 m 0
 322 25 409 54 409 54 c 1
 409 21 l 1
 409 21 323 -9 237 -9 c 0
 154 -9 97 39 97 131 c 0
 97 298 181 509 364 509 c 0
 442 509 494 478 494 406 c 0
 494 288 396 250 212 250 c 2
 149 250 l 1
 140 214 134 168 134 138 c 0
 134 65 177 25 245 25 c 0
156 282 m 1
 221 282 l 2
 376 282 458 307 458 405 c 0
 458 457 424 477 363 477 c 0
 251 477 191 394 156 282 c 1
EndSplineSet
EndChar

StartChar: edieresis
Encoding: 235 235 170
Width: 452
Flags: MW
HStem: -9 34<211 280> 250 32<156 212 149 221> 477 32<307 393.5> 633 65<281 330 296 315 474 493>
VStem: 97 37<101.5 153 101.5 214.5> 458 36<356 431>
LayerCount: 2
Fore
SplineSet
281 633 m 1
 296 698 l 1
 330 698 l 1
 315 633 l 1
 281 633 l 1
461 633 m 1
 474 698 l 1
 508 698 l 1
 493 633 l 1
 461 633 l 1
245 25 m 0
 322 25 409 54 409 54 c 1
 409 21 l 1
 409 21 323 -9 237 -9 c 0
 154 -9 97 39 97 131 c 0
 97 298 181 509 364 509 c 0
 442 509 494 478 494 406 c 0
 494 288 396 250 212 250 c 2
 149 250 l 1
 140 214 134 168 134 138 c 0
 134 65 177 25 245 25 c 0
156 282 m 1
 221 282 l 2
 376 282 458 307 458 405 c 0
 458 457 424 477 363 477 c 0
 251 477 191 394 156 282 c 1
EndSplineSet
EndChar

StartChar: idieresis
Encoding: 239 239 171
Width: 182
Flags: MW
HStem: 0 21G<73 73 73 108> 480 20G<189 224 224 224> 633 65<113 162 128 147 306 325>
VStem: 73 267
LayerCount: 2
Fore
SplineSet
113 633 m 1
 128 698 l 1
 162 698 l 1
 147 633 l 1
 113 633 l 1
293 633 m 1
 306 698 l 1
 340 698 l 1
 325 633 l 1
 293 633 l 1
73 0 m 1
 189 500 l 1
 224 500 l 1
 108 0 l 1
 73 0 l 1
EndSplineSet
EndChar

StartChar: ntilde
Encoding: 241 241 172
Width: 488
Flags: MW
HStem: 630 32<455 476.5 455 476.5> 667 21G<257 257> 681 32<330 349> 703 21G<536 536>
VStem: 73 468
LayerCount: 2
Fore
SplineSet
73 0 m 1x58
 108 0 l 1
 185 330 l 1
 185 330 288 476 377 476 c 0
 433 476 463 444 463 390 c 0
 463 348 453 295 444 258 c 2
 384 0 l 1
 418 0 l 1
 479 260 l 2
 488 300 498 347 498 393 c 0
 498 465 455 509 383 509 c 0
 285 509 198 387 198 387 c 1
 224 500 l 1
 189 500 l 1
 73 0 l 1x58
536 703 m 1
 541 673 l 1
 541 673 491 630 462 630 c 0x98
 428 630 363 681 335 681 c 0
 316 681 259 636 259 636 c 1
 257 667 l 1
 257 667 315 713 345 713 c 0x28
 380 713 442 662 468 662 c 0x98
 485 662 536 703 536 703 c 1
EndSplineSet
EndChar

StartChar: oacute
Encoding: 243 243 173
Width: 493
Flags: MW
HStem: -9 32<212.5 318 212.5 328.5> 477 32<285.5 391> 700 21G<519 519> 710 20G<513 513>
VStem: 99 36<101.5 229 101.5 242.5> 471 36<262 388.5>
LayerCount: 2
Fore
SplineSet
349 509 m 0xdc
 454 509 507 454 507 352 c 0
 507 150 405 -9 252 -9 c 0
 150 -9 99 37 99 139 c 0
 99 346 207 509 349 509 c 0xdc
252 23 m 0
 384 23 471 172 471 352 c 0
 471 425 433 477 349 477 c 0
 222 477 135 319 135 139 c 0
 135 64 173 23 252 23 c 0
315 610 m 1xec
 310 635 l 1xec
 513 730 l 1xdc
 519 700 l 1
 315 610 l 1xec
EndSplineSet
EndChar

StartChar: ograve
Encoding: 242 242 174
Width: 493
Flags: MW
HStem: -9 32<212.5 318 212.5 328.5> 477 32<285.5 391>
VStem: 99 36<101.5 229 101.5 242.5> 471 36<262 388.5>
LayerCount: 2
Fore
SplineSet
349 509 m 0
 454 509 507 454 507 352 c 0
 507 150 405 -9 252 -9 c 0
 150 -9 99 37 99 139 c 0
 99 346 207 509 349 509 c 0
252 23 m 0
 384 23 471 172 471 352 c 0
 471 425 433 477 349 477 c 0
 222 477 135 319 135 139 c 0
 135 64 173 23 252 23 c 0
283 721 m 1
 443 626 l 1
 425 604 l 1
 265 696 l 1
 283 721 l 1
EndSplineSet
EndChar

StartChar: ocircumflex
Encoding: 244 244 175
Width: 493
Flags: MW
HStem: -9 32<212.5 318 212.5 328.5> 477 32<285.5 391> 696 34<412 412> 710 20G<405 427 427 427>
VStem: 99 36<101.5 229 101.5 242.5> 471 36<262 388.5>
LayerCount: 2
Fore
SplineSet
259 595 m 1xdc
 405 730 l 1
 427 730 l 1
 514 595 l 1
 476 595 l 1
 412 696 l 1xec
 302 595 l 1
 259 595 l 1xdc
349 509 m 0
 454 509 507 454 507 352 c 0
 507 150 405 -9 252 -9 c 0
 150 -9 99 37 99 139 c 0
 99 346 207 509 349 509 c 0
252 23 m 0
 384 23 471 172 471 352 c 0
 471 425 433 477 349 477 c 0
 222 477 135 319 135 139 c 0
 135 64 173 23 252 23 c 0
EndSplineSet
EndChar

StartChar: odieresis
Encoding: 246 246 176
Width: 493
Flags: MW
HStem: -9 32<212.5 318 212.5 328.5> 477 32<285.5 391> 633 65<285 329 300 314 473 487>
VStem: 99 36<101.5 229 101.5 242.5> 471 36<262 388.5>
LayerCount: 2
Fore
SplineSet
349 509 m 0
 454 509 507 454 507 352 c 0
 507 150 405 -9 252 -9 c 0
 150 -9 99 37 99 139 c 0
 99 346 207 509 349 509 c 0
252 23 m 0
 384 23 471 172 471 352 c 0
 471 425 433 477 349 477 c 0
 222 477 135 319 135 139 c 0
 135 64 173 23 252 23 c 0
285 633 m 1
 300 698 l 1
 329 698 l 1
 314 633 l 1
 285 633 l 1
460 633 m 1
 473 698 l 1
 502 698 l 1
 487 633 l 1
 460 633 l 1
EndSplineSet
EndChar

StartChar: otilde
Encoding: 245 245 177
Width: 493
Flags: MW
HStem: -9 32<212.5 318 212.5 328.5> 477 32<285.5 391> 630 32<447 468.5 447 468.5> 667 21G<249 249> 681 32<322 341> 703 21G<528 528>
VStem: 99 36<101.5 229 101.5 242.5> 471 36<262 388.5>
LayerCount: 2
Fore
SplineSet
349 509 m 0xd7
 454 509 507 454 507 352 c 0
 507 150 405 -9 252 -9 c 0
 150 -9 99 37 99 139 c 0
 99 346 207 509 349 509 c 0xd7
252 23 m 0
 384 23 471 172 471 352 c 0
 471 425 433 477 349 477 c 0
 222 477 135 319 135 139 c 0
 135 64 173 23 252 23 c 0
528 703 m 1
 533 673 l 1
 533 673 483 630 454 630 c 0xe7
 420 630 355 681 327 681 c 0
 308 681 251 636 251 636 c 1
 249 667 l 1
 249 667 307 713 337 713 c 0xcb
 372 713 434 662 460 662 c 0xe7
 477 662 528 703 528 703 c 1
EndSplineSet
EndChar

StartChar: uacute
Encoding: 250 250 178
Width: 488
Flags: MW
HStem: -9 33<199 269> 0 21G<379 414 379 379> 480 20G<185 219 219 219 495 530 530 530> 700 21G<534 534> 710 20G<528 528>
VStem: 105 35<83 130>
LayerCount: 2
Fore
SplineSet
495 500 m 1xac
 530 500 l 1
 414 0 l 1
 379 0 l 1x74
 405 113 l 1
 405 113 318 -9 220 -9 c 0
 149 -9 105 35 105 107 c 0
 105 153 115 200 124 240 c 2
 185 500 l 1
 219 500 l 1
 159 242 l 2
 150 205 140 152 140 110 c 0
 140 56 172 24 226 24 c 0
 315 24 418 170 418 170 c 1
 495 500 l 1xac
330 610 m 1
 325 635 l 1xb4
 528 730 l 1xac
 534 700 l 1
 330 610 l 1
EndSplineSet
EndChar

StartChar: ugrave
Encoding: 249 249 179
Width: 488
Flags: MW
HStem: -9 33<199 269> 0 21G<379 414 379 379> 480 20G<185 219 219 219 495 530 530 530>
VStem: 105 35<83 130>
LayerCount: 2
Fore
SplineSet
284 721 m 1xb0
 444 626 l 1
 426 604 l 1
 266 696 l 1
 284 721 l 1xb0
495 500 m 1
 530 500 l 1
 414 0 l 1
 379 0 l 1x70
 405 113 l 1
 405 113 318 -9 220 -9 c 0
 149 -9 105 35 105 107 c 0
 105 153 115 200 124 240 c 2
 185 500 l 1
 219 500 l 1
 159 242 l 2
 150 205 140 152 140 110 c 0
 140 56 172 24 226 24 c 0
 315 24 418 170 418 170 c 1
 495 500 l 1
EndSplineSet
EndChar

StartChar: ucircumflex
Encoding: 251 251 180
Width: 488
Flags: MW
HStem: -9 33<199 269> 0 21G<379 414 379 379> 480 20G<185 219 219 219 495 530 530 530> 696 34<388 388> 710 20G<381 403 403 403>
VStem: 105 35<83 130>
LayerCount: 2
Fore
SplineSet
235 595 m 1xac
 381 730 l 1
 403 730 l 1
 490 595 l 1
 452 595 l 1
 388 696 l 1xb4
 278 595 l 1
 235 595 l 1xac
495 500 m 1
 530 500 l 1
 414 0 l 1
 379 0 l 1x6c
 405 113 l 1
 405 113 318 -9 220 -9 c 0
 149 -9 105 35 105 107 c 0
 105 153 115 200 124 240 c 2
 185 500 l 1
 219 500 l 1
 159 242 l 2
 150 205 140 152 140 110 c 0
 140 56 172 24 226 24 c 0
 315 24 418 170 418 170 c 1
 495 500 l 1
EndSplineSet
EndChar

StartChar: udieresis
Encoding: 252 252 181
Width: 488
Flags: MW
HStem: -9 33<199 269> 0 21G<379 414 379 379> 480 20G<185 219 219 219 495 530 530 530> 633 65<270 319 285 304 463 482>
VStem: 105 35<83 130>
LayerCount: 2
Fore
SplineSet
270 633 m 1xb8
 285 698 l 1
 319 698 l 1
 304 633 l 1
 270 633 l 1xb8
450 633 m 1
 463 698 l 1
 497 698 l 1
 482 633 l 1
 450 633 l 1
495 500 m 1
 530 500 l 1
 414 0 l 1
 379 0 l 1x78
 405 113 l 1
 405 113 318 -9 220 -9 c 0
 149 -9 105 35 105 107 c 0
 105 153 115 200 124 240 c 2
 185 500 l 1
 219 500 l 1
 159 242 l 2
 150 205 140 152 140 110 c 0
 140 56 172 24 226 24 c 0
 315 24 418 170 418 170 c 1
 495 500 l 1
EndSplineSet
EndChar

StartChar: minus
Encoding: 8722 8722 182
Width: 560
Flags: MW
HStem: 234 34<127 549 127 549>
VStem: 127 422<234 268 234 268>
LayerCount: 2
Fore
SplineSet
127 234 m 1
 127 268 l 1
 549 268 l 1
 549 234 l 1
 127 234 l 1
EndSplineSet
EndChar

StartChar: multiply
Encoding: 215 215 183
Width: 560
Flags: MW
HStem: 52 398<162 162 162 512>
VStem: 138 398<76 76 76 426>
LayerCount: 2
Fore
SplineSet
162 450 m 1
 337 274 l 1
 512 450 l 1
 536 426 l 1
 360 251 l 1
 536 76 l 1
 512 52 l 1
 337 228 l 1
 162 52 l 1
 138 76 l 1
 314 251 l 1
 138 426 l 1
 162 450 l 1
EndSplineSet
EndChar

StartChar: dotlessi
Encoding: 305 305 184
Width: 182
Flags: MW
HStem: 0 21G<73 73 73 108> 480 20G<189 224 224 224>
VStem: 73 151
LayerCount: 2
Fore
SplineSet
73 0 m 1
 189 500 l 1
 224 500 l 1
 108 0 l 1
 73 0 l 1
EndSplineSet
EndChar

StartChar: iacute
Encoding: 237 237 185
Width: 182
Flags: MW
HStem: 0 21G<73 73 73 108> 480 20G<189 224 224 224> 700 21G<406 406> 710 20G<400 400>
VStem: 73 333
LayerCount: 2
Fore
SplineSet
73 0 m 1xd8
 189 500 l 1
 224 500 l 1
 108 0 l 1
 73 0 l 1xd8
202 610 m 1xe8
 197 635 l 1xe8
 400 730 l 1xd8
 406 700 l 1
 202 610 l 1xe8
EndSplineSet
EndChar

StartChar: igrave
Encoding: 236 236 186
Width: 182
Flags: MW
HStem: 0 21G<73 73 73 108> 480 20G<189 224 224 224>
VStem: 73 185
LayerCount: 2
Fore
SplineSet
73 0 m 1
 189 500 l 1
 224 500 l 1
 108 0 l 1
 73 0 l 1
98 721 m 1
 258 626 l 1
 240 604 l 1
 80 696 l 1
 98 721 l 1
EndSplineSet
EndChar

StartChar: icircumflex
Encoding: 238 238 187
Width: 182
Flags: MW
HStem: 0 21G<73 73 73 108> 480 20G<189 224 224 224> 696 34<247 247> 710 20G<240 262 262 262>
VStem: 73 276
LayerCount: 2
Fore
SplineSet
94 595 m 1xd8
 240 730 l 1
 262 730 l 1
 349 595 l 1
 311 595 l 1
 247 696 l 1xe8
 137 595 l 1
 94 595 l 1xd8
73 0 m 1
 189 500 l 1
 224 500 l 1
 108 0 l 1
 73 0 l 1
EndSplineSet
EndChar

StartChar: germandbls
Encoding: 223 223 188
Width: 522
Flags: MW
HStem: -9 32<281.5 359.5 281.5 370> 0 21G<73 107 73 73> 707 21G<351 441> 719 20G<345.5 452>
VStem: 331 35<391.5 418 391.5 422> 488 36<147.5 226> 508 36<599 656>
LayerCount: 2
Fore
SplineSet
107 0 m 1x6a
 73 0 l 1
 198 535 l 2
 233 684 288 739 403 739 c 0
 501 739 544 701 544 635 c 0x5a
 544 549 500 506 444 476 c 0
 388 446 366 431 366 405 c 0
 366 378 375 366 426 335 c 0
 500 290 524 272 524 203 c 0
 524 76 443 -9 297 -9 c 0
 252 -9 194 5 194 5 c 1
 199 37 l 1
 199 37 262 23 301 23 c 0
 418 23 488 93 488 202 c 0xac
 488 250 472 268 402 311 c 0
 346 345 331 368 331 400 c 0
 331 444 352 463 430 505 c 0
 480 532 508 568 508 630 c 0
 508 682 480 707 402 707 c 0
 300 707 260 657 231 532 c 2
 107 0 l 1x6a
EndSplineSet
EndChar

StartChar: ccedilla
Encoding: 231 231 189
Width: 403
Flags: MW
HStem: -199 31<204 234.5 204 241> -83 30<228 233 233 241> -9 32<239 249 239 239> -6 21G<208 208> 477 32<284.5 384.5>
VStem: 99 37<97 218 97 224>
LayerCount: 2
Fore
SplineSet
363 509 m 0xec
 412 509 472 498 472 498 c 1
 463 467 l 1
 463 467 406 477 363 477 c 0
 206 477 136 304 136 132 c 0
 136 62 169 23 257 23 c 0
 294 23 372 42 372 42 c 1
 372 10 l 1
 372 10 305 -9 249 -9 c 2
 239 -9 l 1xec
 228 -53 l 1
 233 -53 l 2
 284 -53 322 -71 310 -124 c 0
 298 -178 267 -199 215 -199 c 0
 173 -199 139 -195 139 -195 c 1
 147 -164 l 1
 147 -164 188 -168 220 -168 c 0
 249 -168 268 -157 276 -124 c 0
 284 -90 263 -83 241 -83 c 2
 190 -83 l 1
 208 -6 l 1xdc
 131 5 99 53 99 129 c 0
 99 319 182 509 363 509 c 0xec
EndSplineSet
EndChar

StartChar: lslash
Encoding: 322 322 190
Width: 256
Flags: MW
HStem: 0 21G<107 107 107 142> 710 20G<276 311 311 311>
VStem: 81 251<292 411>
LayerCount: 2
Fore
SplineSet
107 0 m 1
 180 317 l 1
 96 265 l 1
 81 292 l 1
 190 360 l 1
 276 730 l 1
 311 730 l 1
 231 385 l 1
 319 440 l 1
 332 411 l 1
 221 342 l 1
 142 0 l 1
 107 0 l 1
EndSplineSet
EndChar

StartChar: eth
Encoding: 240 240 191
Width: 510
Flags: MW
HStem: -9 38<209.5 311.5> 388 38<273.5 365.5> 702 21G<270 270>
VStem: 83 40<107 209.5 107 225.5> 510 38
LayerCount: 2
Fore
SplineSet
410 631 m 1
 282 554 l 1
 266 582 l 1
 380 651 l 1
 347 671 310 688 270 702 c 1
 289 736 l 1
 339 719 382 698 417 674 c 1
 529 742 l 1
 545 713 l 1
 445 653 l 1
 533 580 566 482 538 360 c 0
 475 92 376 -9 247 -9 c 0
 125 -9 83 60 83 135 c 0
 83 316 206 426 338 426 c 0
 412 426 506 382 506 382 c 1
 525 496 483 575 410 631 c 1
332 388 m 0
 215 388 123 280 123 139 c 0
 123 75 164 29 255 29 c 0
 381 29 452 163 498 343 c 1
 493 346 399 388 332 388 c 0
EndSplineSet
EndChar

StartChar: Thorn
Encoding: 222 222 192
Width: 556
Flags: MW
HStem: 0 21G<85 121 85 85> 134 32<160 353 152 361> 547 32<257 444 250 452>
VStem: 570 36
LayerCount: 2
Fore
SplineSet
361 166 m 2
 475 166 532 257 560 367 c 0
 584 462 571 547 444 547 c 2
 250 547 l 1
 160 166 l 1
 361 166 l 2
353 134 m 2
 152 134 l 1
 121 0 l 1
 85 0 l 1
 249 700 l 1
 285 700 l 1
 257 579 l 1
 452 579 l 2
 600 579 622 482 597 367 c 0
 568 234 490 134 353 134 c 2
EndSplineSet
Position2: "'cpsp' Capital Spacing in Lateinisch lookup 0 subtable" dx=5 dy=0 dh=10 dv=0
EndChar

StartChar: oslash
Encoding: 248 248 193
Width: 492
Flags: MW
HStem: -7 32<239 319 239 329.5> 479 32<286.5 363.5>
VStem: 100 36<122.5 231 122.5 244.5> 472 36<264 373>
LayerCount: 2
Fore
SplineSet
350 511 m 0
 384 511 413 505 436 494 c 1
 505 604 l 1
 532 592 l 1
 460 478 l 1
 492 452 508 410 508 354 c 0
 508 152 406 -7 253 -7 c 0
 218 -7 189 -1 166 9 c 1
 90 -113 l 1
 63 -102 l 1
 142 24 l 1
 114 48 100 87 100 141 c 0
 100 348 208 511 350 511 c 0
253 25 m 0
 385 25 472 174 472 354 c 0
 472 392 461 424 440 446 c 1
 311 242 l 1
 185 40 l 1
 203 30 225 25 253 25 c 0
163 57 m 1
 288 255 l 1
 417 463 l 1
 399 473 377 479 350 479 c 0
 223 479 136 321 136 141 c 0
 136 104 145 76 163 57 c 1
EndSplineSet
EndChar

StartChar: zero.pnum
Encoding: 65540 -1 194
Width: 522
Flags: MW
HStem: -9 32<216.5 288.5> 477 32<354.5 423>
VStem: 103 35<108 214.5> 501 35<308 388.5>
LayerCount: 2
Fore
SplineSet
381 509 m 0
 501 509 536 447 536 351 c 0
 536 265 504 134 423 56 c 0
 381 15 324 -9 253 -9 c 0
 135 -9 103 52 103 153 c 0
 103 276 153 401 241 465 c 0
 281 494 328 509 381 509 c 0
374 477 m 0
 234 477 138 321 138 154 c 0
 138 62 171 23 262 23 c 0
 449 23 501 272 501 342 c 0
 501 435 472 477 374 477 c 0
EndSplineSet
Substitution2: "'frac' Diagonal Fractions in Lateinisch lookup 1 subtable" zerosuperior
EndChar

StartChar: one.pnum
Encoding: 65541 -1 195
Width: 311
Flags: MW
HStem: 0 21G<194 229 194 194> 458 42<308 353>
VStem: 121 232<391 500>
LayerCount: 2
Fore
SplineSet
121 391 m 1
 318 500 l 1
 353 500 l 1
 229 0 l 1
 194 0 l 1
 308 458 l 1
 132 360 l 1
 121 391 l 1
EndSplineSet
Substitution2: "'frac' Diagonal Fractions in Lateinisch lookup 1 subtable" onesuperior
EndChar

StartChar: two.pnum
Encoding: 65542 -1 196
Width: 451
Flags: MW
HStem: 0 32<56 56 107 407 49 56> 477 32<312.5 382>
VStem: 446 36<361.5 422>
LayerCount: 2
Fore
SplineSet
407 0 m 1
 49 0 l 1
 56 32 l 1
 301 207 l 2
 378 262 446 323 446 400 c 0
 446 444 429 477 335 477 c 0
 277 477 166 458 165 457 c 2
 170 488 l 1
 170 488 277 509 348 509 c 0
 442 509 482 470 482 412 c 0
 482 308 404 241 334 192 c 2
 107 32 l 1
 407 32 l 1
 407 0 l 1
EndSplineSet
Substitution2: "'frac' Diagonal Fractions in Lateinisch lookup 1 subtable" twosuperior
EndChar

StartChar: three.pnum
Encoding: 65543 -1 197
Width: 469
Flags: MW
HStem: -9 21G<201.5 317.5> -9 32<204.5 308 204.5 317.5> 250 32<194 304 186 315> 477 32<322 391>
VStem: 412 36<137 202.5 132 207> 459 36<372 440>
LayerCount: 2
Fore
SplineSet
183 491 m 1x74
 183 491 284 509 360 509 c 0
 455 509 495 478 495 426 c 0x74
 495 302 396 268 363 267 c 1
 409 260 448 226 448 179 c 0
 448 85 392 -9 243 -9 c 0x7c
 160 -9 56 9 56 9 c 1xb4
 69 41 l 1
 69 41 164 23 245 23 c 0
 371 23 412 102 412 172 c 0x7c
 412 242 337 250 304 250 c 2
 186 250 l 1
 194 282 l 1
 315 282 l 2
 376 282 459 329 459 415 c 0
 459 465 429 477 353 477 c 0
 277 477 179 459 179 459 c 1
 183 491 l 1x74
EndSplineSet
Substitution2: "'frac' Diagonal Fractions in Lateinisch lookup 1 subtable" threesuperior
EndChar

StartChar: four.pnum
Encoding: 65544 -1 198
Width: 454
Flags: MW
HStem: 0 143<320 320 320 355> 111 32<116 347 116 382 390 443> 480 20G<336 378 378 378>
VStem: 66 385<111 143>
LayerCount: 2
Fore
SplineSet
320 0 m 1xb0
 347 111 l 1
 66 111 l 1
 73 142 l 1
 336 500 l 1
 378 500 l 1
 116 143 l 1
 355 143 l 1
 389 280 l 1
 424 280 l 1
 390 143 l 1
 451 143 l 1
 443 111 l 1
 382 111 l 1x70
 355 0 l 1
 320 0 l 1xb0
EndSplineSet
Substitution2: "'frac' Diagonal Fractions in Lateinisch lookup 1 subtable" foursuperior
EndChar

StartChar: five.pnum
Encoding: 65545 -1 199
Width: 459
Flags: MW
HStem: -9 21G<199 302> -9 32<208.5 293 208.5 302> 281 32<286 348> 469 32<228 491 228 228>
VStem: 411 37<151.5 223.5>
LayerCount: 2
Fore
SplineSet
203 501 m 1x78
 499 501 l 1
 491 469 l 1
 228 469 l 1
 166 276 l 1
 166 276 257 313 315 313 c 0
 405 313 448 270 448 206 c 0
 448 86 372 -9 232 -9 c 0x78
 166 -9 64 9 64 9 c 1xb8
 76 41 l 1
 76 41 177 23 240 23 c 0
 346 23 411 105 411 198 c 0
 411 249 390 281 306 281 c 0
 244 281 146 238 146 238 c 1
 123 244 l 1
 203 501 l 1x78
EndSplineSet
Substitution2: "'frac' Diagonal Fractions in Lateinisch lookup 1 subtable" fivesuperior
EndChar

StartChar: six.pnum
Encoding: 65546 -1 200
Width: 480
Flags: MW
HStem: -10 31<204 328> 281 32<302.5 371.5> 477 32<326 405>
VStem: 102 35<101 150 101 222.5> 435 36<191.5 226.5>
LayerCount: 2
Fore
SplineSet
519 494 m 1
 508 463 l 1
 508 463 437 477 373 477 c 0
 279 477 193 417 155 270 c 1
 181 283 274 313 331 313 c 0
 446 313 471 272 471 208 c 0
 471 119 420 -10 236 -10 c 0
 140 -10 102 44 102 126 c 0
 102 319 185 509 381 509 c 0
 445 509 519 494 519 494 c 1
321 281 m 0
 250 281 149 237 149 237 c 1
 144 212 137 165 137 135 c 0
 137 67 162 21 246 21 c 0
 425 21 435 177 435 206 c 0
 435 247 422 281 321 281 c 0
EndSplineSet
Substitution2: "'frac' Diagonal Fractions in Lateinisch lookup 1 subtable" sixsuperior
EndChar

StartChar: seven.pnum
Encoding: 65547 -1 201
Width: 389
Flags: MW
HStem: -10 21G<127 127> 469 32<143 468 151 424>
VStem: 98 370
LayerCount: 2
Fore
SplineSet
143 469 m 1
 151 501 l 1
 468 501 l 1
 455 448 l 1
 127 -10 l 1
 98 7 l 1
 419 451 l 1
 424 469 l 1
 143 469 l 1
EndSplineSet
Substitution2: "'frac' Diagonal Fractions in Lateinisch lookup 1 subtable" sevensuperior
EndChar

StartChar: eight.pnum
Encoding: 65548 -1 202
Width: 497
Flags: MW
HStem: -10 32<205.5 314 205.5 325> 246 32<264 345 256 353> 477 32<293.5 402.5>
VStem: 82 36<67 138 67 141.5> 154 36<335 371 335 392.5> 436 36<128 192.5> 490 36<368.5 432>
LayerCount: 2
Fore
SplineSet
369 509 m 0
 475 509 526 473 526 415 c 0xfe
 526 322 460 278 386 263 c 1
 446 247 472 217 472 173 c 0xfc
 472 66 410 -10 240 -10 c 0
 134 -10 82 27 82 86 c 0
 82 197 156 240 226 263 c 1
 172 283 154 312 154 353 c 0
 154 432 218 509 369 509 c 0
248 22 m 0xfc
 380 22 436 80 436 176 c 0
 436 209 406 230 345 246 c 1
 256 246 l 1
 186 230 118 186 118 90 c 0
 118 44 163 22 248 22 c 0xfc
355 477 m 0
 209 477 190 390 190 352 c 0
 190 318 203 297 264 278 c 1
 353 278 l 1
 428 299 490 326 490 410 c 0xfe
 490 454 450 477 355 477 c 0
EndSplineSet
Substitution2: "'frac' Diagonal Fractions in Lateinisch lookup 1 subtable" eightsuperior
EndChar

StartChar: nine.pnum
Encoding: 65549 -1 203
Width: 480
Flags: MW
HStem: -10 32<189 270.5 189 311> 194 32<224.5 295.5> 478 31<266 390>
VStem: 126 35<285 315.5 285 344> 458 34<349 398>
LayerCount: 2
Fore
SplineSet
75 5 m 1
 86 36 l 1
 86 36 157 22 221 22 c 0
 320 22 415 101 444 238 c 1
 401 219 326 194 265 194 c 0
 150 194 126 247 126 301 c 0
 126 387 174 509 358 509 c 0
 454 509 492 454 492 372 c 0
 492 173 409 -10 213 -10 c 0
 149 -10 75 5 75 5 c 1
275 226 m 0
 346 226 449 270 449 270 c 1
 455 295 458 334 458 364 c 0
 458 432 432 478 348 478 c 0
 169 478 161 330 161 301 c 0
 161 269 174 226 275 226 c 0
EndSplineSet
Substitution2: "'frac' Diagonal Fractions in Lateinisch lookup 1 subtable" ninesuperior
EndChar

StartChar: brokenbar
Encoding: 166 166 204
Width: 306
Flags: MW
HStem: -230 21G<193 228 193 193> 710 20G<193 228 228 228>
VStem: 193 35<-230 146 -230 146 354 730>
LayerCount: 2
Fore
SplineSet
193 730 m 1
 228 730 l 1
 228 354 l 1
 193 354 l 1
 193 730 l 1
193 146 m 1
 228 146 l 1
 228 -230 l 1
 193 -230 l 1
 193 146 l 1
EndSplineSet
EndChar

StartChar: plusminus
Encoding: 177 177 205
Width: 560
Flags: MW
HStem: 50 34<105 547 105 547> 308 34<105 307 105 307 343 547>
VStem: 307 36<164 308 164 308 342 480>
LayerCount: 2
Fore
SplineSet
105 308 m 1
 105 342 l 1
 307 342 l 1
 307 480 l 1
 343 480 l 1
 343 342 l 1
 547 342 l 1
 547 308 l 1
 343 308 l 1
 343 164 l 1
 307 164 l 1
 307 308 l 1
 105 308 l 1
105 84 m 1
 547 84 l 1
 547 50 l 1
 105 50 l 1
 105 84 l 1
EndSplineSet
EndChar

StartChar: pi
Encoding: 960 960 206
Width: 560
Flags: MW
HStem: 0 32<544.5 583 544.5 583> 468 32<245 449 245 245>
VStem: 449 35<154 468 468 468>
LayerCount: 2
Fore
SplineSet
449 154 m 2
 449 468 l 1
 245 468 l 1
 216 0 l 1
 180 0 l 1
 210 467 l 1
 123 466 89 455 89 455 c 1
 89 487 l 1
 89 487 145 500 226 500 c 2
 450 500 l 2
 533 500 595 516 595 516 c 1
 595 484 l 1
 595 484 564 471 484 469 c 1
 484 154 l 2
 484 51 506 32 583 32 c 1
 583 0 l 1
 482 0 449 30 449 154 c 2
EndSplineSet
EndChar

StartChar: bullet
Encoding: 8226 8226 207
Width: 503
Flags: MW
HStem: 110 290<185 435 185 435>
VStem: 185 250<110 400 110 400>
LayerCount: 2
Fore
SplineSet
185 110 m 1
 185 400 l 1
 435 400 l 1
 435 110 l 1
 185 110 l 1
EndSplineSet
EndChar

StartChar: ordfeminine
Encoding: 170 170 208
Width: 354
Flags: MW
HStem: 386 31<213.5 243> 517 28.5 629 30<316.5 345.5>
VStem: 161 34 368 34
LayerCount: 2
Fore
SplineSet
397 571 m 2
 365 434 l 1
 370 421 382 416 396 413 c 1
 388 386 l 1
 363 387 352 393 339 408 c 1
 339 408 271 386 215 386 c 0
 174 386 152 417 164 466 c 0
 176 514 202 538 257 542 c 2
 359 549 l 1
 365 572 l 2
 375 615 363 629 328 629 c 0
 294 629 223 622 223 622 c 1
 227 651 l 1
 227 651 298 659 335 659 c 0
 392 659 412 634 397 571 c 2
352 520 m 1
 257 514 l 2
 222 512 206 497 198 464 c 0
 190 432 201 417 226 417 c 0
 271 417 332 435 332 435 c 1
 352 520 l 1
EndSplineSet
EndChar

StartChar: ordmasculine
Encoding: 186 186 209
Width: 339
Flags: MW
HStem: 383 36<244.5 291 244.5 296> 622 36<287 333.5>
VStem: 171 35<453.5 474> 370 36<568 591>
LayerCount: 2
Fore
SplineSet
321 658 m 0
 376 658 406 634 406 580 c 0
 406 556 403 538 398 515 c 0
 379 428 335 383 257 383 c 0
 202 383 171 411 171 466 c 0
 171 482 173 501 178 522 c 0
 202 619 243 658 321 658 c 0
264 419 m 0
 318 419 346 447 364 522 c 0
 369 543 370 560 370 573 c 0
 370 609 353 622 314 622 c 0
 260 622 231 596 213 522 c 0
 208 502 206 486 206 472 c 0
 206 435 225 419 264 419 c 0
EndSplineSet
EndChar

StartChar: quotedblleft
Encoding: 8220 8220 210
Width: 322
Flags: MW
HStem: 498 202<171 291 171 291 264 308 264 346>
VStem: 171 257<498 700>
LayerCount: 2
Fore
SplineSet
264 700 m 1
 291 700 l 1
 209 498 l 1
 171 498 l 1
 264 700 l 1
401 700 m 1
 428 700 l 1
 346 498 l 1
 308 498 l 1
 401 700 l 1
EndSplineSet
EndChar

StartChar: asciitilde
Encoding: 126 126 211
Width: 560
Flags: MW
HStem: 212 34<418 458 418 466> 285 34<226 266>
VStem: 131 422<265 267>
LayerCount: 2
Fore
SplineSet
542 298 m 1
 553 267 l 1
 553 267 491 212 441 212 c 0
 384 212 288 285 244 285 c 0
 208 285 142 233 142 233 c 1
 131 265 l 1
 131 265 193 319 243 319 c 0
 300 319 396 246 440 246 c 0
 476 246 542 298 542 298 c 1
EndSplineSet
EndChar

StartChar: emdash
Encoding: 8212 8212 212
Width: 1140
Flags: MW
HStem: 252 34<132 1132 132 1132>
VStem: 132 1000<252 286 252 286>
LayerCount: 2
Fore
SplineSet
132 286 m 1
 1132 286 l 1
 1132 252 l 1
 132 252 l 1
 132 286 l 1
EndSplineSet
Substitution2: "'case' Case-Sensitive Forms in Lateinisch lookup 4 subtable" emdash.cap
EndChar

StartChar: six
Encoding: 54 54 213
Width: 560
Flags: MW
HStem: -9 33<249.5 372.5 249.5 379.5> 373 33<333 432> 637 33<373.5 498.5>
VStem: 121 37<153 233.5 153 301.5> 524 36<184.5 284.5>
LayerCount: 2
Fore
SplineSet
628 651 m 1
 619 620 l 1
 619 620 537 637 460 637 c 0
 287 637 208 471 178 358 c 1
 178 358 279 406 387 406 c 0
 504 406 560 347 560 256 c 0
 560 99 462 -9 297 -9 c 0
 182 -9 121 72 121 213 c 0
 121 390 220 670 469 670 c 0
 549 670 628 651 628 651 c 1
377 373 m 0
 282 373 169 323 169 323 c 1
 163 305 158 254 158 213 c 0
 158 93 203 24 296 24 c 0
 449 24 524 127 524 242 c 0
 524 327 487 373 377 373 c 0
EndSplineSet
Substitution2: "'frac' Diagonal Fractions in Lateinisch lookup 1 subtable" sixsuperior
EndChar

StartChar: nine
Encoding: 57 57 214
Width: 560
Flags: MW
HStem: -9 21G -9 34<212.5 316.5 212.5 316.5> 256 34<275.5 357> 636 34<371.5 489>
VStem: 153 39 557 37
LayerCount: 2
Fore
SplineSet
78 12 m 1xbc
 92 44 l 1
 92 44 174 25 251 25 c 0
 382 25 478 106 528 298 c 1
 528 298 396 256 318 256 c 0
 192 256 129 321 162 457 c 0
 196 590 310 670 433 670 c 0
 585 670 626 545 571 324 c 0
 508 72 391 -9 242 -9 c 0x7c
 168 -9 78 12 78 12 c 1xbc
329 290 m 0
 401 290 538 333 538 333 c 1
 582 520 554 636 424 636 c 0
 319 636 228 569 200 457 c 0
 172 343 222 290 329 290 c 0
EndSplineSet
Substitution2: "'frac' Diagonal Fractions in Lateinisch lookup 1 subtable" ninesuperior
EndChar

StartChar: yen
Encoding: 165 165 215
Width: 560
Flags: MW
HStem: 0 21G<259 294 259 259> 183 33<116 301 108 308 345 527 116 337> 332 33<143 313 151 313 151 326 412 562>
VStem: 108 560<183 661>
LayerCount: 2
Fore
SplineSet
143 332 m 1
 151 365 l 1
 313 365 l 1
 195 661 l 1
 233 661 l 1
 356 350 l 1
 622 661 l 1
 668 661 l 1
 412 365 l 1
 569 365 l 1
 562 332 l 1
 384 332 l 1
 367 312 l 1
 345 216 l 1
 535 216 l 1
 527 183 l 1
 337 183 l 1
 294 0 l 1
 259 0 l 1
 301 183 l 1
 108 183 l 1
 116 216 l 1
 308 216 l 1
 331 314 l 1
 326 332 l 1
 143 332 l 1
EndSplineSet
EndChar

StartChar: less
Encoding: 60 60 216
Width: 560
Flags: MW
HStem: 15 470<525 525>
VStem: 101 33<251 251 251 269 251 269>
LayerCount: 2
Fore
SplineSet
525 446 m 1
 134 251 l 1
 525 56 l 1
 525 15 l 1
 101 233 l 1
 101 269 l 1
 525 485 l 1
 525 446 l 1
EndSplineSet
EndChar

StartChar: greater
Encoding: 62 62 217
Width: 560
Flags: MW
HStem: 15 470<148 148>
VStem: 539 33<251 251>
LayerCount: 2
Fore
SplineSet
539 251 m 1
 148 446 l 1
 148 485 l 1
 572 269 l 1
 572 233 l 1
 148 15 l 1
 148 56 l 1
 539 251 l 1
EndSplineSet
EndChar

StartChar: bracketleft
Encoding: 91 91 218
Width: 296
Flags: MW
HStem: -122 33<93 223> 714 33<282 421 282 282>
VStem: 51 377
LayerCount: 2
Fore
SplineSet
255 747 m 1
 428 747 l 1
 421 714 l 1
 282 714 l 1
 93 -89 l 1
 232 -89 l 1
 223 -122 l 1
 51 -122 l 1
 255 747 l 1
EndSplineSet
Substitution2: "'case' Case-Sensitive Forms in Lateinisch lookup 4 subtable" bracketleft.cap
EndChar

StartChar: backslash
Encoding: 92 92 219
Width: 387
Flags: MW
HStem: 0 21G<320 320>
VStem: 190 168
LayerCount: 2
Fore
SplineSet
358 14 m 1
 320 0 l 1
 190 687 l 1
 228 701 l 1
 358 14 l 1
EndSplineSet
EndChar

StartChar: bracketright
Encoding: 93 93 220
Width: 296
Flags: MW
HStem: -121 33<20 159 20 186 13 159> 715 33<218 348 209 390>
VStem: 13 377
LayerCount: 2
Fore
SplineSet
186 -121 m 1
 13 -121 l 1
 20 -88 l 1
 159 -88 l 1
 348 715 l 1
 209 715 l 1
 218 748 l 1
 390 748 l 1
 186 -121 l 1
EndSplineSet
Substitution2: "'case' Case-Sensitive Forms in Lateinisch lookup 4 subtable" bracketright.cap
EndChar

StartChar: bar
Encoding: 124 124 221
Width: 296
Flags: MW
HStem: -230 21G<188 188 188 223> 710 20G<188 223 223 223>
VStem: 188 35<-230 730 -230 730>
LayerCount: 2
Fore
SplineSet
188 -230 m 1
 188 730 l 1
 223 730 l 1
 223 -230 l 1
 188 -230 l 1
EndSplineSet
EndChar

StartChar: notequal
Encoding: 8800 8800 222
Width: 560
Flags: MW
HStem: -9 21G<233 233> 149 34<125 264 125 279 316 549 125 301> 318 34<125 353 125 338 125 375 390 549> 489 20G<421 421>
VStem: 125 424<149 183 149 183 318 352 149 352>
LayerCount: 2
Fore
SplineSet
125 318 m 1
 125 352 l 1
 353 352 l 1
 421 509 l 1
 453 496 l 1
 390 352 l 1
 549 352 l 1
 549 318 l 1
 375 318 l 1
 316 183 l 1
 549 183 l 1
 549 149 l 1
 301 149 l 1
 233 -9 l 1
 201 4 l 1
 264 149 l 1
 125 149 l 1
 125 183 l 1
 279 183 l 1
 338 318 l 1
 125 318 l 1
EndSplineSet
EndChar

StartChar: mu
Encoding: 181 181 223
Width: 560
Flags: MW
HStem: -230 21G<53 53 53 88> -9 33<237 307> 0 21G<417 452 417 417> 480 20G<223 257 257 257 533 568 568 568>
VStem: 53 515
LayerCount: 2
Fore
SplineSet
53 -230 m 1xd8
 156 216 l 1
 162 240 l 1
 168 265 l 1
 169 270 l 1
 223 500 l 1
 257 500 l 1
 203 270 l 1
 204 270 l 1
 188 201 l 2
 182 171 178 138 178 110 c 0
 178 56 210 24 264 24 c 0xd8
 353 24 456 170 456 170 c 1
 533 500 l 1
 568 500 l 1
 452 0 l 1
 417 0 l 1xb8
 443 113 l 1
 443 113 356 -9 258 -9 c 0
 207 -9 170 13 153 52 c 1
 88 -230 l 1
 53 -230 l 1xd8
EndSplineSet
EndChar

StartChar: ae
Encoding: 230 230 224
Width: 772
Flags: MW
HStem: -9 36<140 198.5 498 563> 235 34 266 35 471 38<332.5 400 332.5 418.5>
VStem: 69 40 394 39 441 36 765 36<356.5 405.5>
LayerCount: 2
Fore
SplineSet
537 27 m 0xdd
 605 27 712 36 712 36 c 1
 705 0 l 1
 705 0 597 -9 529 -9 c 0
 464 -9 426 13 408 49 c 1
 342 23 233 -9 164 -9 c 0
 75 -9 59 62 73 138 c 0
 91 237 162 269 261 283 c 0
 317 291 370 297 421 301 c 1
 439 357 475 471 362 471 c 0
 293 471 183 462 183 462 c 1
 189 499 l 1
 189 499 295 509 370 509 c 0
 430 509 475 475 477 414 c 1xdf
 522 480 588 509 664 509 c 0
 752 509 801 469 801 373 c 0
 801 340 797 307 787 269 c 2
 778 234 l 1
 448 236 l 1
 439 196 433 161 433 132 c 0
 433 65 459 27 537 27 c 0xdd
173 27 m 0
 236 27 342 60 399 81 c 1
 386 142 402 202 416 266 c 1
 341 258 286 252 239 244 c 0xbd
 173 233 131 204 114 138 c 0
 102 90 107 27 173 27 c 0
455 270 m 1
 749 268 l 1
 760 308 765 340 765 368 c 0
 765 443 728 473 656 473 c 0
 560 473 490 418 455 270 c 1
EndSplineSet
EndChar

StartChar: florin
Encoding: 402 402 225
Width: 560
Flags: MW
HStem: -243 37<84 124.5 84 126> -238 32 349 36<207 313 200 321 356 520 207 348> 635 37<469 517>
VStem: 32 583
LayerCount: 2
Fore
SplineSet
348 349 m 1x78
 248 -70 l 2
 218 -197 164 -243 88 -243 c 0xb8
 56 -243 32 -238 32 -238 c 1
 41 -203 l 1
 41 -203 71 -206 97 -206 c 0
 152 -206 188 -170 214 -63 c 2
 313 349 l 1
 200 349 l 1
 207 385 l 1
 321 385 l 1
 338 456 l 2
 378 622 427 672 511 672 c 0
 553 672 615 665 615 665 c 1
 606 630 l 1
 606 630 531 635 503 635 c 0
 430 635 404 578 369 437 c 2
 356 385 l 1
 529 385 l 1
 520 349 l 1
 348 349 l 1x78
EndSplineSet
EndChar

StartChar: oe
Encoding: 339 339 226
Width: 826
Flags: MW
HStem: -9 36<210.5 299 550.5 615> 235 34 473 36<305 394 672 744>
VStem: 95 36<88.5 136> 446 35 479 35 818 38<357 406.5>
LayerCount: 2
Fore
SplineSet
589 27 m 0xf6
 655 27 763 36 763 36 c 1
 758 0 l 1
 758 0 650 -9 580 -9 c 0
 492 -9 454 31 446 98 c 1xfa
 407 24 349 -9 249 -9 c 0
 143 -9 95 25 95 113 c 0
 95 159 103 206 116 261 c 0
 158 440 224 509 370 509 c 0
 460 509 508 472 514 389 c 1xf6
 558 475 629 509 715 509 c 0
 805 509 856 468 856 372 c 0
 856 342 851 308 841 268 c 2
 832 234 l 1
 498 236 l 1
 488 196 481 161 481 132 c 0xfa
 481 62 512 27 589 27 c 0xf6
256 27 m 0
 396 27 428 115 464 259 c 0
 475 304 486 355 474 404 c 0
 461 453 425 473 363 473 c 0
 247 473 191 420 154 261 c 0
 140 203 131 158 131 122 c 0
 131 55 165 27 256 27 c 0
506 270 m 1
 803 268 l 1
 813 308 818 341 818 369 c 0
 818 444 780 473 708 473 c 0
 613 473 541 418 506 270 c 1
EndSplineSet
EndChar

StartChar: daggerdbl
Encoding: 8225 8225 227
Width: 487
Flags: MW
HStem: 122 35 461 37
VStem: 81 469<122 498>
LayerCount: 2
Fore
SplineSet
207 -78 m 1
 254 122 l 1
 81 122 l 1
 89 158 l 1
 262 156 l 1
 333 460 l 1
 162 460 l 1
 171 498 l 1
 342 496 l 1
 390 698 l 1
 423 698 l 1
 377 498 l 1
 550 498 l 1
 540 460 l 1
 367 462 l 1
 296 158 l 1
 468 158 l 1
 459 122 l 1
 287 124 l 1
 240 -78 l 1
 207 -78 l 1
EndSplineSet
EndChar

StartChar: quotedbl
Encoding: 34 34 228
Width: 317
Flags: MW
HStem: 486 212<184 267 184 267 232 356 232 323>
VStem: 184 222<486 698>
LayerCount: 2
Fore
SplineSet
356 486 m 1
 323 486 l 1
 371 698 l 1
 406 698 l 1
 356 486 l 1
217 486 m 1
 184 486 l 1
 232 698 l 1
 267 698 l 1
 217 486 l 1
EndSplineSet
EndChar

StartChar: quotesingle
Encoding: 39 39 229
Width: 178
Flags: MW
HStem: 486 212<184 267 184 267>
VStem: 184 83
LayerCount: 2
Fore
SplineSet
217 486 m 1
 184 486 l 1
 232 698 l 1
 267 698 l 1
 217 486 l 1
EndSplineSet
EndChar

StartChar: parenleft
Encoding: 40 40 230
Width: 223
Flags: MW
HStem: -124 872<117 356 117 356>
VStem: 101 35<30 257 30 266>
LayerCount: 2
Fore
SplineSet
321 748 m 1
 356 748 l 1
 356 748 136 413 136 101 c 0
 136 -41 150 -124 150 -124 c 1
 117 -124 l 1
 117 -124 101 -45 101 101 c 0
 101 431 321 748 321 748 c 1
EndSplineSet
Substitution2: "'case' Case-Sensitive Forms in Lateinisch lookup 4 subtable" parenleft.cap
EndChar

StartChar: parenright
Encoding: 41 41 231
Width: 222
Flags: MW
HStem: -118 872<11 250 11 250>
VStem: 231 35<373 600>
LayerCount: 2
Fore
SplineSet
46 -118 m 1
 11 -118 l 1
 11 -118 231 217 231 529 c 0
 231 671 217 754 217 754 c 1
 250 754 l 1
 250 754 266 675 266 529 c 0
 266 199 46 -118 46 -118 c 1
EndSplineSet
Substitution2: "'case' Case-Sensitive Forms in Lateinisch lookup 4 subtable" parenright.cap
EndChar

StartChar: comma
Encoding: 44 44 232
Width: 189
Flags: MW
HStem: -129 212<15 141 15 141>
VStem: 15 126
LayerCount: 2
Fore
SplineSet
43 -129 m 1
 15 -129 l 1
 101 83 l 1
 141 83 l 1
 43 -129 l 1
EndSplineSet
EndChar

StartChar: hyphen
Encoding: 45 45 233
Width: 383
Flags: MW
HStem: 252 35<128 380 136 371>
VStem: 128 252<252 287>
LayerCount: 2
Fore
SplineSet
128 252 m 1
 136 287 l 1
 380 287 l 1
 371 252 l 1
 128 252 l 1
EndSplineSet
EndChar

StartChar: period
Encoding: 46 46 234
Width: 179
Flags: MW
HStem: 0 83<72 127 91 108>
VStem: 72 55
LayerCount: 2
Fore
SplineSet
72 0 m 1
 91 83 l 1
 127 83 l 1
 108 0 l 1
 72 0 l 1
EndSplineSet
EndChar

StartChar: colon
Encoding: 58 58 235
Width: 179
Flags: MW
HStem: 0 83<72 127 91 108> 352 83<152 207 171 188>
VStem: 72 135
LayerCount: 2
Fore
SplineSet
152 352 m 1
 171 435 l 1
 207 435 l 1
 188 352 l 1
 152 352 l 1
72 0 m 1
 91 83 l 1
 127 83 l 1
 108 0 l 1
 72 0 l 1
EndSplineSet
EndChar

StartChar: semicolon
Encoding: 59 59 236
Width: 218
Flags: MW
HStem: 352 83<174 229 193 210>
VStem: 32 197
LayerCount: 2
Fore
SplineSet
32 -129 m 1
 60 -129 l 1
 158 83 l 1
 118 83 l 1
 32 -129 l 1
174 352 m 1
 193 435 l 1
 229 435 l 1
 210 352 l 1
 174 352 l 1
EndSplineSet
EndChar

StartChar: equal
Encoding: 61 61 237
Width: 560
Flags: MW
HStem: 149 34<126 550 126 550> 318 34<126 550 126 550>
VStem: 126 424<149 183 149 183 318 352 149 352>
LayerCount: 2
Fore
SplineSet
126 318 m 1
 126 352 l 1
 550 352 l 1
 550 318 l 1
 126 318 l 1
126 149 m 1
 126 183 l 1
 550 183 l 1
 550 149 l 1
 126 149 l 1
EndSplineSet
EndChar

StartChar: question
Encoding: 63 63 238
Width: 403
Flags: MW
HStem: 1 82<155 209 172 191> 675 34<308 370.5>
VStem: 454 38<551 623.5>
LayerCount: 2
Fore
SplineSet
492 595 m 0
 492 492 455 457 319 346 c 0
 264 301 238 263 231 227 c 2
 223 188 l 1
 189 188 l 1
 189 188 191 210 195 231 c 0
 205 282 239 325 301 375 c 0
 419 471 454 507 454 595 c 0
 454 652 407 675 334 675 c 0
 280 675 189 653 189 653 c 1
 189 685 l 1
 189 685 276 709 340 709 c 0
 425 709 492 678 492 595 c 0
155 1 m 1
 172 83 l 1
 209 83 l 1
 191 1 l 1
 155 1 l 1
EndSplineSet
EndChar

StartChar: underscore
Encoding: 95 95 239
Width: 643
Flags: MW
HStem: -117 38<79 518 71 528>
VStem: 71 457<-117 -79>
LayerCount: 2
Fore
SplineSet
79 -79 m 1
 528 -79 l 1
 518 -117 l 1
 71 -117 l 1
 79 -79 l 1
EndSplineSet
EndChar

StartChar: braceleft
Encoding: 123 123 240
Width: 329
Flags: MW
HStem: -123 36<256 256> 713 36<456 462>
VStem: 122 35<-32 19.5> 172 35<203.5 237>
LayerCount: 2
Fore
SplineSet
207 224 m 0
 207 183 157 60 157 -4 c 0
 157 -60 191 -87 266 -87 c 1
 256 -123 l 1xa0
 162 -119 122 -84 122 -14 c 0
 122 53 172 175 172 213 c 0
 172 261 146 279 96 292 c 1
 104 327 l 1
 196 352 218 385 233 461 c 0
 242 505 249 559 261 596 c 0
 294 697 348 744 462 749 c 1
 456 713 l 1
 347 708 305 660 286 568 c 0
 279 534 272 485 265 453 c 0
 246 365 215 334 143 311 c 1
 177 299 207 276 207 224 c 0
EndSplineSet
Substitution2: "'case' Case-Sensitive Forms in Lateinisch lookup 4 subtable" braceleft.cap
EndChar

StartChar: braceright
Encoding: 125 125 241
Width: 329
Flags: MW
HStem: -126 36<11 17> 710 36<217 217 217 244.5>
VStem: 266 35<386 419.5> 316 35<603.5 655>
LayerCount: 2
Fore
SplineSet
266 399 m 0
 266 440 316 563 316 627 c 0
 316 683 282 710 207 710 c 1
 217 746 l 1x50
 311 742 351 707 351 637 c 0
 351 570 301 448 301 410 c 0
 301 362 327 344 377 331 c 1
 369 296 l 1
 277 271 255 238 240 162 c 0
 231 118 224 64 212 27 c 0
 179 -74 125 -121 11 -126 c 1
 17 -90 l 1
 126 -85 168 -37 187 55 c 0
 194 89 201 138 208 170 c 0
 227 258 258 289 330 312 c 1
 296 324 266 347 266 399 c 0
EndSplineSet
Substitution2: "'case' Case-Sensitive Forms in Lateinisch lookup 4 subtable" braceright.cap
EndChar

StartChar: cent
Encoding: 162 162 242
Width: 560
Flags: MW
HStem: 50 26 425 165<347 453>
VStem: 162 38
LayerCount: 2
Fore
SplineSet
261 -84 m 1
 291 41 l 1
 153 41 148 143 175 247 c 0
 211 386 287 457 389 459 c 1
 420 590 l 1
 453 590 l 1
 422 460 l 1
 465 458 529 450 529 450 c 1
 519 415 l 1
 519 415 430 425 394 425 c 0
 300 425 239 353 213 247 c 0
 190 155 184 76 312 76 c 0
 357 76 446 84 446 84 c 1
 437 50 l 1
 437 50 366 42 325 43 c 1
 295 -84 l 1
 261 -84 l 1
EndSplineSet
EndChar

StartChar: quoteleft
Encoding: 8216 8216 243
Width: 185
Flags: MW
HStem: 498 202<171 291 171 291>
VStem: 171 120
LayerCount: 2
Fore
SplineSet
264 700 m 1
 291 700 l 1
 209 498 l 1
 171 498 l 1
 264 700 l 1
EndSplineSet
EndChar

StartChar: quoteright
Encoding: 8217 8217 244
Width: 185
Flags: MW
HStem: 498 202<174 294 174 294>
VStem: 174 120
LayerCount: 2
Fore
SplineSet
201 498 m 1
 174 498 l 1
 256 700 l 1
 294 700 l 1
 201 498 l 1
EndSplineSet
EndChar

StartChar: divide
Encoding: 247 247 245
Width: 560
Flags: MW
HStem: 39 80<319 357 319 357> 234 34<116 560 116 560> 383 80<319 357 319 357>
VStem: 319 38<39 119 39 119 383 463>
LayerCount: 2
Fore
SplineSet
116 234 m 1
 116 268 l 1
 560 268 l 1
 560 234 l 1
 116 234 l 1
319 383 m 1
 319 463 l 1
 357 463 l 1
 357 383 l 1
 319 383 l 1
319 39 m 1
 319 119 l 1
 357 119 l 1
 357 39 l 1
 319 39 l 1
EndSplineSet
EndChar

StartChar: Euro
Encoding: 8364 8364 246
Width: 560
Flags: MW
HStem: -9 33<283 366> 227 32<114 155 106 158 194 497> 389 32<151 186 143 197 151 223 235 534> 638 32<420 512>
VStem: 153 36<127 187.5 127 187.5> 158 36<259 259>
LayerCount: 2
Fore
SplineSet
487 42 m 1xf8
 486 10 l 1
 486 10 404 -9 328 -9 c 0
 211 -9 153 56 153 180 c 0
 153 195 154 211 155 227 c 1
 106 227 l 1
 114 259 l 1xf8
 158 259 l 1
 163 302 172 346 186 389 c 1
 143 389 l 1
 151 421 l 1
 197 421 l 1
 247 556 341 670 482 670 c 0
 555 670 636 652 636 652 c 1
 629 622 l 1
 629 622 546 638 478 638 c 0
 362 638 281 540 235 421 c 1
 541 421 l 1
 534 389 l 1
 223 389 l 1
 209 346 199 302 194 259 c 1xf4
 504 259 l 1
 497 227 l 1
 191 227 l 1
 189 211 189 195 189 180 c 0
 189 74 233 24 333 24 c 0
 408 24 487 42 487 42 c 1xf8
EndSplineSet
EndChar

StartChar: ampersand
Encoding: 38 38 247
Width: 631
Flags: MW
HStem: -9 34<217.5 302.5 217.5 309> -3 21G<598 598> 677 32<401 474.5>
VStem: 83 38<99.5 202.5 99.5 213> 271 38<489 554.5 489 567> 534 38<558 631.5>
LayerCount: 2
Fore
SplineSet
451 709 m 0xbc
 523 709 572 680 572 605 c 0
 572 494 490 418 362 371 c 1
 496 185 l 1
 518 223 543 272 562 329 c 1
 600 329 l 1
 578 260 547 200 520 156 c 1
 623 21 l 1
 598 -3 l 1x7c
 499 125 l 1
 431 35 358 -9 260 -9 c 0
 144 -9 83 33 83 142 c 0
 83 284 142 357 295 413 c 1
 279 448 271 469 271 507 c 0
 271 627 335 709 451 709 c 0xbc
260 25 m 0
 345 25 419 69 476 154 c 1
 312 383 l 1
 170 333 121 263 121 142 c 0
 121 57 175 25 260 25 c 0
309 507 m 0
 309 471 320 435 345 399 c 1
 477 449 534 511 534 605 c 0
 534 658 501 677 448 677 c 0
 354 677 309 602 309 507 c 0
EndSplineSet
EndChar

StartChar: asterisk
Encoding: 42 42 248
Width: 407
Flags: MW
HStem: 519 34<345 480 345 480 343 480>
VStem: 182 298<458 519>
LayerCount: 2
Fore
SplineSet
480 519 m 1
 343 519 l 1
 385 390 l 1
 353 380 l 1
 311 510 l 1
 201 431 l 1
 182 458 l 1
 292 538 l 1
 183 618 l 1
 203 645 l 1
 313 564 l 1
 355 693 l 1
 387 683 l 1
 345 553 l 1
 480 553 l 1
 480 519 l 1
EndSplineSet
EndChar

StartChar: sterling
Encoding: 163 163 249
Width: 560
Flags: MW
HStem: 0 33<91 187 224 393 83 187> 373 33<200 264 192 272 308 519 200 300> 646 33<412.5 487.5> 668 21G<596 596>
VStem: 83 513
LayerCount: 2
Fore
SplineSet
596 668 m 1xd8
 589 638 l 1
 589 638 515 646 460 646 c 0
 365 646 348 571 322 464 c 2
 308 406 l 1
 527 406 l 1
 519 373 l 1
 300 373 l 1
 224 33 l 1
 393 33 l 1
 474 49 l 1
 474 18 l 1
 393 0 l 1
 83 0 l 1
 91 33 l 1
 187 33 l 1
 264 373 l 1
 192 373 l 1
 200 406 l 1
 272 406 l 1
 286 468 l 2
 315 593 343 679 468 679 c 0xe8
 523 679 596 668 596 668 c 1xd8
EndSplineSet
EndChar

StartChar: paragraph
Encoding: 182 182 250
Width: 551
Flags: MW
HStem: 0 21G<210 244 210 210 388 422 388 388> 664 36<403 546 403 403 580 580 580 672>
VStem: 149 530<447 700>
LayerCount: 2
Fore
SplineSet
388 0 m 1
 546 664 l 1
 403 664 l 1
 244 0 l 1
 210 0 l 1
 295 349 l 1
 192 350 149 413 149 481 c 0
 149 581 241 700 370 700 c 2
 679 700 l 1
 672 664 l 1
 580 664 l 1
 422 0 l 1
 388 0 l 1
EndSplineSet
EndChar

StartChar: dagger
Encoding: 8224 8224 251
Width: 438
Flags: MW
HStem: 461 37
VStem: 135 388<460 498>
LayerCount: 2
Fore
SplineSet
135 460 m 1
 144 498 l 1
 315 496 l 1
 363 698 l 1
 396 698 l 1
 350 498 l 1
 523 498 l 1
 513 460 l 1
 340 462 l 1
 213 -78 l 1
 180 -78 l 1
 306 460 l 1
 135 460 l 1
EndSplineSet
EndChar

StartChar: percent
Encoding: 37 37 252
Width: 560
Flags: MW
HStem: 0 32<397.5 445> 240 32<451 499> 430 32<224.5 271> 670 32<278 326>
VStem: 164 36 338 35 351 35 524 36
LayerCount: 2
Fore
SplineSet
301 670 m 0xfb
 252 670 224 636 207 569 c 0
 190 501 200 462 249 462 c 0
 299 462 326 500 343 568 c 0
 360 636 351 670 301 670 c 0xfb
186 6 m 1
 503 701 l 1
 535 696 l 1
 218 1 l 1
 186 6 l 1
172 569 m 0
 196 664 247 702 309 702 c 0
 370 702 402 664 378 568 c 0
 354 472 301 430 241 430 c 0
 180 430 148 472 172 569 c 0
346 139 m 0xfd
 370 234 420 272 482 272 c 0
 543 272 576 234 552 138 c 0
 528 42 475 0 415 0 c 0
 354 0 322 42 346 139 c 0xfd
381 139 m 0
 364 70 373 32 422 32 c 0
 472 32 500 70 517 138 c 0
 534 206 524 240 474 240 c 0
 425 240 398 206 381 139 c 0
EndSplineSet
EndChar

StartChar: plus
Encoding: 43 43 253
Width: 560
Flags: MW
HStem: 234 34<117 319 117 319 355 559>
VStem: 319 36<20 234 20 234 268 480>
LayerCount: 2
Fore
SplineSet
117 234 m 1
 117 268 l 1
 319 268 l 1
 319 480 l 1
 355 480 l 1
 355 268 l 1
 559 268 l 1
 559 234 l 1
 355 234 l 1
 355 20 l 1
 319 20 l 1
 319 234 l 1
 117 234 l 1
EndSplineSet
EndChar

StartChar: asciicircum
Encoding: 94 94 254
Width: 560
Flags: MW
HStem: 624 36<355 355>
VStem: 157 405<323 323>
LayerCount: 2
Fore
SplineSet
522 323 m 1
 355 624 l 1
 197 323 l 1
 157 323 l 1
 337 660 l 1
 373 660 l 1
 562 323 l 1
 522 323 l 1
EndSplineSet
EndChar

StartChar: quotedblright
Encoding: 8221 8221 255
Width: 322
Flags: MW
HStem: 498 202<174 294 174 294 256 311 256 338>
VStem: 174 257<498 700>
LayerCount: 2
Fore
SplineSet
201 498 m 1
 174 498 l 1
 256 700 l 1
 294 700 l 1
 201 498 l 1
338 498 m 1
 311 498 l 1
 393 700 l 1
 431 700 l 1
 338 498 l 1
EndSplineSet
EndChar

StartChar: zerosuperior
Encoding: 8304 8304 256
Width: 280
Flags: MW
HStem: 469 34<229 258.5> 765 34<311.5 343.5>
VStem: 162 37 371 38
LayerCount: 2
Fore
SplineSet
326 799 m 0
 393 799 428 758 398 635 c 0
 380 564 355 519 324 494 c 0
 300 475 273 469 244 469 c 0
 177 469 143 513 173 636 c 0
 191 706 216 751 247 775 c 0
 270 793 297 799 326 799 c 0
317 765 m 0
 266 765 233 727 210 635 c 0
 185 536 205 503 253 503 c 0
 301 503 336 536 361 636 c 0
 383 725 370 765 317 765 c 0
EndSplineSet
Substitution2: "Single Substitution lookup 5 subtable" zeroinferior
EndChar

StartChar: onesuperior
Encoding: 185 185 257
Width: 280
Flags: MW
HStem: 478 312<249 362 249 362>
VStem: 211 151<723 790>
LayerCount: 2
Fore
SplineSet
211 723 m 1
 326 790 l 1
 362 790 l 1
 285 478 l 1
 249 478 l 1
 317 751 l 1
 221 695 l 1
 211 723 l 1
EndSplineSet
Substitution2: "Single Substitution lookup 5 subtable" oneinferior
EndChar

StartChar: twosuperior
Encoding: 178 178 258
Width: 280
Flags: MW
HStem: 478 34<155 155 202 342 147 155> 765 34<302 329>
VStem: 147 250 223 174
LayerCount: 2
Fore
SplineSet
342 478 m 1xe0
 147 478 l 1
 155 512 l 1
 279 616 l 2
 316 647 348 675 358 715 c 0
 367 751 345 765 313 765 c 0
 279 765 220 753 220 753 c 1
 226 786 l 1
 226 786 281 799 323 799 c 0
 383 799 408 771 394 714 c 0
 382 667 348 634 298 593 c 2xd0
 202 512 l 1
 350 512 l 1
 342 478 l 1xe0
EndSplineSet
Substitution2: "Single Substitution lookup 5 subtable" twoinferior
EndChar

StartChar: threesuperior
Encoding: 179 179 259
Width: 280
Flags: MW
HStem: 469 34<233 280 233 280.5> 622 34<234 291 226 299> 765 34<304.5 341>
VStem: 223.5 182.5 338 40
LayerCount: 2
Fore
SplineSet
226 788 m 1xf0
 226 788 282 799 327 799 c 0
 392 799 417 775 403 719 c 0xf0
 388 662 340 643 335 641 c 1
 368 631 387 619 373 562 c 0
 357 498 312 469 249 469 c 0
 200 469 145 480 145 480 c 1
 156 512 l 1
 156 512 208 503 258 503 c 0
 302 503 327 527 335 561 c 0
 347 607 325 622 291 622 c 2xe8
 226 622 l 1
 234 656 l 1
 299 656 l 2
 321 656 357 684 366 719 c 0
 373 749 363 765 319 765 c 0
 273 765 221 756 221 756 c 1
 226 788 l 1xf0
EndSplineSet
Substitution2: "Single Substitution lookup 5 subtable" threeinferior
EndChar

StartChar: foursuperior
Encoding: 8308 8308 260
Width: 280
Flags: MW
HStem: 535 34<204 300 204 336 344 373>
VStem: 154 227<535 569>
LayerCount: 2
Fore
SplineSet
286 478 m 1
 300 535 l 1
 154 535 l 1
 162 567 l 1
 306 790 l 1
 346 790 l 1
 204 569 l 1
 308 569 l 1
 330 656 l 1
 366 656 l 1
 344 569 l 1
 381 569 l 1
 373 535 l 1
 336 535 l 1
 322 478 l 1
 286 478 l 1
EndSplineSet
Substitution2: "Single Substitution lookup 5 subtable" fourinferior
EndChar

StartChar: fivesuperior
Encoding: 8309 8309 261
Width: 280
Flags: MW
HStem: 469 35<237.5 276.5 237.5 279.5> 640 35<285.5 315> 755 35<269 409 269 269>
VStem: 343 39
LayerCount: 2
Fore
SplineSet
243 790 m 1
 417 790 l 1
 409 755 l 1
 269 755 l 1
 236 653 l 1
 236 653 264 675 307 675 c 0
 359 675 396 648 378 576 c 0
 357 495 309 469 250 469 c 0
 205 469 154 481 154 481 c 1
 166 516 l 1
 166 516 216 504 259 504 c 0
 294 504 327 528 339 576 c 0
 352 626 332 640 298 640 c 0
 258 640 223 618 223 618 c 1
 192 620 l 1
 243 790 l 1
EndSplineSet
Substitution2: "Single Substitution lookup 5 subtable" fiveinferior
EndChar

StartChar: sixsuperior
Encoding: 8310 8310 262
Width: 280
Flags: MW
HStem: 469 34<232 283.5 232 285.5> 646 34<292 321> 765 34<306.5 351>
VStem: 171 37 349 37
LayerCount: 2
Fore
SplineSet
418 790 m 1
 408 758 l 1
 408 758 370 765 332 765 c 0
 281 765 248 738 227 661 c 1
 246 669 279 680 305 680 c 0
 375 680 397 640 382 579 c 0
 364 509 322 469 249 469 c 0
 181 469 153 519 182 635 c 0
 213 761 266 799 341 799 c 0
 378 799 418 790 418 790 c 1
296 646 m 0
 259 646 217 625 217 624 c 0
 199 547 206 503 258 503 c 0
 309 503 333 537 344 579 c 0
 356 629 346 646 296 646 c 0
EndSplineSet
Substitution2: "Single Substitution lookup 5 subtable" sixinferior
EndChar

StartChar: sevensuperior
Encoding: 8311 8311 263
Width: 280
Flags: MW
HStem: 756 34<210 412 218 364>
VStem: 182 230
LayerCount: 2
Fore
SplineSet
210 756 m 1
 218 790 l 1
 412 790 l 1
 397 729 l 1
 221 470 l 1
 182 481 l 1
 358 731 l 1
 364 756 l 1
 210 756 l 1
EndSplineSet
Substitution2: "Single Substitution lookup 5 subtable" seveninferior
EndChar

StartChar: eightsuperior
Encoding: 8312 8312 264
Width: 280
Flags: MW
HStem: 469 34<230 277.5 230 277.5> 623 37<274 301 265 310> 765 34<292.5 343.5>
VStem: 195 190
LayerCount: 2
Fore
SplineSet
327 799 m 0
 397 799 428 772 414 717 c 0
 404 674 386 654 340 641 c 1
 377 629 393 611 381 563 c 0
 361 486 311 469 244 469 c 0
 180 469 138 493 153 557 c 0
 167 611 193 628 236 642 c 1
 201 656 188 674 198 717 c 0
 213 777 256 799 327 799 c 0
253 503 m 0
 302 503 332 519 343 562 c 0
 352 601 338 613 301 623 c 1
 265 623 l 1
 224 613 202 601 192 558 c 0
 182 519 207 503 253 503 c 0
318 765 m 0
 267 765 244 749 236 717 c 0
 228 683 239 672 274 660 c 1
 310 660 l 1
 353 671 368 683 376 716 c 0
 384 749 369 765 318 765 c 0
EndSplineSet
Substitution2: "Single Substitution lookup 5 subtable" eightinferior
EndChar

StartChar: ninesuperior
Encoding: 8313 8313 265
Width: 280
Flags: MW
HStem: 469 34<222.5 269.5 222.5 274.5> 589 34<256 285> 765 34<296 343.5>
VStem: 189 39 368 36
LayerCount: 2
Fore
SplineSet
153 479 m 1
 164 510 l 1
 164 510 204 503 241 503 c 0
 298 503 332 537 351 606 c 1
 351 606 303 589 267 589 c 0
 205 589 177 631 193 694 c 0
 209 762 260 799 326 799 c 0
 397 799 421 744 393 631 c 0
 362 507 317 469 232 469 c 0
 195 469 153 479 153 479 c 1
277 623 m 0
 310 623 360 644 360 644 c 1
 377 720 370 765 317 765 c 0
 275 765 243 742 231 695 c 0
 221 654 235 623 277 623 c 0
EndSplineSet
Substitution2: "Single Substitution lookup 5 subtable" nineinferior
EndChar

StartChar: questiondown
Encoding: 191 191 266
Width: 391
Flags: MW
HStem: -208 34<142.5 205> 418 82<322 341 304 358>
VStem: 21 38<-122.5 -50 -122.5 -42.5>
LayerCount: 2
Fore
SplineSet
21 -94 m 0
 21 9 58 44 194 155 c 0
 249 200 275 238 282 274 c 2
 290 313 l 1
 324 313 l 1
 324 313 322 291 318 270 c 0
 308 219 274 176 212 126 c 0
 94 30 59 -6 59 -94 c 0
 59 -151 106 -174 179 -174 c 0
 233 -174 324 -152 324 -152 c 1
 324 -184 l 1
 324 -184 237 -208 173 -208 c 0
 88 -208 21 -177 21 -94 c 0
358 500 m 1
 341 418 l 1
 304 418 l 1
 322 500 l 1
 358 500 l 1
EndSplineSet
Substitution2: "'case' Case-Sensitive Forms in Lateinisch lookup 4 subtable" questiondown.cap
EndChar

StartChar: questiondown.cap
Encoding: 65550 -1 267
Width: 402
Flags: MW
HStem: -9 34<192.5 255> 617 82<372 391 354 408>
VStem: 71 38<76.5 149 76.5 156.5>
LayerCount: 2
Fore
SplineSet
71 105 m 0
 71 208 108 243 244 354 c 0
 299 399 325 437 332 473 c 2
 340 512 l 1
 374 512 l 1
 374 512 372 490 368 469 c 0
 358 418 324 375 262 325 c 0
 144 229 109 193 109 105 c 0
 109 48 156 25 229 25 c 0
 283 25 374 47 374 47 c 1
 374 15 l 1
 374 15 287 -9 223 -9 c 0
 138 -9 71 22 71 105 c 0
408 699 m 1
 391 617 l 1
 354 617 l 1
 372 699 l 1
 408 699 l 1
EndSplineSet
EndChar

StartChar: ellipsis
Encoding: 8230 8230 268
Width: 658
Flags: MW
HStem: 0 83<73 128 92 109 333 350 569 586>
VStem: 73 532<0 83>
LayerCount: 2
Fore
SplineSet
73 0 m 1
 92 83 l 1
 128 83 l 1
 109 0 l 1
 73 0 l 1
314 0 m 1
 333 83 l 1
 369 83 l 1
 350 0 l 1
 314 0 l 1
550 0 m 1
 569 83 l 1
 605 83 l 1
 586 0 l 1
 550 0 l 1
EndSplineSet
EndChar

StartChar: endash.cap
Encoding: 65551 -1 269
Width: 639
Flags: MW
HStem: 282 34<138 638 138 638>
VStem: 138 500<282 316 282 316>
LayerCount: 2
Fore
SplineSet
138 316 m 1
 638 316 l 1
 638 282 l 1
 138 282 l 1
 138 316 l 1
EndSplineSet
Position2: "'cpsp' Capital Spacing in Lateinisch lookup 0 subtable" dx=5 dy=0 dh=10 dv=0
EndChar

StartChar: emdash.cap
Encoding: 65552 -1 270
Width: 1139
Flags: MW
HStem: 282 34<138 1138 138 1138>
VStem: 138 1000<282 316 282 316>
LayerCount: 2
Fore
SplineSet
138 316 m 1
 1138 316 l 1
 1138 282 l 1
 138 282 l 1
 138 316 l 1
EndSplineSet
Position2: "'cpsp' Capital Spacing in Lateinisch lookup 0 subtable" dx=5 dy=0 dh=10 dv=0
EndChar

StartChar: periodcentered
Encoding: 183 183 271
Width: 182
Flags: MW
HStem: 270 83<134 190 152 172>
VStem: 134 56
LayerCount: 2
Fore
SplineSet
134 270 m 1
 152 353 l 1
 190 353 l 1
 172 270 l 1
 134 270 l 1
EndSplineSet
Substitution2: "'case' Case-Sensitive Forms in Lateinisch lookup 4 subtable" periodcentered.cap
EndChar

StartChar: periodcentered.cap
Encoding: 65553 -1 272
Width: 182
Flags: MW
HStem: 300 83<141 197 159 179>
VStem: 141 56
LayerCount: 2
Fore
SplineSet
141 300 m 1
 159 383 l 1
 197 383 l 1
 179 300 l 1
 141 300 l 1
EndSplineSet
Position2: "'cpsp' Capital Spacing in Lateinisch lookup 0 subtable" dx=5 dy=0 dh=10 dv=0
EndChar

StartChar: currency
Encoding: 164 164 273
Width: 560
Flags: MW
HStem: 82 37 385 37
VStem: 167 37 470 37
LayerCount: 2
Fore
SplineSet
514 49 m 1
 444 120 l 1
 382 69 292 69 230 120 c 1
 160 49 l 1
 134 75 l 1
 205 145 l 1
 154 207 154 297 205 359 c 1
 134 429 l 1
 160 455 l 1
 230 384 l 1
 292 435 382 435 444 384 c 1
 514 455 l 1
 540 429 l 1
 469 359 l 1
 520 297 520 207 469 145 c 1
 540 75 l 1
 514 49 l 1
242 157 m 0
 294 106 380 106 432 157 c 0
 483 209 483 295 432 347 c 0
 380 398 294 398 242 347 c 0
 191 295 191 209 242 157 c 0
EndSplineSet
EndChar

StartChar: perthousand
Encoding: 8240 8240 274
Width: 805
Flags: MW
HStem: 0 32<390.5 438 648.5 696> 240 32<444 492 702 750> 461 208<218.5 320> 701 21G<272 333.5 521 521>
VStem: 194 151 331 35 517 36 589 35 775 36
LayerCount: 2
Fore
SplineSet
295 669 m 0xb8
 345 669 355 635 338 567 c 0
 321 499 293 461 243 461 c 0
 194 461 185 500 202 568 c 0
 219 635 246 669 295 669 c 0xb8
164 8 m 1
 521 701 l 1
 552 693 l 1
 195 1 l 1
 164 8 l 1
167 568 m 0
 143 471 174 429 235 429 c 0
 295 429 349 471 373 567 c 0
 397 663 364 701 303 701 c 0
 241 701 191 663 167 568 c 0
339 139 m 0xc780
 363 234 413 272 475 272 c 0
 536 272 569 234 545 138 c 0
 521 42 468 0 408 0 c 0
 347 0 315 42 339 139 c 0xc780
374 139 m 0
 357 70 366 32 415 32 c 0
 465 32 493 70 510 138 c 0
 527 206 517 240 467 240 c 0
 418 240 391 206 374 139 c 0
597 139 m 0
 621 234 671 272 733 272 c 0
 794 272 827 234 803 138 c 0
 779 42 726 0 666 0 c 0
 605 0 573 42 597 139 c 0
632 139 m 0
 615 70 624 32 673 32 c 0
 723 32 751 70 768 138 c 0
 785 206 775 240 725 240 c 0
 676 240 649 206 632 139 c 0
EndSplineSet
EndChar

StartChar: lessequal
Encoding: 8804 8804 275
Width: 560
Flags: MW
HStem: 24 34<109 533 109 533>
VStem: 109 46<309 309 309 326 309 326>
LayerCount: 2
Fore
SplineSet
533 446 m 1
 155 309 l 1
 533 161 l 1
 533 122 l 1
 109 290 l 1
 109 326 l 1
 533 485 l 1
 533 446 l 1
109 24 m 1
 109 58 l 1
 533 58 l 1
 533 24 l 1
 109 24 l 1
EndSplineSet
EndChar

StartChar: greaterequal
Encoding: 8805 8805 276
Width: 560
Flags: MW
HStem: 24 34<124 548 124 548>
VStem: 502 46<309 309>
LayerCount: 2
Fore
SplineSet
502 309 m 1
 124 446 l 1
 124 485 l 1
 548 326 l 1
 548 290 l 1
 124 122 l 1
 124 161 l 1
 502 309 l 1
548 58 m 1
 548 24 l 1
 124 24 l 1
 124 58 l 1
 548 58 l 1
EndSplineSet
EndChar

StartChar: logicalnot
Encoding: 172 172 277
Width: 560
Flags: MW
HStem: 298 34<130 516 130 552>
VStem: 516 36<126 298 298 298>
LayerCount: 2
Fore
SplineSet
130 332 m 1
 552 332 l 1
 552 126 l 1
 516 126 l 1
 516 298 l 1
 130 298 l 1
 130 332 l 1
EndSplineSet
EndChar

StartChar: Delta
Encoding: 8710 8710 278
Width: 560
Flags: MW
HStem: 0 34<127 486 127 528> 626 34<294 319 294 294>
VStem: 87 441<0 26 0 26>
LayerCount: 2
Fore
SplineSet
87 26 m 1
 269 660 l 1
 345 660 l 1
 527 26 l 1
 528 0 l 1
 87 0 l 1
 87 26 l 1
319 626 m 1
 294 626 l 1
 127 34 l 1
 486 34 l 1
 319 626 l 1
EndSplineSet
EndChar

StartChar: Omega
Encoding: 8486 8486 279
Width: 560
Flags: MW
HStem: -9 34<88 237 88 277 88 237 416 566> 636 34<251.5 401.5>
VStem: 118 38<310 450 309 467> 498 38<310 450>
LayerCount: 2
Fore
SplineSet
88 25 m 1
 237 25 l 1
 237 25 118 250 118 370 c 0
 118 564 154 670 327 670 c 0
 500 670 536 564 536 370 c 0
 536 250 416 25 416 25 c 1
 566 25 l 1
 566 -9 l 1
 377 -9 l 1
 377 20 l 1
 377 20 498 258 498 360 c 0
 498 540 476 636 327 636 c 0
 176 636 156 540 156 360 c 0
 156 258 277 20 277 20 c 1
 277 -9 l 1
 88 -9 l 1
 88 25 l 1
EndSplineSet
EndChar

StartChar: oslashacute
Encoding: 511 511 280
Width: 493
Flags: MW
HStem: -9 32<239 318 239 328.5> 477 32<285.5 363.5> 700 21G<509 509> 710 20G<503 503>
VStem: 99 36<120 229 120 242.5> 471 36<262 370>
LayerCount: 2
Fore
SplineSet
349 509 m 0xdc
 385 509 415 502 439 489 c 1
 510 604 l 1
 537 592 l 1
 462 473 l 1
 492 447 507 406 507 352 c 0
 507 150 405 -9 252 -9 c 0
 219 -9 191 -4 169 6 c 1
 95 -113 l 1
 68 -102 l 1
 145 20 l 1
 114 44 99 83 99 139 c 0
 99 346 207 509 349 509 c 0xdc
165 52 m 1
 293 255 l 1
 420 459 l 1
 401 470 378 477 349 477 c 0
 222 477 135 319 135 139 c 0
 135 101 145 71 165 52 c 1
252 23 m 0
 384 23 471 172 471 352 c 0
 471 388 461 419 442 441 c 1
 316 242 l 1
 188 36 l 1
 205 27 226 23 252 23 c 0
305 610 m 1xec
 300 635 l 1xec
 503 730 l 1xdc
 509 700 l 1
 305 610 l 1xec
EndSplineSet
EndChar

StartChar: exclamdown
Encoding: 161 161 281
Width: 189
Flags: MW
HStem: 417 83<188 205 169 224>
VStem: 32 192
LayerCount: 2
Fore
SplineSet
178 289 m 1
 65 -200 l 1
 32 -200 l 1
 150 289 l 1
 178 289 l 1
224 500 m 1
 205 417 l 1
 169 417 l 1
 188 500 l 1
 224 500 l 1
EndSplineSet
Substitution2: "'case' Case-Sensitive Forms in Lateinisch lookup 4 subtable" exclamdown.cap
EndChar

StartChar: exclamdown.cap
Encoding: 65554 -1 282
Width: 206
Flags: MW
HStem: 0 21G<87 120 87 87> 617 83<243 260 224 279>
VStem: 87 192
LayerCount: 2
Fore
SplineSet
233 489 m 1
 120 0 l 1
 87 0 l 1
 205 489 l 1
 233 489 l 1
279 700 m 1
 260 617 l 1
 224 617 l 1
 243 700 l 1
 279 700 l 1
EndSplineSet
EndChar

StartChar: quotesinglbase
Encoding: 8218 8218 283
Width: 187
Flags: MW
HStem: -114 202<20 140 20 140>
VStem: 20 120
LayerCount: 2
Fore
SplineSet
47 -114 m 1
 20 -114 l 1
 102 88 l 1
 140 88 l 1
 47 -114 l 1
EndSplineSet
EndChar

StartChar: parenleft.cap
Encoding: 65555 -1 284
Width: 221
Flags: MW
HStem: -94 872<124 363 124 363>
VStem: 108 35<60 287 60 296>
LayerCount: 2
Fore
SplineSet
328 778 m 1
 363 778 l 1
 363 778 143 443 143 131 c 0
 143 -11 157 -94 157 -94 c 1
 124 -94 l 1
 124 -94 108 -15 108 131 c 0
 108 461 328 778 328 778 c 1
EndSplineSet
Position2: "'cpsp' Capital Spacing in Lateinisch lookup 0 subtable" dx=5 dy=0 dh=10 dv=0
EndChar

StartChar: parenright.cap
Encoding: 65556 -1 285
Width: 223
Flags: MW
HStem: -88 872<19 258 19 258>
VStem: 239 35<403 630>
LayerCount: 2
Fore
SplineSet
54 -88 m 1
 19 -88 l 1
 19 -88 239 247 239 559 c 0
 239 701 225 784 225 784 c 1
 258 784 l 1
 258 784 274 705 274 559 c 0
 274 229 54 -88 54 -88 c 1
EndSplineSet
Position2: "'cpsp' Capital Spacing in Lateinisch lookup 0 subtable" dx=5 dy=0 dh=10 dv=0
EndChar

StartChar: bracketleft.cap
Encoding: 65557 -1 286
Width: 297
Flags: MW
HStem: -92 33<100 230> 744 33<289 428 289 289>
VStem: 58 377
LayerCount: 2
Fore
SplineSet
262 777 m 1
 435 777 l 1
 428 744 l 1
 289 744 l 1
 100 -59 l 1
 239 -59 l 1
 230 -92 l 1
 58 -92 l 1
 262 777 l 1
EndSplineSet
Position2: "'cpsp' Capital Spacing in Lateinisch lookup 0 subtable" dx=5 dy=0 dh=10 dv=0
EndChar

StartChar: bracketright.cap
Encoding: 65558 -1 287
Width: 295
Flags: MW
HStem: -91 33<26 165 26 192 19 165> 745 33<224 354 215 396>
VStem: 19 377
LayerCount: 2
Fore
SplineSet
192 -91 m 1
 19 -91 l 1
 26 -58 l 1
 165 -58 l 1
 354 745 l 1
 215 745 l 1
 224 778 l 1
 396 778 l 1
 192 -91 l 1
EndSplineSet
Position2: "'cpsp' Capital Spacing in Lateinisch lookup 0 subtable" dx=5 dy=0 dh=10 dv=0
EndChar

StartChar: braceleft.cap
Encoding: 65559 -1 288
Width: 330
Flags: MW
HStem: -93 36<263 263> 743 36<463 469>
VStem: 129 35<-2 49.5> 179 35<233.5 267>
LayerCount: 2
Fore
SplineSet
214 254 m 0
 214 213 164 90 164 26 c 0
 164 -30 198 -57 273 -57 c 1
 263 -93 l 1xa0
 169 -89 129 -54 129 16 c 0
 129 83 179 205 179 243 c 0
 179 291 153 309 103 322 c 1
 111 357 l 1
 203 382 225 415 240 491 c 0
 249 535 256 589 268 626 c 0
 301 727 355 774 469 779 c 1
 463 743 l 1
 354 738 312 690 293 598 c 0
 286 564 279 515 272 483 c 0
 253 395 222 364 150 341 c 1
 184 329 214 306 214 254 c 0
EndSplineSet
Position2: "'cpsp' Capital Spacing in Lateinisch lookup 0 subtable" dx=5 dy=0 dh=10 dv=0
EndChar

StartChar: braceright.cap
Encoding: 65560 -1 289
Width: 331
Flags: MW
HStem: -96 36<19 25> 740 36<225 225 225 252.5>
VStem: 274 35<416 449.5> 324 35<633.5 685>
LayerCount: 2
Fore
SplineSet
274 429 m 0
 274 470 324 593 324 657 c 0
 324 713 290 740 215 740 c 1
 225 776 l 1x50
 319 772 359 737 359 667 c 0
 359 600 309 478 309 440 c 0
 309 392 335 374 385 361 c 1
 377 326 l 1
 285 301 263 268 248 192 c 0
 239 148 232 94 220 57 c 0
 187 -44 133 -91 19 -96 c 1
 25 -60 l 1
 134 -55 176 -7 195 85 c 0
 202 119 209 168 216 200 c 0
 235 288 266 319 338 342 c 1
 304 354 274 377 274 429 c 0
EndSplineSet
Position2: "'cpsp' Capital Spacing in Lateinisch lookup 0 subtable" dx=5 dy=0 dh=10 dv=0
EndChar

StartChar: grave.cap
Encoding: 65561 -1 290
Width: 475
Flags: MW
HStem: 798 119
VStem: 352 177<820 890>
LayerCount: 2
Fore
SplineSet
369 917 m 1
 529 820 l 1
 514 798 l 1
 352 890 l 1
 369 917 l 1
EndSplineSet
EndChar

StartChar: caron.cap
Encoding: 65562 -1 291
Width: 424
Flags: MW
HStem: 803 29<404 404 404 409 392 404>
VStem: 292 272<931 931>
LayerCount: 2
Fore
SplineSet
564 931 m 1
 409 803 l 1
 392 803 l 1
 292 931 l 1
 327 931 l 1
 404 832 l 1
 524 931 l 1
 564 931 l 1
EndSplineSet
EndChar

StartChar: tilde.cap
Encoding: 65563 -1 292
Width: 418
Flags: MW
HStem: 829 31<489.5 511> 893 30<353.5 376.5>
VStem: 272 316<866 886>
LayerCount: 2
Fore
SplineSet
584 911 m 1
 588 886 l 1
 588 886 525 829 497 829 c 0
 457 829 391 893 362 893 c 0
 342 893 273 838 273 838 c 1
 272 866 l 1
 272 866 338 923 369 923 c 0
 411 923 474 860 505 860 c 0
 522 860 584 911 584 911 c 1
EndSplineSet
EndChar

StartChar: dieresis.cap
Encoding: 65564 -1 293
Width: 372
Flags: MW
HStem: 831 66<304 348 318 331 499 512>
VStem: 304 224<831 897>
LayerCount: 2
Fore
SplineSet
304 831 m 1
 318 897 l 1
 348 897 l 1
 331 831 l 1
 304 831 l 1
483 831 m 1
 499 897 l 1
 528 897 l 1
 512 831 l 1
 483 831 l 1
EndSplineSet
EndChar

StartChar: macron.cap
Encoding: 65565 -1 294
Width: 424
Flags: MW
HStem: 835 26<273 550 278 543>
VStem: 273 277<835 861>
LayerCount: 2
Fore
SplineSet
273 835 m 1
 278 861 l 1
 550 861 l 1
 543 835 l 1
 273 835 l 1
EndSplineSet
EndChar

StartChar: breve.cap
Encoding: 65566 -1 295
Width: 424
Flags: MW
HStem: 804 30<379 432 379 435>
VStem: 299 33
LayerCount: 2
Fore
SplineSet
302 921 m 1
 332 921 l 1
 320 853 352 834 406 834 c 0
 458 834 509 868 522 921 c 1
 552 921 l 1
 533 845 471 804 399 804 c 0
 325 804 287 840 302 921 c 1
EndSplineSet
EndChar

StartChar: ring.cap
Encoding: 65567 -1 296
Width: 300
Flags: MW
HStem: 729 29<306 346.5 306 350> 877 29<337 375.5>
VStem: 251 181
LayerCount: 2
Fore
SplineSet
428 817 m 0
 415 765 380 729 320 729 c 0
 265 729 240 764 255 817 c 0
 271 876 310 906 363 906 c 0
 414 906 443 879 428 817 c 0
281 817 m 0
 274 785 285 758 327 758 c 0
 366 758 393 779 402 817 c 0
 410 853 395 877 356 877 c 0
 318 877 291 856 281 817 c 0
EndSplineSet
EndChar

StartChar: hungarumlaut.cap
Encoding: 65568 -1 297
Width: 651
Flags: MW
HStem: 765 111<500 518>
VStem: 315 388<789 852>
LayerCount: 2
Fore
SplineSet
500 765 m 1
 496 789 l 1
 695 875 l 1
 703 852 l 1
 500 765 l 1
321 766 m 1
 315 789 l 1
 518 876 l 1
 522 852 l 1
 321 766 l 1
EndSplineSet
EndChar

StartChar: dotaccent.cap
Encoding: 65569 -1 298
Width: 204
Flags: MW
HStem: 807 58<271 311 283 300>
VStem: 271 40
LayerCount: 2
Fore
SplineSet
271 807 m 1
 283 865 l 1
 311 865 l 1
 300 807 l 1
 271 807 l 1
EndSplineSet
EndChar

StartChar: Aringacute
Encoding: 506 506 299
Width: 556
Flags: MW
HStem: 0 21G<32 32 32 69 494 494 494 530> 216 32<201 480 201 482 183 480> 667 33<423 423 423 459> 680 20 815 29<455 493.5>
VStem: 369 30
LayerCount: 2
Fore
SplineSet
32 0 m 1xec
 392 679 l 1
 370 693 363 720 373 755 c 0
 389 814 428 844 481 844 c 0
 532 844 561 817 546 755 c 0
 537 721 520 695 493 680 c 1xdc
 530 0 l 1
 494 0 l 1
 482 216 l 1
 183 216 l 1
 69 0 l 1
 32 0 l 1xec
423 667 m 1xec
 201 248 l 1
 480 248 l 1
 459 667 l 1
 423 667 l 1xec
399 755 m 0
 393 730 399 708 420 700 c 1
 473 700 l 1
 497 708 513 727 520 755 c 0
 528 791 513 815 474 815 c 0
 436 815 409 794 399 755 c 0
409 890 m 1
 404 915 l 1
 607 1010 l 1
 613 980 l 1
 409 890 l 1
EndSplineSet
Position2: "'cpsp' Capital Spacing in Lateinisch lookup 0 subtable" dx=5 dy=0 dh=10 dv=0
EndChar

StartChar: Eng
Encoding: 330 330 300
Width: 617
Flags: MW
HStem: -171 33<352 400.5 352 415> 0 33<450 504 480 496> 667 33<275 300 275 275>
VStem: 86 607
LayerCount: 2
Fore
SplineSet
86 0 m 1
 248 700 l 1
 331 700 l 1
 480 33 l 1
 504 33 l 1
 635 600 l 1
 658 700 l 1
 693 700 l 1
 575 189 l 1
 533 7 l 2
 500 -138 484 -171 346 -171 c 1
 352 -138 l 1
 449 -138 469 -116 496 0 c 1
 450 0 l 1
 300 667 l 1
 275 667 l 1
 121 0 l 1
 86 0 l 1
EndSplineSet
Position2: "'cpsp' Capital Spacing in Lateinisch lookup 0 subtable" dx=5 dy=0 dh=10 dv=0
EndChar

StartChar: amacron
Encoding: 257 257 301
Width: 482
Flags: MW
HStem: -9 33<189 261 189 261.5> 1 21G<415 415> 477 32<275 373.5 265 375.5> 489 20 647 26<290 549 296 542>
VStem: 95 37<88 191.5 88 202.5>
LayerCount: 2
Fore
SplineSet
215 -9 m 0xac
 134 -9 95 35 95 118 c 0
 95 287 185 509 345 509 c 0xac
 402 509 520 489 520 489 c 1
 444 163 l 2
 429 99 415 1 415 1 c 1
 382 -1 l 1x5c
 382 -1 399 103 404 126 c 1
 404 126 308 -9 215 -9 c 0xac
345 477 m 0
 205 477 132 265 132 118 c 0
 132 58 156 24 222 24 c 0
 300 24 414 182 414 182 c 1
 479 462 l 1
 479 462 406 477 345 477 c 0
290 647 m 1
 296 673 l 1
 549 673 l 1
 542 647 l 1
 290 647 l 1
EndSplineSet
EndChar

StartChar: abreve
Encoding: 259 259 302
Width: 482
Flags: MW
HStem: -9 33<189 261 189 261.5> 1 21G<415 415> 477 32<275 373.5 265 375.5> 489 20 595 28<382.5 449.5 382.5 453>
VStem: 95 37<88 191.5 88 202.5> 309 28
LayerCount: 2
Fore
SplineSet
215 -9 m 0xae
 134 -9 95 35 95 118 c 0
 95 287 185 509 345 509 c 0xae
 402 509 520 489 520 489 c 1
 444 163 l 2
 429 99 415 1 415 1 c 1
 382 -1 l 1x5e
 382 -1 399 103 404 126 c 1
 404 126 308 -9 215 -9 c 0xae
345 477 m 0
 205 477 132 265 132 118 c 0
 132 58 156 24 222 24 c 0
 300 24 414 182 414 182 c 1
 479 462 l 1
 479 462 406 477 345 477 c 0
313 721 m 1
 341 721 l 1
 326 665 350 623 415 623 c 0
 484 623 522 667 536 721 c 1
 564 721 l 1
 545 646 499 595 407 595 c 0
 329 595 296 652 313 721 c 1
EndSplineSet
EndChar

StartChar: aringacute
Encoding: 507 507 303
Width: 482
Flags: MW
HStem: -9 33<189 261 189 261.5> 1 21G<415 415> 477 32<275 373.5 265 375.5> 489 20 556 29<355 389 355 394.5> 707 21G<385 419> 718 20G<379.5 430>
VStem: 95 37<88 191.5 88 202.5> 301 28<647 647>
LayerCount: 2
Fore
SplineSet
332 775 m 1xad
 326 805 l 1
 529 900 l 1
 536 865 l 1
 332 775 l 1xad
215 -9 m 0
 134 -9 95 35 95 118 c 0
 95 287 185 509 345 509 c 0xad
 402 509 520 489 520 489 c 1
 444 163 l 2
 429 99 415 1 415 1 c 1
 382 -1 l 1x5d
 382 -1 399 103 404 126 c 1
 404 126 308 -9 215 -9 c 0
345 477 m 0
 205 477 132 265 132 118 c 0
 132 58 156 24 222 24 c 0
 300 24 414 182 414 182 c 1
 479 462 l 1
 479 462 406 477 345 477 c 0
301 647 m 0xab80
 309 693 350 738 409 738 c 0
 451 738 474 713 474 668 c 0
 474 604 424 556 365 556 c 0
 308 556 292 595 301 647 c 0xab80
329 647 m 0
 322 617 338 585 372 585 c 0
 406 585 436 613 444 647 c 0
 451 676 436 707 402 707 c 0
 368 707 336 680 329 647 c 0
EndSplineSet
EndChar

StartChar: aogonek
Encoding: 261 261 304
Width: 482
Flags: MW
HStem: -198 33<332 345> -9 33<189 261 189 261.5> 1 21G<412 415 412 412> 477 32<275 373.5 265 375.5> 489 20
VStem: 95 37<88 191.5 88 202.5> 270 40<-149 -119.5 -149 -118>
LayerCount: 2
Fore
SplineSet
398 -158 m 1xd6
 394 -190 l 1
 394 -190 358 -198 332 -198 c 0
 289 -198 270 -176 270 -144 c 0
 270 -92 349 -17 382 10 c 1
 383 9 l 1
 387 34 400 107 404 126 c 1
 404 126 308 -9 215 -9 c 0
 134 -9 95 35 95 118 c 0
 95 287 185 509 345 509 c 0xd6
 402 509 520 489 520 489 c 1
 444 163 l 2
 429 99 415 1 415 1 c 1
 412 1 l 1xae
 379 -27 310 -98 310 -141 c 0
 310 -157 322 -165 342 -165 c 0
 361 -165 398 -158 398 -158 c 1xd6
345 477 m 0
 205 477 132 265 132 118 c 0
 132 58 156 24 222 24 c 0
 300 24 414 182 414 182 c 1
 479 462 l 1
 479 462 406 477 345 477 c 0
EndSplineSet
EndChar

StartChar: aeacute
Encoding: 509 509 305
Width: 772
Flags: MW
HStem: -9 36<140 198.5 498 563> 235 34 266 35 471 38<332.5 400 332.5 418.5> 700 21G<664 664> 710 20G<658 658>
VStem: 69 40 394 39 441 36 765 36<356.5 405.5>
LayerCount: 2
Fore
SplineSet
537 27 m 0xd740
 605 27 712 36 712 36 c 1
 705 0 l 1
 705 0 597 -9 529 -9 c 0
 464 -9 426 13 408 49 c 1
 342 23 233 -9 164 -9 c 0
 75 -9 59 62 73 138 c 0
 91 237 162 269 261 283 c 0
 317 291 370 297 421 301 c 1
 439 357 475 471 362 471 c 0
 293 471 183 462 183 462 c 1
 189 499 l 1
 189 499 295 509 370 509 c 0
 430 509 475 475 477 414 c 1xd7c0
 522 480 588 509 664 509 c 0
 752 509 801 469 801 373 c 0
 801 340 797 307 787 269 c 2
 778 234 l 1
 448 236 l 1
 439 196 433 161 433 132 c 0
 433 65 459 27 537 27 c 0xd740
173 27 m 0
 236 27 342 60 399 81 c 1
 386 142 402 202 416 266 c 1
 341 258 286 252 239 244 c 0xb740
 173 233 131 204 114 138 c 0
 102 90 107 27 173 27 c 0
455 270 m 1
 749 268 l 1
 760 308 765 340 765 368 c 0
 765 443 728 473 656 473 c 0
 560 473 490 418 455 270 c 1
460 610 m 1xdb40
 455 635 l 1xdb40
 658 730 l 1xd740
 664 700 l 1
 460 610 l 1xdb40
EndSplineSet
EndChar

StartChar: cacute
Encoding: 263 263 306
Width: 403
Flags: MW
HStem: -9 32<213 275.5 213 277> 477 32<284.5 384.5> 700 21G<516 516> 710 20G<510 510>
VStem: 99 37<97 218 97 224>
LayerCount: 2
Fore
SplineSet
363 509 m 0xd8
 412 509 472 498 472 498 c 1
 463 467 l 1
 463 467 406 477 363 477 c 0
 206 477 136 304 136 132 c 0
 136 62 169 23 257 23 c 0
 294 23 372 42 372 42 c 1
 372 10 l 1
 372 10 305 -9 249 -9 c 0
 143 -9 99 41 99 129 c 0
 99 319 182 509 363 509 c 0xd8
312 610 m 1xe8
 307 635 l 1xe8
 510 730 l 1xd8
 516 700 l 1
 312 610 l 1xe8
EndSplineSet
EndChar

StartChar: ccircumflex
Encoding: 265 265 307
Width: 403
Flags: MW
HStem: -9 32<213 275.5 213 277> 477 32<284.5 384.5> 696 34<397 397> 710 20G<394 408 408 408>
VStem: 99 37<97 218 97 224>
LayerCount: 2
Fore
SplineSet
363 509 m 0xd8
 412 509 472 498 472 498 c 1
 463 467 l 1
 463 467 406 477 363 477 c 0
 206 477 136 304 136 132 c 0
 136 62 169 23 257 23 c 0
 294 23 372 42 372 42 c 1
 372 10 l 1
 372 10 305 -9 249 -9 c 0
 143 -9 99 41 99 129 c 0
 99 319 182 509 363 509 c 0xd8
248 595 m 1
 394 730 l 1
 408 730 l 1
 495 595 l 1
 461 595 l 1
 397 696 l 1xe8
 287 595 l 1
 248 595 l 1
EndSplineSet
EndChar

StartChar: ccaron
Encoding: 269 269 308
Width: 403
Flags: MW
HStem: -9 32<213 275.5 213 277> 477 32<284.5 384.5> 710 20G<279 311 311 311 492 531 531 531>
VStem: 99 37<97 218 97 224>
LayerCount: 2
Fore
SplineSet
379 595 m 1
 365 595 l 1
 279 730 l 1
 311 730 l 1
 377 625 l 1
 492 730 l 1
 531 730 l 1
 379 595 l 1
363 509 m 0
 412 509 472 498 472 498 c 1
 463 467 l 1
 463 467 406 477 363 477 c 0
 206 477 136 304 136 132 c 0
 136 62 169 23 257 23 c 0
 294 23 372 42 372 42 c 1
 372 10 l 1
 372 10 305 -9 249 -9 c 0
 143 -9 99 41 99 129 c 0
 99 319 182 509 363 509 c 0
EndSplineSet
EndChar

StartChar: cdotaccent
Encoding: 267 267 309
Width: 403
Flags: MW
HStem: -9 32<213 275.5 213 277> 477 32<284.5 384.5> 620 58<356 399 370 386>
VStem: 99 37<97 218 97 224>
LayerCount: 2
Fore
SplineSet
363 509 m 0
 412 509 472 498 472 498 c 1
 463 467 l 1
 463 467 406 477 363 477 c 0
 206 477 136 304 136 132 c 0
 136 62 169 23 257 23 c 0
 294 23 372 42 372 42 c 1
 372 10 l 1
 372 10 305 -9 249 -9 c 0
 143 -9 99 41 99 129 c 0
 99 319 182 509 363 509 c 0
356 620 m 1
 370 678 l 1
 399 678 l 1
 386 620 l 1
 356 620 l 1
EndSplineSet
EndChar

StartChar: dcaron
Encoding: 271 271 310
Width: 494
Flags: MW
HStem: -9 32<189.5 259> 0 21G<373 407 373 373> 477 32<274.5 376> 710 20G<541 576 576 576>
VStem: 95 37<86 190.5 86 203.5>
LayerCount: 2
Fore
SplineSet
666 700 m 1xb8
 615 480 l 1
 583 480 l 1
 634 700 l 1
 666 700 l 1xb8
576 730 m 1
 407 0 l 1
 373 0 l 1x78
 399 114 l 1
 399 114 309 -9 209 -9 c 0
 135 -9 95 30 95 117 c 0
 95 290 187 509 343 509 c 0
 413 509 486 493 486 493 c 1
 541 730 l 1
 576 730 l 1
412 172 m 1
 479 462 l 1
 479 462 409 477 343 477 c 0
 206 477 132 264 132 117 c 0
 132 55 160 23 219 23 c 0xb8
 306 23 412 172 412 172 c 1
EndSplineSet
EndChar

StartChar: dcroat
Encoding: 273 273 311
Width: 481
Flags: MW
HStem: -9 32<189.5 259> 0 21G<373 407 373 373> 477 32<274.5 376> 617 36<362 515 354 523 558 606 362 550> 617 113<354 576 550 576 541 606 550 550>
VStem: 95 37<86 190.5 86 203.5>
LayerCount: 2
Fore
SplineSet
576 730 m 1xac
 558 653 l 1
 615 653 l 1
 606 617 l 1
 550 617 l 1
 407 0 l 1
 373 0 l 1x74
 399 114 l 1
 399 114 309 -9 209 -9 c 0
 135 -9 95 30 95 117 c 0
 95 290 187 509 343 509 c 0
 413 509 486 493 486 493 c 1
 515 617 l 1
 354 617 l 1
 362 653 l 1
 523 653 l 1xb4
 541 730 l 1
 576 730 l 1xac
412 172 m 1
 479 462 l 1
 479 462 409 477 343 477 c 0
 206 477 132 264 132 117 c 0
 132 55 160 23 219 23 c 0xb4
 306 23 412 172 412 172 c 1
EndSplineSet
EndChar

StartChar: ecaron
Encoding: 283 283 312
Width: 452
Flags: MW
HStem: -9 34<211 280> 250 32<156 212 149 221> 477 32<307 393.5> 710 20G<296 328 328 328 509 548 548 548>
VStem: 97 37<101.5 153 101.5 214.5> 458 36<356 431>
LayerCount: 2
Fore
SplineSet
245 25 m 0
 322 25 409 54 409 54 c 1
 409 21 l 1
 409 21 323 -9 237 -9 c 0
 154 -9 97 39 97 131 c 0
 97 298 181 509 364 509 c 0
 442 509 494 478 494 406 c 0
 494 288 396 250 212 250 c 2
 149 250 l 1
 140 214 134 168 134 138 c 0
 134 65 177 25 245 25 c 0
156 282 m 1
 221 282 l 2
 376 282 458 307 458 405 c 0
 458 457 424 477 363 477 c 0
 251 477 191 394 156 282 c 1
396 595 m 1
 382 595 l 1
 296 730 l 1
 328 730 l 1
 394 625 l 1
 509 730 l 1
 548 730 l 1
 396 595 l 1
EndSplineSet
EndChar

StartChar: emacron
Encoding: 275 275 313
Width: 452
Flags: MW
HStem: -9 34<211 280> 250 32<156 212 149 221> 477 32<307 393.5> 647 26<280 539 286 532>
VStem: 97 37<101.5 153 101.5 214.5> 458 36<356 431>
LayerCount: 2
Fore
SplineSet
245 25 m 0
 322 25 409 54 409 54 c 1
 409 21 l 1
 409 21 323 -9 237 -9 c 0
 154 -9 97 39 97 131 c 0
 97 298 181 509 364 509 c 0
 442 509 494 478 494 406 c 0
 494 288 396 250 212 250 c 2
 149 250 l 1
 140 214 134 168 134 138 c 0
 134 65 177 25 245 25 c 0
156 282 m 1
 221 282 l 2
 376 282 458 307 458 405 c 0
 458 457 424 477 363 477 c 0
 251 477 191 394 156 282 c 1
280 647 m 1
 286 673 l 1
 539 673 l 1
 532 647 l 1
 280 647 l 1
EndSplineSet
EndChar

StartChar: ebreve
Encoding: 277 277 314
Width: 452
Flags: MW
HStem: -9 34<211 280> 250 32<156 212 149 221> 477 32<307 393.5> 595 28<357.5 424.5 357.5 428>
VStem: 97 37<101.5 153 101.5 214.5> 284 28 458 36<356 431>
LayerCount: 2
Fore
SplineSet
245 25 m 0
 322 25 409 54 409 54 c 1
 409 21 l 1
 409 21 323 -9 237 -9 c 0
 154 -9 97 39 97 131 c 0
 97 298 181 509 364 509 c 0
 442 509 494 478 494 406 c 0
 494 288 396 250 212 250 c 2
 149 250 l 1
 140 214 134 168 134 138 c 0
 134 65 177 25 245 25 c 0
156 282 m 1
 221 282 l 2
 376 282 458 307 458 405 c 0
 458 457 424 477 363 477 c 0
 251 477 191 394 156 282 c 1
288 721 m 1
 316 721 l 1
 301 665 325 623 390 623 c 0
 459 623 497 667 511 721 c 1
 539 721 l 1
 520 646 474 595 382 595 c 0
 304 595 271 652 288 721 c 1
EndSplineSet
EndChar

StartChar: edotaccent
Encoding: 279 279 315
Width: 452
Flags: MW
HStem: -9 34<211 280> 250 32<156 212 149 221> 477 32<307 393.5> 620 58<360 403 374 390>
VStem: 97 37<101.5 153 101.5 214.5> 458 36<356 431>
LayerCount: 2
Fore
SplineSet
245 25 m 0
 322 25 409 54 409 54 c 1
 409 21 l 1
 409 21 323 -9 237 -9 c 0
 154 -9 97 39 97 131 c 0
 97 298 181 509 364 509 c 0
 442 509 494 478 494 406 c 0
 494 288 396 250 212 250 c 2
 149 250 l 1
 140 214 134 168 134 138 c 0
 134 65 177 25 245 25 c 0
156 282 m 1
 221 282 l 2
 376 282 458 307 458 405 c 0
 458 457 424 477 363 477 c 0
 251 477 191 394 156 282 c 1
360 620 m 1
 374 678 l 1
 403 678 l 1
 390 620 l 1
 360 620 l 1
EndSplineSet
EndChar

StartChar: eogonek
Encoding: 281 281 316
Width: 452
Flags: MW
HStem: -178 33<321 334> -9 34<211 255.5> 250 32<156 212 149 221> 477 32<307 393.5>
VStem: 97 37<101.5 153 101.5 214.5> 259 40<-129 -104.5> 458 36<356 431>
LayerCount: 2
Fore
SplineSet
387 -138 m 1
 383 -170 l 1
 383 -170 347 -178 321 -178 c 0
 278 -178 259 -156 259 -124 c 0
 259 -85 304 -32 340 2 c 1
 309 -4 274 -9 237 -9 c 0
 154 -9 97 39 97 131 c 0
 97 298 181 509 364 509 c 0
 442 509 494 478 494 406 c 0
 494 288 396 250 212 250 c 2
 149 250 l 1
 140 214 134 168 134 138 c 0
 134 65 177 25 245 25 c 0
 322 25 409 54 409 54 c 1
 409 21 l 1
 397 17 l 1
 362 -13 299 -80 299 -121 c 0
 299 -137 311 -145 331 -145 c 0
 350 -145 387 -138 387 -138 c 1
156 282 m 1
 221 282 l 2
 376 282 458 307 458 405 c 0
 458 457 424 477 363 477 c 0
 251 477 191 394 156 282 c 1
EndSplineSet
EndChar

StartChar: gcircumflex
Encoding: 285 285 317
Width: 458
Flags: MW
HStem: -239 32<144 242 144 257> 178 32<248.5 321 224.5 328.5> 465 35<439 557> 477 32<273 355.5 263 363.5> 696 34<380 380> 710 20G<377 391 391 391>
VStem: 24 37<-134.5 -76.5 -134.5 -72> 131 36<278 340 278 347> 150 35<81.5 110.5 80.5 112> 396 37<-104 -36> 428 36<346.5 404.5 344 408>
LayerCount: 2
Fore
SplineSet
177 -239 m 0xe740
 81 -239 24 -184 24 -112 c 0
 24 -32 104 21 163 53 c 1
 156 59 150 73 150 90 c 0xe6c0
 150 134 201 188 201 188 c 1
 154 207 131 247 131 304 c 0
 131 390 197 509 329 509 c 0xd740
 382 509 408 494 408 494 c 1
 557 500 l 1
 549 465 l 1
 439 465 l 1
 453 447 464 424 464 385 c 0
 464 303 405 178 252 178 c 0
 245 178 226 180 226 180 c 1
 226 180 185 127 185 94 c 0xe6a0
 185 67 207 60 276 52 c 0
 400 38 433 7 433 -62 c 0
 433 -149 337 -239 177 -239 c 0xe740
278 17 m 0
 227 22 201 29 189 34 c 1
 129 4 61 -48 61 -105 c 0
 61 -164 103 -207 185 -207 c 0
 299 -207 396 -146 396 -62 c 0
 396 -10 366 8 278 17 c 0
260 210 m 0xdb20
 382 210 428 319 428 374 c 0
 428 442 402 477 325 477 c 0
 221 477 167 374 167 306 c 0
 167 250 189 210 260 210 c 0xdb20
231 595 m 1
 377 730 l 1
 391 730 l 1
 478 595 l 1
 444 595 l 1
 380 696 l 1
 270 595 l 1
 231 595 l 1
EndSplineSet
EndChar

StartChar: gbreve
Encoding: 287 287 318
Width: 458
Flags: MW
HStem: -239 32<144 242 144 257> 178 32<248.5 321 224.5 328.5> 465 35<439 557> 477 32<273 355.5 263 363.5> 595 28<363.5 430.5 363.5 434>
VStem: 24 37<-134.5 -76.5 -134.5 -72> 131 36<278 340 278 347> 150 35<81.5 110.5 80.5 112> 290 28 396 37<-104 -36> 428 36<346.5 404.5 344 408>
LayerCount: 2
Fore
SplineSet
177 -239 m 0xeec0
 81 -239 24 -184 24 -112 c 0
 24 -32 104 21 163 53 c 1
 156 59 150 73 150 90 c 0xedc0
 150 134 201 188 201 188 c 1
 154 207 131 247 131 304 c 0
 131 390 197 509 329 509 c 0xdec0
 382 509 408 494 408 494 c 1
 557 500 l 1
 549 465 l 1
 439 465 l 1
 453 447 464 424 464 385 c 0
 464 303 405 178 252 178 c 0
 245 178 226 180 226 180 c 1
 226 180 185 127 185 94 c 0xeda0
 185 67 207 60 276 52 c 0
 400 38 433 7 433 -62 c 0
 433 -149 337 -239 177 -239 c 0xeec0
278 17 m 0
 227 22 201 29 189 34 c 1
 129 4 61 -48 61 -105 c 0
 61 -164 103 -207 185 -207 c 0
 299 -207 396 -146 396 -62 c 0
 396 -10 366 8 278 17 c 0
260 210 m 0xdea0
 382 210 428 319 428 374 c 0
 428 442 402 477 325 477 c 0
 221 477 167 374 167 306 c 0
 167 250 189 210 260 210 c 0xdea0
294 721 m 1
 322 721 l 1
 307 665 331 623 396 623 c 0
 465 623 503 667 517 721 c 1
 545 721 l 1
 526 646 480 595 388 595 c 0
 310 595 277 652 294 721 c 1
EndSplineSet
EndChar

StartChar: gdotaccent
Encoding: 289 289 319
Width: 458
Flags: MW
HStem: -239 32<144 242 144 257> 178 32<248.5 321 224.5 328.5> 465 35<439 557> 477 32<273 355.5 263 363.5> 620 58<344 387 358 374>
VStem: 24 37<-134.5 -76.5 -134.5 -72> 131 36<278 340 278 347> 150 35<81.5 110.5 80.5 112> 396 37<-104 -36> 428 36<346.5 404.5 344 408>
LayerCount: 2
Fore
SplineSet
177 -239 m 0xe680
 81 -239 24 -184 24 -112 c 0
 24 -32 104 21 163 53 c 1
 156 59 150 73 150 90 c 0xe580
 150 134 201 188 201 188 c 1
 154 207 131 247 131 304 c 0
 131 390 197 509 329 509 c 0xd680
 382 509 408 494 408 494 c 1
 557 500 l 1
 549 465 l 1
 439 465 l 1
 453 447 464 424 464 385 c 0
 464 303 405 178 252 178 c 0
 245 178 226 180 226 180 c 1
 226 180 185 127 185 94 c 0xe540
 185 67 207 60 276 52 c 0
 400 38 433 7 433 -62 c 0
 433 -149 337 -239 177 -239 c 0xe680
278 17 m 0
 227 22 201 29 189 34 c 1
 129 4 61 -48 61 -105 c 0
 61 -164 103 -207 185 -207 c 0
 299 -207 396 -146 396 -62 c 0
 396 -10 366 8 278 17 c 0
260 210 m 0xde40
 382 210 428 319 428 374 c 0
 428 442 402 477 325 477 c 0
 221 477 167 374 167 306 c 0
 167 250 189 210 260 210 c 0xde40
344 620 m 1
 358 678 l 1
 387 678 l 1
 374 620 l 1
 344 620 l 1
EndSplineSet
EndChar

StartChar: gcommaaccent
Encoding: 291 291 320
Width: 458
Flags: MW
HStem: -239 32<144 242 144 257> 178 32<248.5 321 224.5 328.5> 465 35<439 557> 477 32<273 355.5 263 363.5>
VStem: 24 37<-134.5 -76.5 -134.5 -72> 131 36<278 340 278 347> 150 35<81.5 110.5 80.5 112> 396 37<-104 -36> 428 36<346.5 404.5 344 408>
LayerCount: 2
Fore
SplineSet
419 780 m 1xed
 446 780 l 1
 365 588 l 1
 331 588 l 1
 419 780 l 1xed
177 -239 m 0
 81 -239 24 -184 24 -112 c 0
 24 -32 104 21 163 53 c 1
 156 59 150 73 150 90 c 0xeb
 150 134 201 188 201 188 c 1
 154 207 131 247 131 304 c 0
 131 390 197 509 329 509 c 0xdd
 382 509 408 494 408 494 c 1
 557 500 l 1
 549 465 l 1
 439 465 l 1
 453 447 464 424 464 385 c 0
 464 303 405 178 252 178 c 0
 245 178 226 180 226 180 c 1
 226 180 185 127 185 94 c 0xea80
 185 67 207 60 276 52 c 0
 400 38 433 7 433 -62 c 0
 433 -149 337 -239 177 -239 c 0
278 17 m 0
 227 22 201 29 189 34 c 1
 129 4 61 -48 61 -105 c 0
 61 -164 103 -207 185 -207 c 0
 299 -207 396 -146 396 -62 c 0
 396 -10 366 8 278 17 c 0
260 210 m 0xdc80
 382 210 428 319 428 374 c 0
 428 442 402 477 325 477 c 0
 221 477 167 374 167 306 c 0
 167 250 189 210 260 210 c 0xdc80
EndSplineSet
EndChar

StartChar: hcircumflex
Encoding: 293 293 321
Width: 489
Flags: MW
HStem: 0 21G<74 109 74 74 385 385 385 419> 476 33<335 406.5> 710 20G<243 278 278 278>
VStem: 464 35<370 417>
LayerCount: 2
Fore
SplineSet
109 0 m 1
 74 0 l 1
 243 730 l 1
 278 730 l 1
 198 385 l 1
 198 385 286 509 384 509 c 0
 456 509 499 465 499 393 c 0
 499 347 489 299 479 257 c 2
 419 0 l 1
 385 0 l 1
 445 258 l 2
 454 295 464 348 464 390 c 0
 464 444 435 476 378 476 c 0
 290 476 185 328 185 328 c 1
 109 0 l 1
302 773 m 1
 458 901 l 1
 472 901 l 1
 569 773 l 1
 535 773 l 1
 462 870 l 1
 343 773 l 1
 302 773 l 1
EndSplineSet
EndChar

StartChar: hbar
Encoding: 295 295 322
Width: 489
Flags: MW
HStem: 0 21G<74 109 74 74 385 419 385 385> 476 33<335 406.5> 611 32<158 223 165 215 165 250 258 410> 611 119<158 278 158 278 250 250 250 278 243 410>
VStem: 464 35<370 417>
LayerCount: 2
Fore
SplineSet
158 611 m 1xe8
 165 643 l 1
 223 643 l 1xe8
 243 730 l 1
 278 730 l 1xd8
 258 643 l 1
 418 643 l 1
 410 611 l 1
 250 611 l 1
 198 385 l 1
 198 385 286 509 384 509 c 0
 456 509 499 465 499 393 c 0
 499 347 489 299 479 257 c 2
 419 0 l 1
 385 0 l 1
 445 258 l 2
 454 295 464 348 464 390 c 0
 464 444 435 476 378 476 c 0
 290 476 185 328 185 328 c 1
 109 0 l 1
 74 0 l 1
 215 611 l 1
 158 611 l 1xe8
EndSplineSet
EndChar

StartChar: itilde
Encoding: 297 297 323
Width: 182
Flags: MW
HStem: 0 21G<73 73 73 108> 480 20G<189 224 224 224> 630 32<291 312.5 291 312.5> 667 21G<93 93> 681 32<166 185> 703 21G<372 372>
VStem: 73 304
LayerCount: 2
Fore
SplineSet
73 0 m 1xd6
 189 500 l 1
 224 500 l 1
 108 0 l 1
 73 0 l 1xd6
372 703 m 1
 377 673 l 1
 377 673 327 630 298 630 c 0xe6
 264 630 199 681 171 681 c 0
 152 681 95 636 95 636 c 1
 93 667 l 1
 93 667 151 713 181 713 c 0xca
 216 713 278 662 304 662 c 0xe6
 321 662 372 703 372 703 c 1
EndSplineSet
EndChar

StartChar: imacron
Encoding: 299 299 324
Width: 182
Flags: MW
HStem: 0 21G<73 73 73 108> 480 20G<189 224 224 224> 647 26<107 366 113 359>
VStem: 73 293
LayerCount: 2
Fore
SplineSet
73 0 m 1
 189 500 l 1
 224 500 l 1
 108 0 l 1
 73 0 l 1
107 647 m 1
 113 673 l 1
 366 673 l 1
 359 647 l 1
 107 647 l 1
EndSplineSet
EndChar

StartChar: ibreve
Encoding: 301 301 325
Width: 182
Flags: MW
HStem: 0 21G<73 73 73 108> 480 20G<189 224 224 224> 595 28<198.5 265.5 198.5 269>
VStem: 125 28
LayerCount: 2
Fore
SplineSet
73 0 m 1
 189 500 l 1
 224 500 l 1
 108 0 l 1
 73 0 l 1
129 721 m 1
 157 721 l 1
 142 665 166 623 231 623 c 0
 300 623 338 667 352 721 c 1
 380 721 l 1
 361 646 315 595 223 595 c 0
 145 595 112 652 129 721 c 1
EndSplineSet
EndChar

StartChar: iogonek
Encoding: 303 303 326
Width: 183
Flags: MW
HStem: -198 33<27 40> 480 20G<190 225 225 225> 638 60<221 271 235 257>
VStem: -35 40<-149 -119 -149 -118>
LayerCount: 2
Fore
SplineSet
93 -158 m 1
 89 -190 l 1
 89 -190 53 -198 27 -198 c 0
 -16 -198 -35 -176 -35 -144 c 0
 -35 -92 42 -18 76 9 c 1
 190 500 l 1
 225 500 l 1
 109 0 l 1
 77 -27 5 -97 5 -141 c 0
 5 -157 17 -165 37 -165 c 0
 56 -165 93 -158 93 -158 c 1
221 638 m 1
 235 698 l 1
 271 698 l 1
 257 638 l 1
 221 638 l 1
EndSplineSet
EndChar

StartChar: jcircumflex
Encoding: 309 309 327
Width: 182
Flags: MW
HStem: -239 21G<-87 -87> 480 20G<189 224 224 224> 696 34<244 244> 710 20G<241 255 255 255>
VStem: -99 441
LayerCount: 2
Fore
SplineSet
73 0 m 2xd8
 189 500 l 1
 224 500 l 1
 108 0 l 2
 72 -154 56 -171 -87 -239 c 1
 -99 -209 l 1
 31 -144 43 -130 73 0 c 2xd8
95 595 m 1
 241 730 l 1
 255 730 l 1
 342 595 l 1
 308 595 l 1
 244 696 l 1xe8
 134 595 l 1
 95 595 l 1
EndSplineSet
EndChar

StartChar: kcommaaccent
Encoding: 311 311 328
Width: 431
Flags: MW
HStem: 0 21G<74 109 74 74 362 362 362 401> 261 32<177 253 169 261> 480 20G<478 524 524 524> 710 20G<243 278 278 278>
VStem: 74 450
LayerCount: 2
Fore
SplineSet
103 -265 m 1
 183 -73 l 1
 217 -73 l 1
 129 -265 l 1
 103 -265 l 1
109 0 m 1
 74 0 l 1
 243 730 l 1
 278 730 l 1
 177 293 l 1
 261 293 l 1
 478 500 l 1
 524 500 l 1
 288 274 l 1
 401 0 l 1
 362 0 l 1
 253 261 l 1
 169 261 l 1
 109 0 l 1
EndSplineSet
EndChar

StartChar: lacute
Encoding: 314 314 329
Width: 195
Flags: MW
HStem: 0 21G<80 80 80 115> 710 20G<249 284 284 284>
VStem: 80 383
LayerCount: 2
Fore
SplineSet
80 0 m 1
 249 730 l 1
 284 730 l 1
 115 0 l 1
 80 0 l 1
258 798 m 1
 250 823 l 1
 454 919 l 1
 463 890 l 1
 258 798 l 1
EndSplineSet
EndChar

StartChar: lcaron
Encoding: 318 318 330
Width: 201
Flags: MW
HStem: 0 21G<80 80 80 115> 710 20G<249 284 284 284>
VStem: 80 293
LayerCount: 2
Fore
SplineSet
373 700 m 1
 322 480 l 1
 290 480 l 1
 341 700 l 1
 373 700 l 1
80 0 m 1
 249 730 l 1
 284 730 l 1
 115 0 l 1
 80 0 l 1
EndSplineSet
EndChar

StartChar: lcommaaccent
Encoding: 316 316 331
Width: 195
Flags: MW
HStem: 0 21G<80 80 80 115> 710 20G<249 284 284 284>
VStem: -16 300
LayerCount: 2
Fore
SplineSet
64 -73 m 1
 -16 -265 l 1
 10 -265 l 1
 98 -73 l 1
 64 -73 l 1
80 0 m 1
 249 730 l 1
 284 730 l 1
 115 0 l 1
 80 0 l 1
EndSplineSet
EndChar

StartChar: nacute
Encoding: 324 324 332
Width: 488
Flags: MW
HStem: 700 21G<512 512> 710 20G<506 506>
VStem: 73 439
LayerCount: 2
Fore
SplineSet
73 0 m 1x60
 108 0 l 1
 185 330 l 1
 185 330 288 476 377 476 c 0
 433 476 463 444 463 390 c 0
 463 348 453 295 444 258 c 2
 384 0 l 1
 418 0 l 1
 479 260 l 2
 488 300 498 347 498 393 c 0
 498 465 455 509 383 509 c 0
 285 509 198 387 198 387 c 1
 224 500 l 1
 189 500 l 1
 73 0 l 1x60
308 610 m 1xa0
 303 635 l 1xa0
 506 730 l 1x60
 512 700 l 1
 308 610 l 1xa0
EndSplineSet
EndChar

StartChar: ncaron
Encoding: 328 328 333
Width: 488
Flags: MW
HStem: 0 21G<73 108 73 73 384 384 384 418> 476 33<334 405> 480 20G<189 224 224 224> 710 20G<286 318 318 318 499 538 538 538>
VStem: 463 35<370 417>
LayerCount: 2
Fore
SplineSet
108 0 m 1xd8
 73 0 l 1
 189 500 l 1
 224 500 l 1xb8
 198 387 l 1
 198 387 285 509 383 509 c 0
 455 509 498 465 498 393 c 0
 498 347 488 300 479 260 c 2
 418 0 l 1
 384 0 l 1
 444 258 l 2
 453 295 463 348 463 390 c 0
 463 444 433 476 377 476 c 0
 288 476 185 330 185 330 c 1
 108 0 l 1xd8
386 595 m 1
 372 595 l 1
 286 730 l 1
 318 730 l 1
 384 625 l 1
 499 730 l 1
 538 730 l 1
 386 595 l 1
EndSplineSet
EndChar

StartChar: ncommaaccent
Encoding: 326 326 334
Width: 488
Flags: MW
HStem: 0 21G<73 108 73 73 384 384 384 418> 476 33<334 405> 480 20G<189 224 224 224>
VStem: 463 35<370 417>
LayerCount: 2
Fore
SplineSet
108 0 m 1xd0
 73 0 l 1
 189 500 l 1
 224 500 l 1xb0
 198 387 l 1
 198 387 285 509 383 509 c 0
 455 509 498 465 498 393 c 0
 498 347 488 300 479 260 c 2
 418 0 l 1
 384 0 l 1
 444 258 l 2
 453 295 463 348 463 390 c 0
 463 444 433 476 377 476 c 0
 288 476 185 330 185 330 c 1
 108 0 l 1xd0
145 -265 m 1
 225 -73 l 1
 259 -73 l 1
 171 -265 l 1
 145 -265 l 1
EndSplineSet
EndChar

StartChar: omacron
Encoding: 333 333 335
Width: 493
Flags: MW
HStem: -9 32<212.5 318 212.5 328.5> 477 32<285.5 391> 647 26<259 518 265 511>
VStem: 99 36<101.5 229 101.5 242.5> 471 36<262 388.5>
LayerCount: 2
Fore
SplineSet
349 509 m 0
 454 509 507 454 507 352 c 0
 507 150 405 -9 252 -9 c 0
 150 -9 99 37 99 139 c 0
 99 346 207 509 349 509 c 0
252 23 m 0
 384 23 471 172 471 352 c 0
 471 425 433 477 349 477 c 0
 222 477 135 319 135 139 c 0
 135 64 173 23 252 23 c 0
259 647 m 1
 265 673 l 1
 518 673 l 1
 511 647 l 1
 259 647 l 1
EndSplineSet
EndChar

StartChar: obreve
Encoding: 335 335 336
Width: 493
Flags: MW
HStem: -9 32<212.5 318 212.5 328.5> 477 32<285.5 391> 595 28<359.5 426.5 359.5 430>
VStem: 99 36<101.5 229 101.5 242.5> 286 28 471 36<262 388.5>
LayerCount: 2
Fore
SplineSet
349 509 m 0
 454 509 507 454 507 352 c 0
 507 150 405 -9 252 -9 c 0
 150 -9 99 37 99 139 c 0
 99 346 207 509 349 509 c 0
252 23 m 0
 384 23 471 172 471 352 c 0
 471 425 433 477 349 477 c 0
 222 477 135 319 135 139 c 0
 135 64 173 23 252 23 c 0
290 721 m 1
 318 721 l 1
 303 665 327 623 392 623 c 0
 461 623 499 667 513 721 c 1
 541 721 l 1
 522 646 476 595 384 595 c 0
 306 595 273 652 290 721 c 1
EndSplineSet
EndChar

StartChar: ohungarumlaut
Encoding: 337 337 337
Width: 493
Flags: MW
HStem: -9 32<212.5 318 212.5 328.5> 477 32<285.5 391>
VStem: 99 36<101.5 229 101.5 242.5> 471 36<262 388.5>
LayerCount: 2
Fore
SplineSet
349 509 m 0
 454 509 507 454 507 352 c 0
 507 150 405 -9 252 -9 c 0
 150 -9 99 37 99 139 c 0
 99 346 207 509 349 509 c 0
252 23 m 0
 384 23 471 172 471 352 c 0
 471 425 433 477 349 477 c 0
 222 477 135 319 135 139 c 0
 135 64 173 23 252 23 c 0
431 594 m 1
 420 619 l 1
 598 724 l 1
 610 698 l 1
 431 594 l 1
257 594 m 1
 246 619 l 1
 423 724 l 1
 435 698 l 1
 257 594 l 1
EndSplineSet
EndChar

StartChar: racute
Encoding: 341 341 338
Width: 304
Flags: MW
HStem: 0 21G<73 73 73 109> 480 20G<190 224 224 224> 490 20G<404 404> 700 21G<416 416> 710 20G<410 410>
VStem: 73 343
LayerCount: 2
Fore
SplineSet
73 0 m 1xac
 190 500 l 1
 224 500 l 1
 207 424 l 1xd4
 207 424 307 487 404 510 c 1
 396 475 l 1
 322 458 199 389 199 389 c 1
 109 0 l 1
 73 0 l 1xac
212 610 m 1
 207 635 l 1xb4
 410 730 l 1xac
 416 700 l 1
 212 610 l 1
EndSplineSet
EndChar

StartChar: rcommaaccent
Encoding: 343 343 339
Width: 304
Flags: MW
HStem: 0 21G<73 73 73 109> 480 20G<190 224 224 224> 490 20G<404 404>
VStem: -18 422
LayerCount: 2
Fore
SplineSet
73 0 m 1xb0
 190 500 l 1
 224 500 l 1
 207 424 l 1xd0
 207 424 307 487 404 510 c 1
 396 475 l 1
 322 458 199 389 199 389 c 1
 109 0 l 1
 73 0 l 1xb0
62 -73 m 1
 -18 -265 l 1
 8 -265 l 1
 96 -73 l 1
 62 -73 l 1
EndSplineSet
EndChar

StartChar: rcaron
Encoding: 345 345 340
Width: 304
Flags: MW
HStem: 0 21G<73 73 73 109> 480 20G<190 224 224 224> 490 20G<404 404> 710 20G<203 235 235 235 416 455 455 455>
VStem: 73 382
LayerCount: 2
Fore
SplineSet
73 0 m 1xb8
 190 500 l 1
 224 500 l 1
 207 424 l 1xd8
 207 424 307 487 404 510 c 1
 396 475 l 1
 322 458 199 389 199 389 c 1
 109 0 l 1
 73 0 l 1xb8
303 595 m 1
 289 595 l 1
 203 730 l 1
 235 730 l 1
 301 625 l 1
 416 730 l 1
 455 730 l 1
 303 595 l 1
EndSplineSet
EndChar

StartChar: sacute
Encoding: 347 347 341
Width: 427
Flags: MW
HStem: -9 32<179.5 253 179.5 260.5> 477 32<272.5 349> 700 21G<496 496> 710 20G<490 490>
VStem: 134 36<327.5 382 327.5 388> 379 36<113 188>
LayerCount: 2
Fore
SplineSet
479 495 m 1xdc
 470 464 l 1
 470 464 381 477 317 477 c 0
 228 477 170 416 170 348 c 0
 170 307 191 294 276 275 c 0
 367 255 415 239 415 168 c 0
 415 50 318 -9 203 -9 c 0
 138 -9 54 7 54 7 c 1
 61 39 l 1
 61 39 151 23 208 23 c 0
 298 23 379 65 379 161 c 0
 379 215 347 224 261 243 c 0
 178 261 134 278 134 342 c 0
 134 434 209 509 324 509 c 0
 387 509 479 495 479 495 c 1xdc
292 610 m 1xec
 287 635 l 1xec
 490 730 l 1xdc
 496 700 l 1
 292 610 l 1xec
EndSplineSet
EndChar

StartChar: scircumflex
Encoding: 349 349 342
Width: 427
Flags: MW
HStem: -9 32<179.5 253 179.5 260.5> 477 32<272.5 349> 696 34<385 385> 710 20G<382 396 396 396>
VStem: 134 36<327.5 382 327.5 388> 379 36<113 188>
LayerCount: 2
Fore
SplineSet
479 495 m 1xdc
 470 464 l 1
 470 464 381 477 317 477 c 0
 228 477 170 416 170 348 c 0
 170 307 191 294 276 275 c 0
 367 255 415 239 415 168 c 0
 415 50 318 -9 203 -9 c 0
 138 -9 54 7 54 7 c 1
 61 39 l 1
 61 39 151 23 208 23 c 0
 298 23 379 65 379 161 c 0
 379 215 347 224 261 243 c 0
 178 261 134 278 134 342 c 0
 134 434 209 509 324 509 c 0
 387 509 479 495 479 495 c 1xdc
236 595 m 1
 382 730 l 1
 396 730 l 1
 483 595 l 1
 449 595 l 1
 385 696 l 1xec
 275 595 l 1
 236 595 l 1
EndSplineSet
EndChar

StartChar: scedilla
Encoding: 351 351 343
Width: 426
Flags: MW
HStem: -199 31<180 210.5 180 217> -83 30<204 209 209 217> -8 31<183 183 215 215> 477 32<271.5 348>
VStem: 133 36<327.5 382 327.5 388> 378 36<113 188>
LayerCount: 2
Fore
SplineSet
286 -124 m 0
 274 -178 243 -199 191 -199 c 0
 149 -199 115 -195 115 -195 c 1
 123 -164 l 1
 123 -164 164 -168 196 -168 c 0
 225 -168 244 -157 252 -124 c 0
 260 -90 239 -83 217 -83 c 2
 166 -83 l 1
 183 -8 l 1
 122 -6 53 7 53 7 c 1
 60 39 l 1
 60 39 150 23 207 23 c 0
 297 23 378 65 378 161 c 0
 378 215 346 224 260 243 c 0
 177 261 133 278 133 342 c 0
 133 434 208 509 323 509 c 0
 386 509 478 495 478 495 c 1
 469 464 l 1
 469 464 380 477 316 477 c 0
 227 477 169 416 169 348 c 0
 169 307 190 294 275 275 c 0
 366 255 414 239 414 168 c 0
 414 54 324 -4 215 -8 c 1
 204 -53 l 1
 209 -53 l 2
 260 -53 298 -71 286 -124 c 0
EndSplineSet
Substitution2: "'locl' Localized Forms in Lateinisch lookup 0 subtable" scommaaccent
EndChar

StartChar: scommaaccent
Encoding: 537 537 344
Width: 426
Flags: MW
HStem: -9 32<178.5 252 178.5 259.5> 477 32<271.5 348>
VStem: 133 36<327.5 382 327.5 388> 378 36<113 188>
LayerCount: 2
Fore
SplineSet
478 495 m 1
 469 464 l 1
 469 464 380 477 316 477 c 0
 227 477 169 416 169 348 c 0
 169 307 190 294 275 275 c 0
 366 255 414 239 414 168 c 0
 414 50 317 -9 202 -9 c 0
 137 -9 53 7 53 7 c 1
 60 39 l 1
 60 39 150 23 207 23 c 0
 297 23 378 65 378 161 c 0
 378 215 346 224 260 243 c 0
 177 261 133 278 133 342 c 0
 133 434 208 509 323 509 c 0
 386 509 478 495 478 495 c 1
183 -73 m 1
 103 -265 l 1
 129 -265 l 1
 217 -73 l 1
 183 -73 l 1
EndSplineSet
EndChar

StartChar: tcaron
Encoding: 357 357 345
Width: 362
Flags: MW
HStem: -9 32<200.5 236 200.5 236> 468 32<141 206 133 215 249 404 141 241> 480 20
VStem: 122 37<64.5 94>
LayerCount: 2
Fore
SplineSet
527 700 m 1xd0
 476 480 l 1
 444 480 l 1xb0
 495 700 l 1
 527 700 l 1xd0
404 468 m 1xd0
 241 468 l 1
 174 182 l 2
 166 148 159 109 159 82 c 0
 159 47 178 23 223 23 c 0
 249 23 307 30 307 30 c 1
 305 -1 l 1
 305 -1 254 -9 218 -9 c 0
 159 -9 122 18 122 77 c 0
 122 111 131 150 139 182 c 2
 206 468 l 1
 133 468 l 1
 141 500 l 1
 215 500 l 1
 254 662 l 1
 289 662 l 1
 249 500 l 1
 412 500 l 1
 404 468 l 1xd0
EndSplineSet
EndChar

StartChar: tcommaaccent
Encoding: 539 539 346
Width: 311
Flags: MW
HStem: -9 32<200.5 236 200.5 236> 468 32<141 206 133 215 249 404 141 241>
VStem: 122 37<64.5 94>
LayerCount: 2
Fore
SplineSet
404 468 m 1
 241 468 l 1
 174 182 l 2
 166 148 159 109 159 82 c 0
 159 47 178 23 223 23 c 0
 249 23 307 30 307 30 c 1
 305 -1 l 1
 305 -1 254 -9 218 -9 c 0
 159 -9 122 18 122 77 c 0
 122 111 131 150 139 182 c 2
 206 468 l 1
 133 468 l 1
 141 500 l 1
 215 500 l 1
 254 662 l 1
 289 662 l 1
 249 500 l 1
 412 500 l 1
 404 468 l 1
160 -73 m 1
 80 -265 l 1
 106 -265 l 1
 194 -73 l 1
 160 -73 l 1
EndSplineSet
EndChar

StartChar: tbar
Encoding: 359 359 347
Width: 316
Flags: MW
HStem: -9 32<203.5 239 203.5 239> 291 32<119 167 111 175 210 363 119 202> 468 32<144 209 136 218 252 407 144 244>
VStem: 125 37<64.5 94>
LayerCount: 2
Fore
SplineSet
407 468 m 1
 244 468 l 1
 210 323 l 1
 372 323 l 1
 363 291 l 1
 202 291 l 1
 177 182 l 2
 169 148 162 109 162 82 c 0
 162 47 181 23 226 23 c 0
 252 23 310 30 310 30 c 1
 308 -1 l 1
 308 -1 257 -9 221 -9 c 0
 162 -9 125 18 125 77 c 0
 125 111 134 150 142 182 c 2
 167 291 l 1
 111 291 l 1
 119 323 l 1
 175 323 l 1
 209 468 l 1
 136 468 l 1
 144 500 l 1
 218 500 l 1
 257 662 l 1
 292 662 l 1
 252 500 l 1
 415 500 l 1
 407 468 l 1
EndSplineSet
EndChar

StartChar: utilde
Encoding: 361 361 348
Width: 488
Flags: MW
HStem: -9 33<199 269> 0 21G<379 414 379 379> 480 20G<185 219 219 219 495 530 530 530> 630 32<449 470.5 449 470.5> 667 21G<251 251> 681 32<324 343> 703 21G<530 530>
VStem: 105 35<83 130>
LayerCount: 2
Fore
SplineSet
530 703 m 1xab
 535 673 l 1
 535 673 485 630 456 630 c 0xb3
 422 630 357 681 329 681 c 0
 310 681 253 636 253 636 c 1
 251 667 l 1
 251 667 309 713 339 713 c 0xa5
 374 713 436 662 462 662 c 0xb3
 479 662 530 703 530 703 c 1xab
495 500 m 1
 530 500 l 1
 414 0 l 1
 379 0 l 1x6b
 405 113 l 1
 405 113 318 -9 220 -9 c 0
 149 -9 105 35 105 107 c 0
 105 153 115 200 124 240 c 2
 185 500 l 1
 219 500 l 1
 159 242 l 2
 150 205 140 152 140 110 c 0
 140 56 172 24 226 24 c 0
 315 24 418 170 418 170 c 1
 495 500 l 1
EndSplineSet
EndChar

StartChar: umacron
Encoding: 363 363 349
Width: 488
Flags: MW
HStem: -9 33<199 269> 0 21G<379 414 379 379> 480 20G<185 219 219 219 495 530 530 530> 647 26<254 513 260 506>
VStem: 105 35<83 130>
LayerCount: 2
Fore
SplineSet
495 500 m 1xb8
 530 500 l 1
 414 0 l 1
 379 0 l 1x78
 405 113 l 1
 405 113 318 -9 220 -9 c 0
 149 -9 105 35 105 107 c 0
 105 153 115 200 124 240 c 2
 185 500 l 1
 219 500 l 1
 159 242 l 2
 150 205 140 152 140 110 c 0
 140 56 172 24 226 24 c 0
 315 24 418 170 418 170 c 1
 495 500 l 1xb8
254 647 m 1
 260 673 l 1
 513 673 l 1
 506 647 l 1
 254 647 l 1
EndSplineSet
EndChar

StartChar: ubreve
Encoding: 365 365 350
Width: 488
Flags: MW
HStem: -9 33<199 269> 0 21G<379 414 379 379> 480 20G<185 219 219 219 495 530 530 530> 595 28<346.5 413.5 346.5 417>
VStem: 105 35<83 130> 273 28
LayerCount: 2
Fore
SplineSet
495 500 m 1xbc
 530 500 l 1
 414 0 l 1
 379 0 l 1x7c
 405 113 l 1
 405 113 318 -9 220 -9 c 0
 149 -9 105 35 105 107 c 0
 105 153 115 200 124 240 c 2
 185 500 l 1
 219 500 l 1
 159 242 l 2
 150 205 140 152 140 110 c 0
 140 56 172 24 226 24 c 0
 315 24 418 170 418 170 c 1
 495 500 l 1xbc
277 721 m 1
 305 721 l 1
 290 665 314 623 379 623 c 0
 448 623 486 667 500 721 c 1
 528 721 l 1
 509 646 463 595 371 595 c 0
 293 595 260 652 277 721 c 1
EndSplineSet
EndChar

StartChar: uring
Encoding: 367 367 351
Width: 488
Flags: MW
HStem: -9 33<199 269> 0 21G<379 414 379 379> 480 20G<185 219 219 219 495 530 530 530> 556 29<350 384 350 389.5> 707 21G<380 414>
VStem: 105 35<83 130> 296 28<647 647>
LayerCount: 2
Fore
SplineSet
296 647 m 0xbe
 304 693 345 738 404 738 c 0
 446 738 469 713 469 668 c 0
 469 604 419 556 360 556 c 0
 303 556 287 595 296 647 c 0xbe
324 647 m 0
 317 617 333 585 367 585 c 0
 401 585 431 613 439 647 c 0
 446 676 431 707 397 707 c 0
 363 707 331 680 324 647 c 0
495 500 m 1
 530 500 l 1
 414 0 l 1
 379 0 l 1x7e
 405 113 l 1
 405 113 318 -9 220 -9 c 0
 149 -9 105 35 105 107 c 0
 105 153 115 200 124 240 c 2
 185 500 l 1
 219 500 l 1
 159 242 l 2
 150 205 140 152 140 110 c 0
 140 56 172 24 226 24 c 0
 315 24 418 170 418 170 c 1
 495 500 l 1
EndSplineSet
EndChar

StartChar: uhungarumlaut
Encoding: 369 369 352
Width: 488
Flags: MW
HStem: -9 33<199 269> 0 21G<379 414 379 379> 480 20G<185 219 219 219 495 530 530 530>
VStem: 105 35<83 130>
LayerCount: 2
Fore
SplineSet
451 594 m 1xb0
 440 619 l 1
 618 724 l 1
 630 698 l 1
 451 594 l 1xb0
277 594 m 1
 266 619 l 1
 443 724 l 1
 455 698 l 1
 277 594 l 1
495 500 m 1
 530 500 l 1
 414 0 l 1
 379 0 l 1x70
 405 113 l 1
 405 113 318 -9 220 -9 c 0
 149 -9 105 35 105 107 c 0
 105 153 115 200 124 240 c 2
 185 500 l 1
 219 500 l 1
 159 242 l 2
 150 205 140 152 140 110 c 0
 140 56 172 24 226 24 c 0
 315 24 418 170 418 170 c 1
 495 500 l 1
EndSplineSet
EndChar

StartChar: uogonek
Encoding: 371 371 353
Width: 488
Flags: MW
HStem: -198 33<331 344> -9 33<199 269> 480 20G<185 219 219 219 495 530 530 530>
VStem: 105 35<83 130> 269 40<-149 -119 -149 -118>
LayerCount: 2
Fore
SplineSet
495 500 m 1
 530 500 l 1
 414 0 l 1
 380 -27 309 -97 309 -141 c 0
 309 -157 321 -165 341 -165 c 0
 360 -165 397 -158 397 -158 c 1
 393 -190 l 1
 393 -190 357 -198 331 -198 c 0
 288 -198 269 -176 269 -144 c 0
 269 -92 347 -18 381 9 c 1
 405 113 l 1
 405 113 318 -9 220 -9 c 0
 149 -9 105 35 105 107 c 0
 105 153 115 200 124 240 c 2
 185 500 l 1
 219 500 l 1
 159 242 l 2
 150 205 140 152 140 110 c 0
 140 56 172 24 226 24 c 0
 315 24 418 170 418 170 c 1
 495 500 l 1
EndSplineSet
EndChar

StartChar: wgrave
Encoding: 7809 7809 354
Width: 710
Flags: MW
HStem: 0 32<191 207 191 229 508 525> 447 43<456 456> 480 20G<150 185 185 185 752 789 789 789>
VStem: 153.5 34.5 464.5 33.5
LayerCount: 2
Fore
SplineSet
374 721 m 1xb8
 534 626 l 1
 516 604 l 1
 356 696 l 1
 374 721 l 1xb8
150 500 m 1
 185 500 l 1xb8
 191 32 l 1
 207 32 l 1
 443 490 l 1
 488 490 l 1xd8
 508 32 l 1
 525 32 l 1
 752 500 l 1
 789 500 l 1xb8
 547 0 l 1
 473 0 l 1
 456 447 l 1xd8
 229 0 l 1
 157 0 l 1
 150 500 l 1
EndSplineSet
EndChar

StartChar: wacute
Encoding: 7811 7811 355
Width: 710
Flags: MW
HStem: 0 32<191 207 191 229 508 525> 447 43<456 456> 480 20G<150 185 185 185 752 789 789 789> 700 21G<614 614> 710 20G<608 608>
VStem: 153.5 34.5 464.5 33.5
LayerCount: 2
Fore
SplineSet
150 500 m 1xae
 185 500 l 1xb6
 191 32 l 1
 207 32 l 1
 443 490 l 1
 488 490 l 1xce
 508 32 l 1
 525 32 l 1
 752 500 l 1
 789 500 l 1xae
 547 0 l 1
 473 0 l 1
 456 447 l 1xce
 229 0 l 1
 157 0 l 1
 150 500 l 1xae
410 610 m 1
 405 635 l 1xb6
 608 730 l 1xae
 614 700 l 1
 410 610 l 1
EndSplineSet
EndChar

StartChar: wcircumflex
Encoding: 373 373 356
Width: 710
Flags: MW
HStem: 0 32<191 207 191 229 508 525> 447 43<456 456> 480 20G<150 185 185 185 752 789 789 789> 696 34<500 500> 710 20G<497 511 511 511>
VStem: 153.5 34.5 464.5 33.5
LayerCount: 2
Fore
SplineSet
150 500 m 1xae
 185 500 l 1xb6
 191 32 l 1
 207 32 l 1
 443 490 l 1
 488 490 l 1xce
 508 32 l 1
 525 32 l 1
 752 500 l 1
 789 500 l 1xae
 547 0 l 1
 473 0 l 1
 456 447 l 1xce
 229 0 l 1
 157 0 l 1
 150 500 l 1xae
351 595 m 1
 497 730 l 1
 511 730 l 1
 598 595 l 1
 564 595 l 1
 500 696 l 1
 390 595 l 1
 351 595 l 1
EndSplineSet
EndChar

StartChar: wdieresis
Encoding: 7813 7813 357
Width: 710
Flags: MW
HStem: 0 32<191 207 191 229 508 525> 447 43<456 456> 480 20G<150 185 185 185 752 789 789 789> 633 65<384 428 399 413 572 586>
VStem: 153.5 34.5 464.5 33.5
LayerCount: 2
Fore
SplineSet
150 500 m 1xbc
 185 500 l 1xbc
 191 32 l 1
 207 32 l 1
 443 490 l 1
 488 490 l 1xdc
 508 32 l 1
 525 32 l 1
 752 500 l 1
 789 500 l 1xbc
 547 0 l 1
 473 0 l 1
 456 447 l 1xdc
 229 0 l 1
 157 0 l 1
 150 500 l 1xbc
384 633 m 1
 399 698 l 1
 428 698 l 1
 413 633 l 1
 384 633 l 1
559 633 m 1
 572 698 l 1
 601 698 l 1
 586 633 l 1
 559 633 l 1
EndSplineSet
EndChar

StartChar: ygrave
Encoding: 7923 7923 358
Width: 448
Flags: MW
HStem: 0 32<206 230> 480 20G<147 183 183 183 494 532 532 532>
VStem: 159.5 35
LayerCount: 2
Fore
SplineSet
250 721 m 1
 410 626 l 1
 392 604 l 1
 232 696 l 1
 250 721 l 1
147 500 m 1
 183 500 l 1
 206 32 l 1
 246 32 l 1
 494 500 l 1
 532 500 l 1
 145 -228 l 1
 107 -228 l 1
 230 0 l 1
 172 0 l 1
 147 500 l 1
EndSplineSet
EndChar

